<svg width="14" height="14" viewBox="0 0 14 14" fill="none" xmlns="http://www.w3.org/2000/svg">
<path d="M7.0013 1.16699C3.7813 1.16699 1.16797 3.78033 1.16797 7.00033C1.16797 10.2203 3.7813 12.8337 7.0013 12.8337C10.2213 12.8337 12.8346 10.2203 12.8346 7.00033C12.8346 3.78033 10.2213 1.16699 7.0013 1.16699ZM4.2888 10.792C5.05297 10.2437 5.9863 9.91699 7.0013 9.91699C8.0163 9.91699 8.94964 10.2437 9.7138 10.792C8.94964 11.3403 8.0163 11.667 7.0013 11.667C5.9863 11.667 5.05297 11.3403 4.2888 10.792ZM10.583 9.98699C9.5612 9.18533 8.30002 8.74963 7.0013 8.74963C5.70258 8.74963 4.44141 9.18533 3.41964 9.98699C2.71784 9.1501 2.33364 8.09253 2.33464 7.00033C2.33464 4.42199 4.42297 2.33366 7.0013 2.33366C9.57964 2.33366 11.668 4.42199 11.668 7.00033C11.668 8.13783 11.2596 9.17616 10.583 9.98699Z" fill="url(#paint0_linear_229_623)"/>
<path d="M6.9987 3.5C5.87286 3.5 4.95703 4.41583 4.95703 5.54167C4.95703 6.6675 5.87286 7.58333 6.9987 7.58333C8.12453 7.58333 9.04036 6.6675 9.04036 5.54167C9.04036 4.41583 8.12453 3.5 6.9987 3.5ZM6.9987 6.41667C6.51453 6.41667 6.1237 6.02583 6.1237 5.54167C6.1237 5.0575 6.51453 4.66667 6.9987 4.66667C7.48286 4.66667 7.8737 5.0575 7.8737 5.54167C7.8737 6.02583 7.48286 6.41667 6.9987 6.41667Z" fill="url(#paint1_linear_229_623)"/>
<defs>
<linearGradient id="paint0_linear_229_623" x1="1.16797" y1="1.16699" x2="14.7416" y2="9.85409" gradientUnits="userSpaceOnUse">
<stop stop-color="#AD37E0"/>
<stop offset="1" stop-color="#EE2B3B"/>
</linearGradient>
<linearGradient id="paint1_linear_229_623" x1="4.95703" y1="3.5" x2="9.70779" y2="6.54048" gradientUnits="userSpaceOnUse">
<stop stop-color="#AD37E0"/>
<stop offset="1" stop-color="#EE2B3B"/>
</linearGradient>
</defs>
</svg>
