<svg width="24" height="24" viewBox="0 0 24 24" fill="none" xmlns="http://www.w3.org/2000/svg">
<path d="M12.001 2C6.48098 2 2.00098 6.48 2.00098 12C2.00098 17.52 6.48098 22 12.001 22C17.521 22 22.001 17.52 22.001 12C22.001 6.48 17.521 2 12.001 2ZM7.35098 18.5C8.66098 17.56 10.261 17 12.001 17C13.741 17 15.341 17.56 16.651 18.5C15.341 19.44 13.741 20 12.001 20C10.261 20 8.66098 19.44 7.35098 18.5ZM18.141 17.12C16.3894 15.7457 14.2274 14.9988 12.001 14.9988C9.7746 14.9988 7.61258 15.7457 5.86098 17.12C4.6579 15.6853 3.99928 13.8723 4.00098 12C4.00098 7.58 7.58098 4 12.001 4C16.421 4 20.001 7.58 20.001 12C20.001 13.95 19.301 15.73 18.141 17.12Z" fill="#252525"/>
<path d="M11.999 6C10.069 6 8.49902 7.57 8.49902 9.5C8.49902 11.43 10.069 13 11.999 13C13.929 13 15.499 11.43 15.499 9.5C15.499 7.57 13.929 6 11.999 6ZM11.999 11C11.169 11 10.499 10.33 10.499 9.5C10.499 8.67 11.169 8 11.999 8C12.829 8 13.499 8.67 13.499 9.5C13.499 10.33 12.829 11 11.999 11Z" fill="#252525"/>
</svg>
