<svg width="35" height="35" viewBox="0 0 35 35" fill="none" xmlns="http://www.w3.org/2000/svg">
<path d="M27.7077 7.2915H7.29102C6.13069 7.2915 5.0179 7.75244 4.19742 8.57291C3.37695 9.39338 2.91602 10.5062 2.91602 11.6665V23.3332C2.91602 24.4935 3.37695 25.6063 4.19742 26.4268C5.0179 27.2472 6.13069 27.7082 7.29102 27.7082H27.7077C28.868 27.7082 29.9808 27.2472 30.8013 26.4268C31.6217 25.6063 32.0827 24.4935 32.0827 23.3332V11.6665C32.0827 10.5062 31.6217 9.39338 30.8013 8.57291C29.9808 7.75244 28.868 7.2915 27.7077 7.2915ZM5.83268 11.6665C5.83268 11.2797 5.98633 10.9088 6.25982 10.6353C6.53331 10.3618 6.90424 10.2082 7.29102 10.2082H27.7077C28.0945 10.2082 28.4654 10.3618 28.7389 10.6353C29.0124 10.9088 29.166 11.2797 29.166 11.6665V13.1248H5.83268V11.6665ZM29.166 23.3332C29.166 23.7199 29.0124 24.0909 28.7389 24.3644C28.4654 24.6379 28.0945 24.7915 27.7077 24.7915H7.29102C6.90424 24.7915 6.53331 24.6379 6.25982 24.3644C5.98633 24.0909 5.83268 23.7199 5.83268 23.3332V16.0415H29.166V23.3332Z" fill="url(#paint0_linear_189_1076)"/>
<path d="M10.2083 21.8747H16.0417C16.4284 21.8747 16.7994 21.721 17.0729 21.4475C17.3464 21.174 17.5 20.8031 17.5 20.4163C17.5 20.0296 17.3464 19.6586 17.0729 19.3851C16.7994 19.1117 16.4284 18.958 16.0417 18.958H10.2083C9.82156 18.958 9.45063 19.1117 9.17714 19.3851C8.90365 19.6586 8.75 20.0296 8.75 20.4163C8.75 20.8031 8.90365 21.174 9.17714 21.4475C9.45063 21.721 9.82156 21.8747 10.2083 21.8747ZM21.875 21.8747H24.7917C25.1784 21.8747 25.5494 21.721 25.8229 21.4475C26.0964 21.174 26.25 20.8031 26.25 20.4163C26.25 20.0296 26.0964 19.6586 25.8229 19.3851C25.5494 19.1117 25.1784 18.958 24.7917 18.958H21.875C21.4882 18.958 21.1173 19.1117 20.8438 19.3851C20.5703 19.6586 20.4167 20.0296 20.4167 20.4163C20.4167 20.8031 20.5703 21.174 20.8438 21.4475C21.1173 21.721 21.4882 21.8747 21.875 21.8747Z" fill="url(#paint1_linear_189_1076)"/>
<defs>
<linearGradient id="paint0_linear_189_1076" x1="2.91602" y1="7.2915" x2="28.9702" y2="31.1125" gradientUnits="userSpaceOnUse">
<stop stop-color="#AD37E0"/>
<stop offset="1" stop-color="#EE2B3B"/>
</linearGradient>
<linearGradient id="paint1_linear_189_1076" x1="8.75" y1="18.958" x2="10.5727" y2="25.9573" gradientUnits="userSpaceOnUse">
<stop stop-color="#AD37E0"/>
<stop offset="1" stop-color="#EE2B3B"/>
</linearGradient>
</defs>
</svg>
