<svg width="24" height="24" viewBox="0 0 24 24" fill="none" xmlns="http://www.w3.org/2000/svg">
<path d="M9.26875 2.3999C8.67995 2.3999 8.28741 2.80411 8.28741 3.41043V4.52201C6.61915 5.02727 5.34341 6.54306 5.34341 8.46306V11.4946C3.67515 11.4946 2.39941 12.8083 2.39941 14.5262C2.39941 16.2441 3.67515 17.5578 5.34341 17.5578C5.34341 19.781 7.10981 21.5999 9.26875 21.5999H16.1381C18.297 21.5999 20.0634 19.781 20.0634 17.5578V8.46306C20.0634 6.54306 18.7877 5.02727 17.1194 4.52201V3.41043C17.1194 2.80411 16.7269 2.3999 16.1381 2.3999C15.5493 2.3999 15.1567 2.80411 15.1567 3.41043V4.42095H10.2501V3.41043C10.2501 2.80411 9.85755 2.3999 9.26875 2.3999ZM6.32475 15.5367H5.34341C4.75461 15.5367 4.36208 15.1325 4.36208 14.5262C4.36208 13.9199 4.75461 13.5157 5.34341 13.5157H13.1941C13.7829 13.5157 14.1754 13.9199 14.1754 14.5262C14.1754 14.7283 14.1754 14.9304 14.2735 15.1325V15.3346C14.2735 15.4357 14.2735 15.5367 14.3717 15.6378H6.32475V15.5367ZM18.1007 17.5578C18.1007 18.6694 17.2175 19.5788 16.1381 19.5788H9.26875C8.18928 19.5788 7.30608 18.6694 7.30608 17.5578H17.4138C17.7082 17.5578 17.9045 17.4567 18.1007 17.3557V17.5578ZM16.1381 6.44201C17.2175 6.44201 18.1007 7.35148 18.1007 8.46306V14.4252C18.1007 15.0315 17.7082 15.5367 17.2175 15.5367H16.825C16.7269 15.4357 16.6287 15.4357 16.4325 15.3346C16.2362 15.0315 16.1381 14.8294 16.1381 14.5262C16.1381 12.8083 14.8623 11.4946 13.1941 11.4946H7.30608V8.46306C7.30608 7.35148 8.18928 6.44201 9.26875 6.44201H16.1381Z" fill="#252525"/>
</svg>
