<svg width="24" height="24" viewBox="0 0 24 24" fill="none" xmlns="http://www.w3.org/2000/svg">
<path d="M9.35922 12.0019H7.59922C7.36583 12.0019 7.142 12.0946 6.97697 12.2596C6.81194 12.4246 6.71922 12.6484 6.71922 12.8818C6.71922 13.1151 6.81194 13.3389 6.97697 13.5039C7.142 13.6689 7.36583 13.7616 7.59922 13.7616H9.35922C9.59261 13.7616 9.81645 13.6689 9.98148 13.5039C10.1465 13.3389 10.2392 13.1151 10.2392 12.8818C10.2392 12.6484 10.1465 12.4246 9.98148 12.2596C9.81645 12.0946 9.59261 12.0019 9.35922 12.0019ZM8.47922 10.2423H11.9992C12.2326 10.2423 12.4564 10.1496 12.6215 9.9846C12.7865 9.8196 12.8792 9.59581 12.8792 9.36247C12.8792 9.12912 12.7865 8.90534 12.6215 8.74034C12.4564 8.57534 12.2326 8.48264 11.9992 8.48264H8.47922C8.24583 8.48264 8.022 8.57534 7.85697 8.74034C7.69194 8.90534 7.59922 9.12912 7.59922 9.36247C7.59922 9.59581 7.69194 9.8196 7.85697 9.9846C8.022 10.1496 8.24583 10.2423 8.47922 10.2423ZM9.35922 15.5212H7.59922C7.36583 15.5212 7.142 15.6139 6.97697 15.7789C6.81194 15.9439 6.71922 16.1677 6.71922 16.4011C6.71922 16.6344 6.81194 16.8582 6.97697 17.0232C7.142 17.1882 7.36583 17.2809 7.59922 17.2809H9.35922C9.59261 17.2809 9.81645 17.1882 9.98148 17.0232C10.1465 16.8582 10.2392 16.6344 10.2392 16.4011C10.2392 16.1677 10.1465 15.9439 9.98148 15.7789C9.81645 15.6139 9.59261 15.5212 9.35922 15.5212ZM19.9192 12.0019H17.2792V4.08352C17.2798 3.92848 17.2395 3.77604 17.1622 3.64162C17.0849 3.5072 16.9735 3.39559 16.8392 3.31807C16.7054 3.24085 16.5537 3.2002 16.3992 3.2002C16.2447 3.2002 16.093 3.24085 15.9592 3.31807L13.3192 4.83137L10.6792 3.31807C10.5454 3.24085 10.3937 3.2002 10.2392 3.2002C10.0848 3.2002 9.933 3.24085 9.79922 3.31807L7.15922 4.83137L4.51923 3.31807C4.38545 3.24085 4.2337 3.2002 4.07923 3.2002C3.92475 3.2002 3.773 3.24085 3.63923 3.31807C3.50493 3.39559 3.39351 3.5072 3.31625 3.64162C3.23898 3.77604 3.19861 3.92848 3.19923 4.08352V18.1607C3.19923 18.8608 3.47737 19.5321 3.97246 20.0271C4.46756 20.5221 5.13905 20.8002 5.83922 20.8002H18.1592C18.8594 20.8002 19.5309 20.5221 20.026 20.0271C20.5211 19.5321 20.7992 18.8608 20.7992 18.1607V12.8818C20.7992 12.6484 20.7065 12.4246 20.5415 12.2596C20.3764 12.0946 20.1526 12.0019 19.9192 12.0019ZM5.83922 19.0405C5.60583 19.0405 5.382 18.9479 5.21697 18.7829C5.05194 18.6179 4.95923 18.3941 4.95923 18.1607V5.60561L6.71922 6.60862C6.85504 6.67954 7.006 6.71658 7.15922 6.71658C7.31245 6.71658 7.46341 6.67954 7.59922 6.60862L10.2392 5.09532L12.8792 6.60862C13.015 6.67954 13.166 6.71658 13.3192 6.71658C13.4724 6.71658 13.6234 6.67954 13.7592 6.60862L15.5192 5.60561V18.1607C15.5216 18.4609 15.5752 18.7584 15.6776 19.0405H5.83922ZM19.0392 18.1607C19.0392 18.3941 18.9465 18.6179 18.7815 18.7829C18.6164 18.9479 18.3926 19.0405 18.1592 19.0405C17.9258 19.0405 17.702 18.9479 17.537 18.7829C17.3719 18.6179 17.2792 18.3941 17.2792 18.1607V13.7616H19.0392V18.1607ZM13.372 15.6708C13.323 15.6375 13.2697 15.6109 13.2136 15.5916C13.1612 15.5648 13.1047 15.547 13.0464 15.5388C12.905 15.5105 12.7589 15.5174 12.6208 15.5588C12.4827 15.6002 12.3569 15.675 12.2544 15.7764C12.0936 15.945 12.0025 16.1681 11.9992 16.4011C11.9978 16.5155 12.0187 16.629 12.0608 16.7354C12.1087 16.8423 12.1741 16.9405 12.2544 17.0257C12.34 17.1035 12.4382 17.166 12.5448 17.2105C12.6502 17.2571 12.7641 17.2811 12.8792 17.2811C12.9944 17.2811 13.1083 17.2571 13.2136 17.2105C13.3203 17.166 13.4185 17.1035 13.504 17.0257C13.5856 16.9435 13.6501 16.846 13.6939 16.7388C13.7377 16.6316 13.7599 16.5169 13.7592 16.4011C13.756 16.1681 13.6648 15.945 13.504 15.7764C13.4622 15.7386 13.4181 15.7033 13.372 15.6708ZM13.4952 12.2571C13.3925 12.157 13.2668 12.0836 13.1292 12.0432C12.9916 12.0028 12.8462 11.9967 12.7056 12.0253C12.5651 12.0539 12.4337 12.1165 12.3228 12.2075C12.212 12.2985 12.125 12.4152 12.0696 12.5474C12.0149 12.6807 11.9937 12.8254 12.0079 12.9688C12.0222 13.1122 12.0715 13.2499 12.1514 13.3698C12.2314 13.4897 12.3395 13.5882 12.4664 13.6565C12.5933 13.7248 12.7351 13.7609 12.8792 13.7616C13.1126 13.7616 13.3364 13.6689 13.5015 13.5039C13.6665 13.3389 13.7592 13.1151 13.7592 12.8818C13.7578 12.7668 13.7339 12.6532 13.6888 12.5474C13.6464 12.4376 13.5803 12.3385 13.4952 12.2571Z" fill="#252525"/>
</svg>
