<svg width="35" height="35" viewBox="0 0 35 35" fill="none" xmlns="http://www.w3.org/2000/svg">
<path d="M17.5007 17.4998C16.6354 17.4998 15.7895 17.7564 15.07 18.2372C14.3506 18.7179 13.7898 19.4012 13.4587 20.2006C13.1275 21 13.0409 21.8797 13.2097 22.7284C13.3785 23.577 13.7952 24.3566 14.4071 24.9684C15.0189 25.5803 15.7985 25.997 16.6471 26.1658C17.4958 26.3346 18.3755 26.2479 19.1749 25.9168C19.9743 25.5857 20.6576 25.0249 21.1383 24.3055C21.6191 23.586 21.8756 22.7401 21.8756 21.8748C21.8756 20.7145 21.4147 19.6017 20.5942 18.7812C19.7738 17.9608 18.661 17.4998 17.5007 17.4998ZM17.5007 23.3332C17.2122 23.3332 16.9303 23.2476 16.6904 23.0874C16.4506 22.9272 16.2637 22.6994 16.1533 22.4329C16.0429 22.1664 16.0141 21.8732 16.0703 21.5903C16.1266 21.3074 16.2655 21.0476 16.4695 20.8436C16.6734 20.6397 16.9333 20.5008 17.2161 20.4445C17.499 20.3883 17.7923 20.4171 18.0587 20.5275C18.3252 20.6379 18.553 20.8248 18.7132 21.0646C18.8735 21.3045 18.959 21.5864 18.959 21.8748C18.959 22.2616 18.8053 22.6325 18.5318 22.906C18.2584 23.1795 17.8874 23.3332 17.5007 23.3332ZM16.4652 14.1603C16.6039 14.293 16.7675 14.3971 16.9465 14.4665C17.121 14.5437 17.3098 14.5835 17.5007 14.5835C17.6915 14.5835 17.8803 14.5437 18.0548 14.4665C18.2338 14.3971 18.3974 14.293 18.5361 14.1603L21.8756 10.879C22.158 10.5967 22.3166 10.2137 22.3166 9.81442C22.3166 9.41512 22.158 9.03218 21.8756 8.74984C21.5933 8.46749 21.2104 8.30887 20.8111 8.30887C20.4118 8.30887 20.0288 8.46749 19.7465 8.74984L18.959 9.61025V4.37484C18.959 3.98806 18.8053 3.61713 18.5318 3.34364C18.2584 3.07015 17.8874 2.9165 17.5007 2.9165C17.1139 2.9165 16.7429 3.07015 16.4695 3.34364C16.196 3.61713 16.0423 3.98806 16.0423 4.37484V9.61025L15.2548 8.74984C14.9725 8.46749 14.5895 8.30887 14.1902 8.30887C13.7909 8.30887 13.408 8.46749 13.1257 8.74984C12.8433 9.03218 12.6847 9.41512 12.6847 9.81442C12.6847 10.2137 12.8433 10.5967 13.1257 10.879L16.4652 14.1603ZM27.709 21.8748C27.709 21.5864 27.6235 21.3045 27.4632 21.0646C27.303 20.8248 27.0752 20.6379 26.8087 20.5275C26.5423 20.4171 26.249 20.3883 25.9661 20.4445C25.6833 20.5008 25.4234 20.6397 25.2195 20.8436C25.0155 21.0476 24.8766 21.3074 24.8203 21.5903C24.7641 21.8732 24.7929 22.1664 24.9033 22.4329C25.0137 22.6994 25.2006 22.9272 25.4404 23.0874C25.6803 23.2476 25.9622 23.3332 26.2506 23.3332C26.6374 23.3332 27.0084 23.1795 27.2818 22.906C27.5553 22.6325 27.709 22.2616 27.709 21.8748ZM29.1673 11.6665H24.7923C24.4055 11.6665 24.0346 11.8201 23.7611 12.0936C23.4876 12.3671 23.334 12.7381 23.334 13.1248C23.334 13.5116 23.4876 13.8825 23.7611 14.156C24.0346 14.4295 24.4055 14.5832 24.7923 14.5832H29.1673C29.5541 14.5832 29.925 14.7368 30.1985 15.0103C30.472 15.2838 30.6256 15.6547 30.6256 16.0415V27.7082C30.6256 28.0949 30.472 28.4659 30.1985 28.7394C29.925 29.0129 29.5541 29.1665 29.1673 29.1665H5.83398C5.44721 29.1665 5.07628 29.0129 4.80279 28.7394C4.5293 28.4659 4.37565 28.0949 4.37565 27.7082V16.0415C4.37565 15.6547 4.5293 15.2838 4.80279 15.0103C5.07628 14.7368 5.44721 14.5832 5.83398 14.5832H10.209C10.5958 14.5832 10.9667 14.4295 11.2402 14.156C11.5137 13.8825 11.6673 13.5116 11.6673 13.1248C11.6673 12.7381 11.5137 12.3671 11.2402 12.0936C10.9667 11.8201 10.5958 11.6665 10.209 11.6665H5.83398C4.67366 11.6665 3.56086 12.1274 2.74039 12.9479C1.91992 13.7684 1.45898 14.8812 1.45898 16.0415V27.7082C1.45898 28.8685 1.91992 29.9813 2.74039 30.8018C3.56086 31.6222 4.67366 32.0832 5.83398 32.0832H29.1673C30.3276 32.0832 31.4404 31.6222 32.2609 30.8018C33.0814 29.9813 33.5423 28.8685 33.5423 27.7082V16.0415C33.5423 14.8812 33.0814 13.7684 32.2609 12.9479C31.4404 12.1274 30.3276 11.6665 29.1673 11.6665ZM7.29232 21.8748C7.29232 22.1633 7.37785 22.4452 7.53809 22.685C7.69833 22.9249 7.9261 23.1118 8.19257 23.2222C8.45905 23.3325 8.75227 23.3614 9.03516 23.3051C9.31805 23.2489 9.5779 23.11 9.78185 22.906C9.9858 22.7021 10.1247 22.4422 10.181 22.1593C10.2372 21.8765 10.2084 21.5832 10.098 21.3168C9.9876 21.0503 9.80068 20.8225 9.56086 20.6623C9.32104 20.502 9.03908 20.4165 8.75065 20.4165C8.36388 20.4165 7.99294 20.5701 7.71945 20.8436C7.44596 21.1171 7.29232 21.4881 7.29232 21.8748Z" fill="white"/>
</svg>
