<svg width="24" height="24" viewBox="0 0 24 24" fill="none" xmlns="http://www.w3.org/2000/svg">
<path d="M17.2622 3.2002C16.378 3.2002 15.5822 3.55388 14.9632 4.08441H7.53587C5.5906 4.08441 3.99902 5.67598 3.99902 7.62125V16.4634C3.99902 18.4086 5.5906 20.0002 7.53587 20.0002H16.378C18.3232 20.0002 19.9148 18.4086 19.9148 16.4634V9.03598C20.4453 8.41704 20.799 7.62125 20.799 6.73704C20.799 4.79177 19.2074 3.2002 17.2622 3.2002ZM19.0306 6.73704C19.0306 7.26756 18.8538 7.70967 18.4117 8.06335C18.1464 8.32862 17.7043 8.50546 17.2622 8.50546C16.2895 8.50546 15.4938 7.70967 15.4938 6.73704C15.4938 6.29493 15.6706 5.85283 15.9359 5.58756C16.2895 5.14546 16.7317 4.96862 17.2622 4.96862C18.2348 4.96862 19.0306 5.76441 19.0306 6.73704ZM18.1464 16.4634C18.1464 17.436 17.3506 18.2318 16.378 18.2318H7.53587C6.56323 18.2318 5.76744 17.436 5.76744 16.4634V7.62125C5.76744 6.64862 6.56323 5.85283 7.53587 5.85283H13.8138V6.20651C13.7253 6.38335 13.7253 6.56019 13.7253 6.73704C13.7253 8.6823 15.3169 10.2739 17.2622 10.2739C17.439 10.2739 17.6159 10.2739 17.8811 10.1855H18.2348V16.4634H18.1464Z" fill="#252525"/>
<path d="M7.99902 13H11.999C12.599 13 12.999 12.6 12.999 12C12.999 11.4 12.599 11 11.999 11H7.99902C7.39902 11 6.99902 11.4 6.99902 12C6.99902 12.6 7.39902 13 7.99902 13ZM15.999 15H7.99902C7.39902 15 6.99902 15.4 6.99902 16C6.99902 16.6 7.39902 17 7.99902 17H15.999C16.599 17 16.999 16.6 16.999 16C16.999 15.4 16.599 15 15.999 15Z" fill="#252525"/>
</svg>
