<svg width="24" height="24" viewBox="0 0 24 24" fill="none" xmlns="http://www.w3.org/2000/svg">
<path d="M18.999 18.9V6.4L19.699 5.7C20.199 5.2 20.399 4.6 20.399 4C20.399 3.4 20.099 2.7 19.699 2.3C18.799 1.4 17.199 1.4 16.299 2.3L15.599 3H7.19902C5.39902 3 3.99902 4.4 3.99902 6.1V18.9C3.99902 20.6 5.39902 22 7.19902 22H15.899C17.599 22 18.999 20.6 18.999 18.9ZM18.299 3.7C18.399 3.8 18.399 3.9 18.399 4C18.399 4.1 18.399 4.2 18.299 4.2C18.199 4 17.999 3.8 17.799 3.7C17.899 3.6 18.199 3.6 18.299 3.7ZM16.999 18.9C16.999 19.5 16.499 20 15.799 20H7.19902C6.49902 20 5.99902 19.5 5.99902 18.9V6.1C5.99902 5.5 6.49902 5 7.19902 5H13.599L12.299 6.3C11.799 6.8 11.599 7.4 11.599 8C11.599 8.6 11.899 9.3 12.299 9.7C12.799 10.2 13.399 10.4 13.999 10.4C14.599 10.4 15.199 10.2 15.699 9.7C16.099 9.3 16.099 8.7 15.699 8.3C15.299 7.9 14.699 7.9 14.299 8.3C14.099 8.5 13.899 8.5 13.699 8.3C13.599 8.2 13.599 8.1 13.599 8C13.599 7.9 13.599 7.8 13.699 7.7L16.299 5.1C16.699 5.3 16.999 5.7 16.999 6.1V18.9Z" fill="#252525"/>
<path d="M9.00098 14H11.001C11.601 14 12.001 13.6 12.001 13C12.001 12.4 11.601 12 11.001 12H9.00098C8.40098 12 8.00098 12.4 8.00098 13C8.00098 13.6 8.40098 14 9.00098 14ZM14.001 16H9.00098C8.40098 16 8.00098 16.4 8.00098 17C8.00098 17.6 8.40098 18 9.00098 18H14.001C14.601 18 15.001 17.6 15.001 17C15.001 16.4 14.601 16 14.001 16Z" fill="#252525"/>
</svg>
