<svg width="24" height="24" viewBox="0 0 24 24" fill="none" xmlns="http://www.w3.org/2000/svg">
<path d="M15.999 2H7.99902C5.79902 2 3.99902 3.8 3.99902 6V18C3.99902 20.2 5.79902 22 7.99902 22H11.999C12.099 22 12.299 22 12.399 21.9C12.499 21.8 12.599 21.8 12.699 21.7L19.699 14.7C19.799 14.6 19.799 14.5 19.899 14.4V14.3C19.899 14.2 19.899 14.1 19.999 14V6C19.999 3.8 18.199 2 15.999 2ZM12.999 18.6V17C12.999 15.9 13.899 15 14.999 15H16.599L12.999 18.6ZM17.999 13H14.999C12.799 13 10.999 14.8 10.999 17V20H7.99902C6.89902 20 5.99902 19.1 5.99902 18V6C5.99902 4.9 6.89902 4 7.99902 4H15.999C17.099 4 17.999 4.9 17.999 6V13Z" fill="#252525"/>
<path d="M9.00098 8H12.001C12.601 8 13.001 7.6 13.001 7C13.001 6.4 12.601 6 12.001 6H9.00098C8.40098 6 8.00098 6.4 8.00098 7C8.00098 7.6 8.40098 8 9.00098 8ZM15.001 10H9.00098C8.40098 10 8.00098 10.4 8.00098 11C8.00098 11.6 8.40098 12 9.00098 12H15.001C15.601 12 16.001 11.6 16.001 11C16.001 10.4 15.601 10 15.001 10Z" fill="#252525"/>
</svg>
