<svg width="14" height="14" viewBox="0 0 14 14" fill="none" xmlns="http://www.w3.org/2000/svg">
<path d="M9.91634 5.24984V4.08317C9.91634 2.44984 8.63301 1.1665 6.99967 1.1665C5.36634 1.1665 4.08301 2.44984 4.08301 4.08317V5.24984C3.09134 5.24984 2.33301 6.00817 2.33301 6.99984V11.0832C2.33301 12.0748 3.09134 12.8332 4.08301 12.8332H9.91634C10.908 12.8332 11.6663 12.0748 11.6663 11.0832V6.99984C11.6663 6.00817 10.908 5.24984 9.91634 5.24984ZM5.24967 4.08317C5.24967 3.0915 6.00801 2.33317 6.99967 2.33317C7.99134 2.33317 8.74967 3.0915 8.74967 4.08317V5.24984H5.24967V4.08317ZM7.58301 9.9165C7.58301 10.2665 7.34967 10.4998 6.99967 10.4998C6.64967 10.4998 6.41634 10.2665 6.41634 9.9165V8.1665C6.41634 7.8165 6.64967 7.58317 6.99967 7.58317C7.34967 7.58317 7.58301 7.8165 7.58301 8.1665V9.9165Z" fill="#EE2B3B"/>
</svg>
