<svg width="24" height="24" viewBox="0 0 24 24" fill="none" xmlns="http://www.w3.org/2000/svg">
<path d="M15.6955 12.8097C15.6795 12.8027 15.6645 12.7948 15.6485 12.7886C15.5264 12.7341 15.406 12.6769 15.2811 12.6277C16.15 11.9497 16.7844 11.0195 17.0962 9.96658C17.4079 8.91362 17.3815 7.79029 17.0205 6.75298C16.6594 5.71567 15.9819 4.81599 15.082 4.1792C14.1822 3.54241 13.1049 3.2002 12.0001 3.2002C10.8953 3.2002 9.81802 3.54241 8.91819 4.1792C8.01836 4.81599 7.34077 5.71567 6.97976 6.75298C6.61875 7.79029 6.59227 8.91362 6.90403 9.96658C7.21578 11.0195 7.85024 11.9497 8.71909 12.6277C8.59514 12.6769 8.47385 12.7341 8.35168 12.7886L8.30387 12.8097C6.91454 13.4394 5.71391 14.4171 4.81988 15.647C3.92584 16.8769 3.36912 18.3167 3.20439 19.8249C3.19184 19.9398 3.20219 20.0561 3.23486 20.1671C3.26753 20.278 3.32187 20.3815 3.39479 20.4716C3.46771 20.5616 3.55778 20.6366 3.65985 20.6921C3.76192 20.7476 3.874 20.7826 3.98968 20.7951C4.10536 20.8075 4.22238 20.7972 4.33406 20.7648C4.44574 20.7323 4.54989 20.6783 4.64057 20.6059C4.73125 20.5335 4.80668 20.444 4.86255 20.3426C4.91842 20.2412 4.95363 20.1298 4.96619 20.0149C5.08648 18.9124 5.46919 17.8541 6.08266 16.9276C6.69613 16.0011 7.52276 15.233 8.49422 14.6867L11.3733 17.546C11.5393 17.7109 11.7645 17.8036 11.9992 17.8036C12.234 17.8036 12.4591 17.7109 12.6251 17.546L15.5042 14.6867C16.476 15.2327 17.303 16.0008 17.9168 16.9273C18.5306 17.8538 18.9135 18.9122 19.034 20.0149C19.0576 20.2301 19.1602 20.4292 19.3222 20.5739C19.4843 20.7187 19.6943 20.799 19.9123 20.7995C19.9448 20.7994 19.9773 20.7976 20.0097 20.7942C20.243 20.7689 20.4568 20.6527 20.6039 20.4709C20.751 20.2891 20.8194 20.0568 20.7941 19.8249C20.6293 18.3167 20.0726 16.8769 19.1786 15.647C18.2845 14.4171 17.0839 13.4394 15.6946 12.8097H15.6955ZM8.4951 8.12882C8.57834 7.2626 8.98358 6.4583 9.63168 5.87297C10.2798 5.28764 11.1242 4.96331 12.0001 4.96331C12.876 4.96331 13.7204 5.28764 14.3685 5.87297C15.0166 6.4583 15.4219 7.2626 15.5051 8.12882H8.4951ZM12.0001 15.6805L10.2852 13.9769C11.4105 13.6916 12.5898 13.6916 13.715 13.9769L12.0001 15.6805ZM12.0001 12.0041C11.3108 12.0029 10.6369 11.8021 10.0607 11.4263C9.48457 11.0504 9.03125 10.5158 8.75627 9.88789H15.2439C14.969 10.5158 14.5156 11.0504 13.9395 11.4263C13.3633 11.8021 12.6894 12.0029 12.0001 12.0041Z" fill="#252525"/>
</svg>
