<svg width="9" height="6" viewBox="0 0 9 6" fill="none" xmlns="http://www.w3.org/2000/svg">
<path d="M1.15408 1.15296C1.25277 1.05502 1.3866 1 1.52614 1C1.66569 1 1.79952 1.05502 1.89821 1.15296L4.50318 3.73897L7.10815 1.15296C7.2074 1.0578 7.34033 1.00514 7.47832 1.00633C7.6163 1.00752 7.74829 1.06246 7.84586 1.15932C7.94344 1.25619 7.99878 1.38722 7.99998 1.5242C8.00118 1.66117 7.94814 1.79314 7.85227 1.89167L4.87524 4.84704C4.77655 4.94498 4.64272 5 4.50318 5C4.36363 5 4.2298 4.94498 4.13111 4.84704L1.15408 1.89167C1.05542 1.7937 1 1.66084 1 1.52232C1 1.38379 1.05542 1.25093 1.15408 1.15296Z" fill="white" stroke="white" stroke-width="0.4"/>
</svg>
