<svg width="30" height="30" viewBox="0 0 30 30" fill="none" xmlns="http://www.w3.org/2000/svg">
<path d="M12.5 10H20C20.3315 10 20.6495 9.8683 20.8839 9.63388C21.1183 9.39946 21.25 9.08152 21.25 8.75C21.25 8.41848 21.1183 8.10054 20.8839 7.86612C20.6495 7.6317 20.3315 7.5 20 7.5H12.5C12.1685 7.5 11.8505 7.6317 11.6161 7.86612C11.3817 8.10054 11.25 8.41848 11.25 8.75C11.25 9.08152 11.3817 9.39946 11.6161 9.63388C11.8505 9.8683 12.1685 10 12.5 10ZM10 15H20C20.3315 15 20.6495 14.8683 20.8839 14.6339C21.1183 14.3995 21.25 14.0815 21.25 13.75C21.25 13.4185 21.1183 13.1005 20.8839 12.8661C20.6495 12.6317 20.3315 12.5 20 12.5H10C9.66848 12.5 9.35054 12.6317 9.11612 12.8661C8.8817 13.1005 8.75 13.4185 8.75 13.75C8.75 14.0815 8.8817 14.3995 9.11612 14.6339C9.35054 14.8683 9.66848 15 10 15ZM10 20H20C20.3315 20 20.6495 19.8683 20.8839 19.6339C21.1183 19.3995 21.25 19.0815 21.25 18.75C21.25 18.4185 21.1183 18.1005 20.8839 17.8661C20.6495 17.6317 20.3315 17.5 20 17.5H10C9.66848 17.5 9.35054 17.6317 9.11612 17.8661C8.8817 18.1005 8.75 18.4185 8.75 18.75C8.75 19.0815 8.8817 19.3995 9.11612 19.6339C9.35054 19.8683 9.66848 20 10 20ZM25 2.5H5C4.66848 2.5 4.35054 2.6317 4.11612 2.86612C3.8817 3.10054 3.75 3.41848 3.75 3.75V26.25C3.75 26.4821 3.81464 26.7097 3.93669 26.9072C4.05873 27.1046 4.23335 27.2642 4.44098 27.368C4.64862 27.4718 4.88106 27.5158 5.11226 27.4949C5.34346 27.4741 5.56429 27.3893 5.75 27.25L8.3375 25.3125L10.9125 27.25C11.1289 27.4123 11.392 27.5 11.6625 27.5C11.933 27.5 12.1961 27.4123 12.4125 27.25L15 25.3125L17.5875 27.25C17.8039 27.4123 18.067 27.5 18.3375 27.5C18.608 27.5 18.8711 27.4123 19.0875 27.25L21.6625 25.3125L24.25 27.25C24.4366 27.3891 24.6583 27.4733 24.8902 27.4932C25.1221 27.5131 25.3549 27.4678 25.5625 27.3625C25.7686 27.2586 25.942 27.0997 26.0633 26.9033C26.1847 26.707 26.2493 26.4808 26.25 26.25V3.75C26.25 3.41848 26.1183 3.10054 25.8839 2.86612C25.6495 2.6317 25.3315 2.5 25 2.5ZM23.75 23.75L22.4125 22.75C22.1961 22.5877 21.933 22.5 21.6625 22.5C21.392 22.5 21.1289 22.5877 20.9125 22.75L18.3375 24.6875L15.75 22.75C15.5336 22.5877 15.2705 22.5 15 22.5C14.7295 22.5 14.4664 22.5877 14.25 22.75L11.6625 24.6875L9.0875 22.75C8.87113 22.5877 8.60796 22.5 8.3375 22.5C8.06704 22.5 7.80387 22.5877 7.5875 22.75L6.25 23.75V5H23.75V23.75Z" fill="white"/>
</svg>
