<svg width="24" height="24" viewBox="0 0 24 24" fill="none" xmlns="http://www.w3.org/2000/svg">
<path d="M17.6469 4.47073H16.7058V3.52956C16.7058 3.27994 16.6066 3.04055 16.4301 2.86404C16.2536 2.68754 16.0142 2.58838 15.7646 2.58838C15.515 2.58838 15.2756 2.68754 15.0991 2.86404C14.9226 3.04055 14.8234 3.27994 14.8234 3.52956V4.47073H9.17636V3.52956C9.17636 3.27994 9.0772 3.04055 8.90069 2.86404C8.72419 2.68754 8.4848 2.58838 8.23518 2.58838C7.98556 2.58838 7.74617 2.68754 7.56967 2.86404C7.39316 3.04055 7.294 3.27994 7.294 3.52956V4.47073H6.35283C5.60398 4.47073 4.8858 4.76821 4.35629 5.29772C3.82678 5.82724 3.5293 6.54541 3.5293 7.29426V18.5884C3.5293 19.3372 3.82678 20.0554 4.35629 20.5849C4.8858 21.1144 5.60398 21.4119 6.35283 21.4119H17.6469C18.3958 21.4119 19.114 21.1144 19.6435 20.5849C20.173 20.0554 20.4705 19.3372 20.4705 18.5884V7.29426C20.4705 6.54541 20.173 5.82724 19.6435 5.29772C19.114 4.76821 18.3958 4.47073 17.6469 4.47073ZM6.35283 6.35308H7.294V7.29426C7.294 7.54388 7.39316 7.78327 7.56967 7.95977C7.74617 8.13628 7.98556 8.23544 8.23518 8.23544C8.4848 8.23544 8.72419 8.13628 8.90069 7.95977C9.0772 7.78327 9.17636 7.54388 9.17636 7.29426V6.35308H14.8234V7.29426C14.8234 7.54388 14.9226 7.78327 15.0991 7.95977C15.2756 8.13628 15.515 8.23544 15.7646 8.23544C16.0142 8.23544 16.2536 8.13628 16.4301 7.95977C16.6066 7.78327 16.7058 7.54388 16.7058 7.29426V6.35308H17.6469C17.8966 6.35308 18.136 6.45224 18.3125 6.62875C18.489 6.80525 18.5881 7.04465 18.5881 7.29426V11.059H5.41165V7.29426C5.41165 7.04465 5.51081 6.80525 5.68731 6.62875C5.86382 6.45224 6.10321 6.35308 6.35283 6.35308ZM17.6469 19.5296H6.35283C6.10321 19.5296 5.86382 19.4304 5.68731 19.2539C5.51081 19.0774 5.41165 18.838 5.41165 18.5884V12.9413H18.5881V18.5884C18.5881 18.838 18.489 19.0774 18.3125 19.2539C18.136 19.4304 17.8966 19.5296 17.6469 19.5296Z" fill="url(#paint0_linear_158_196)"/>
<path d="M8.23415 16.7061C8.75394 16.7061 9.17532 16.2847 9.17532 15.7649C9.17532 15.2451 8.75394 14.8237 8.23415 14.8237C7.71435 14.8237 7.29297 15.2451 7.29297 15.7649C7.29297 16.2847 7.71435 16.7061 8.23415 16.7061Z" fill="url(#paint1_linear_158_196)"/>
<path d="M15.7645 14.8237H11.9998C11.7502 14.8237 11.5108 14.9229 11.3343 15.0994C11.1578 15.2759 11.0586 15.5153 11.0586 15.7649C11.0586 16.0145 11.1578 16.2539 11.3343 16.4304C11.5108 16.6069 11.7502 16.7061 11.9998 16.7061H15.7645C16.0141 16.7061 16.2535 16.6069 16.43 16.4304C16.6065 16.2539 16.7057 16.0145 16.7057 15.7649C16.7057 15.5153 16.6065 15.2759 16.43 15.0994C16.2535 14.9229 16.0141 14.8237 15.7645 14.8237Z" fill="url(#paint2_linear_158_196)"/>
<defs>
<linearGradient id="paint0_linear_158_196" x1="23.6469" y1="25.059" x2="-0.353053" y2="1.41189" gradientUnits="userSpaceOnUse">
<stop stop-color="#EE2B3B"/>
<stop offset="1" stop-color="#AD37E0"/>
</linearGradient>
<linearGradient id="paint1_linear_158_196" x1="9.52826" y1="17.0708" x2="7.13781" y2="14.4538" gradientUnits="userSpaceOnUse">
<stop stop-color="#EE2B3B"/>
<stop offset="1" stop-color="#AD37E0"/>
</linearGradient>
<linearGradient id="paint2_linear_158_196" x1="17.7645" y1="17.0708" x2="16.4268" y2="12.6775" gradientUnits="userSpaceOnUse">
<stop stop-color="#EE2B3B"/>
<stop offset="1" stop-color="#AD37E0"/>
</linearGradient>
</defs>
</svg>
