<svg width="156" height="32" viewBox="0 0 156 32" fill="none" xmlns="http://www.w3.org/2000/svg">
<path d="M38.0593 18.5522V3.19315L45.4536 3.19315C46.8871 3.19315 48.1231 3.4272 49.1617 3.89528C50.2149 4.36337 51.0267 5.03625 51.5972 5.91391C52.1677 6.77694 52.4529 7.80088 52.4529 8.98573C52.4529 10.1706 52.1677 11.1945 51.5972 12.0575C51.0267 12.906 50.2149 13.5569 49.1617 14.0103C48.1231 14.4638 46.8871 14.6905 45.4536 14.6905L40.9336 14.6905L43.2375 12.5622V18.5522H38.0593ZM47.2528 18.5522L43.4788 12.9571H48.9642L52.782 18.5522L47.2528 18.5522ZM43.2375 13.1327L40.9336 10.7849L45.1244 10.7849C45.8412 10.7849 46.3678 10.624 46.7042 10.3022C47.0553 9.98041 47.2308 9.54158 47.2308 8.98573C47.2308 8.42987 47.0553 7.99104 46.7042 7.66923C46.3678 7.34742 45.8412 7.18652 45.1244 7.18652L40.9336 7.18652L43.2375 4.83877V13.1327ZM59.1477 8.89796H65.9934V12.628L59.1477 12.628V8.89796ZM59.4987 14.6466L67.1783 14.6466V18.5522H54.4083V3.19315L66.893 3.19315V7.09875L59.4987 7.09875V14.6466ZM76.5221 18.9033C74.1671 18.9033 72.3313 18.267 71.0148 16.9944C69.6983 15.7218 69.0401 13.9372 69.0401 11.6407V3.19315L74.2183 3.19315V11.4871C74.2183 12.6573 74.4304 13.4911 74.8546 13.9884C75.2788 14.4711 75.8493 14.7125 76.566 14.7125C77.2974 14.7125 77.8679 14.4711 78.2775 13.9884C78.7017 13.4911 78.9138 12.6573 78.9138 11.4871V3.19315L84.0042 3.19315V11.6407C84.0042 13.9372 83.346 15.7218 82.0295 16.9944C80.713 18.267 78.8772 18.9033 76.5221 18.9033ZM86.3778 18.5522V3.19315L90.6345 3.19315L98.4457 12.5403L96.471 12.5403V3.19315L101.518 3.19315V18.5522H97.2608L89.4497 9.20514H91.4244V18.5522H86.3778ZM104.013 18.5522V3.19315L109.191 3.19315V18.5522H104.013ZM111.683 18.5522V3.19315L119.078 3.19315C120.511 3.19315 121.747 3.4272 122.786 3.89528C123.839 4.36337 124.651 5.03625 125.221 5.91391C125.792 6.77694 126.077 7.80088 126.077 8.98573C126.077 10.1706 125.792 11.1945 125.221 12.0575C124.651 12.906 123.839 13.5569 122.786 14.0103C121.747 14.4638 120.511 14.6905 119.078 14.6905H114.558L116.862 12.5622V18.5522L111.683 18.5522ZM120.877 18.5522L117.103 12.9571L122.588 12.9571L126.406 18.5522H120.877ZM116.862 13.1327L114.558 10.7849H118.749C119.465 10.7849 119.992 10.624 120.328 10.3022C120.68 9.98041 120.855 9.54158 120.855 8.98573C120.855 8.42987 120.68 7.99104 120.328 7.66923C119.992 7.34742 119.465 7.18652 118.749 7.18652L114.558 7.18652L116.862 4.83877V13.1327ZM131.153 18.5522V7.20846L126.655 7.20846V3.19315L140.83 3.19315V7.20846L136.332 7.20846V18.5522L131.153 18.5522ZM147.901 18.9033C146.614 18.9033 145.371 18.757 144.171 18.4645C142.972 18.1719 141.984 17.7916 141.209 17.3235L142.877 13.5496C143.608 13.9738 144.42 14.3175 145.312 14.5808C146.219 14.8295 147.097 14.9538 147.945 14.9538C148.443 14.9538 148.83 14.9246 149.108 14.8661C149.401 14.7929 149.613 14.6978 149.744 14.5808C149.876 14.4492 149.942 14.2956 149.942 14.1201C149.942 13.8421 149.788 13.6227 149.481 13.4618C149.174 13.3009 148.764 13.1693 148.252 13.0669C147.755 12.9498 147.206 12.8328 146.607 12.7158C146.007 12.5841 145.4 12.4159 144.786 12.2111C144.186 12.0063 143.63 11.7357 143.118 11.3993C142.621 11.0629 142.218 10.624 141.911 10.0828C141.604 9.52695 141.45 8.83945 141.45 8.0203C141.45 7.0695 141.714 6.20646 142.24 5.43119C142.782 4.6413 143.579 4.01231 144.632 3.54422C145.7 3.07613 147.024 2.84209 148.603 2.84209C149.642 2.84209 150.666 2.9518 151.675 3.17121C152.685 3.39063 153.591 3.72707 154.396 4.18052L152.838 7.93253C152.077 7.55221 151.339 7.26697 150.622 7.07681C149.92 6.88665 149.232 6.79157 148.56 6.79157C148.062 6.79157 147.667 6.83545 147.375 6.92322C147.082 7.01099 146.87 7.12801 146.738 7.27428C146.621 7.42056 146.563 7.58147 146.563 7.757C146.563 8.0203 146.716 8.2324 147.024 8.3933C147.331 8.53958 147.733 8.66392 148.23 8.76631C148.742 8.8687 149.298 8.97841 149.898 9.09543C150.512 9.21246 151.119 9.37336 151.719 9.57815C152.319 9.78294 152.867 10.0535 153.365 10.39C153.877 10.7264 154.286 11.1653 154.593 11.7065C154.901 12.2477 155.054 12.9206 155.054 13.7251C155.054 14.6613 154.784 15.5243 154.242 16.3142C153.716 17.0895 152.926 17.7185 151.873 18.2012C150.82 18.6693 149.496 18.9033 147.901 18.9033Z" fill="#252525"/>
<path opacity="0.5" d="M41.6138 28.4365L41.079 27.1941H38.6681L38.1333 28.4365H36.7675L39.2523 22.6851H40.4948L42.9797 28.4365H41.6138ZM39.8777 24.3965L39.1536 26.0668H40.5935L39.8777 24.3965ZM49.958 24.594C49.958 25.5156 49.5933 26.1107 48.8637 26.3795L50.3201 28.4365H48.7403L47.4649 26.6017H46.5763V28.4365H45.2927V22.6851H47.4732C48.3673 22.6851 49.0036 22.8359 49.3821 23.1376C49.7661 23.4393 49.958 23.9248 49.958 24.594ZM47.5143 25.4909C47.9531 25.4909 48.2521 25.4196 48.4112 25.2769C48.5702 25.1343 48.6498 24.9094 48.6498 24.6022C48.6498 24.2896 48.5675 24.0756 48.4029 23.9604C48.2384 23.8453 47.9504 23.7877 47.539 23.7877H46.5763V25.4909H47.5143ZM57.0635 22.6851V23.8288H54.2001V25.0136H56.7755V26.108H54.2001V27.301H57.154V28.4365H52.9166V22.6851H57.0635ZM62.3813 23.7959V28.4365H61.0977V23.7959H59.4685V22.6851H64.0105V23.7959H62.3813ZM70.1683 22.6851H71.4519V28.4365H70.1683V26.1738L67.8809 26.1738V28.4365L66.5973 28.4365V22.6851H67.8809V25.0877L70.1683 25.0877V22.6851ZM77.1517 27.301C77.7825 27.301 78.2981 27.0515 78.6985 26.5523L79.5214 27.3998C78.8686 28.1348 78.0979 28.5023 77.2093 28.5023C76.3261 28.5023 75.5966 28.2226 75.0206 27.6631C74.4501 27.1036 74.1649 26.3987 74.1649 25.5485C74.1649 24.6927 74.4556 23.9796 75.0371 23.4092C75.624 22.8387 76.3398 22.5534 77.1846 22.5534C78.1281 22.5534 78.918 22.9127 79.5543 23.6313L78.7561 24.5364C78.3502 24.0318 77.8456 23.7794 77.2422 23.7794C76.7595 23.7794 76.3453 23.9385 75.9997 24.2567C75.6596 24.5693 75.4896 24.9944 75.4896 25.532C75.4896 26.0641 75.6514 26.492 75.9751 26.8156C76.2987 27.1392 76.6909 27.301 77.1517 27.301ZM86.2399 28.4365L85.7051 27.1941H83.2943L82.7594 28.4365H81.3936L83.8784 22.6851H85.1209L87.6058 28.4365H86.2399ZM84.5038 24.3965L83.7797 26.0668H85.2196L84.5038 24.3965ZM89.9188 28.4365V22.6851H91.2024V27.2928H93.6544V28.4365H89.9188ZM99.8119 22.6851H101.096V28.4365H99.8119V26.1738H97.5245V28.4365H96.241V22.6851H97.5245V25.0877H99.8119V22.6851ZM108.301 22.6851V23.8288H105.438V25.0136H108.013V26.108H105.438V27.301H108.392V28.4365H104.154V22.6851H108.301Z" fill="#252525"/>
<path d="M9.8981 22.1772L9.8981 21.1505L8.87138 21.1505L4.10737 21.1505C2.40624 21.1505 1.0272 19.7715 1.0272 18.0703L1.0272 12.7314C1.0272 11.0302 2.40624 9.65118 4.10737 9.65118L9.85704 9.65118C16.0945 9.65118 21.151 14.7077 21.151 20.9452L21.151 27.1055C21.151 28.8066 19.772 30.1857 18.0708 30.1857L12.9783 30.1857C11.2771 30.1857 9.8981 28.8066 9.8981 27.1055L9.8981 22.1772Z" stroke="#EE2B3B" stroke-width="2.05345"/>
<path d="M20.9046 9.03518V10.0619H21.9314H26.6954C28.3965 10.0619 29.7755 11.4409 29.7755 13.1421V18.481C29.7755 20.1822 28.3965 21.5612 26.6954 21.5612H20.9457C14.7082 21.5612 9.65172 16.5047 9.65172 10.2672V4.1069C9.65172 2.40577 11.0308 1.02672 12.7319 1.02672H17.8245C19.5256 1.02672 20.9046 2.40577 20.9046 4.1069V9.03518Z" stroke="#AD37E0" stroke-width="2.05345"/>
</svg>
