<svg width="10" height="10" viewBox="0 0 10 10" fill="none" xmlns="http://www.w3.org/2000/svg">
<g clip-path="url(#clip0_158_353)">
<path d="M5.00051 9.2105C2.67525 9.2105 0.789988 7.3255 0.789988 4.99997C0.789988 2.67471 2.67525 0.789448 5.00051 0.789448C7.32604 0.789448 9.21104 2.67471 9.21104 4.99997C9.21104 7.3255 7.32604 9.2105 5.00051 9.2105ZM5.00051 0.263132C2.38446 0.263132 0.263672 2.38418 0.263672 4.99997C0.263672 7.61603 2.38446 9.73682 5.00051 9.73682C7.61657 9.73682 9.73736 7.61603 9.73736 4.99997C9.73736 2.38418 7.61657 0.263132 5.00051 0.263132Z" fill="#93607D"/>
<path d="M5.19161 1.98741C5.78713 1.98741 6.94582 2.1832 6.94582 2.90136C6.94582 3.19504 6.74161 3.44794 6.44003 3.44794C6.10529 3.44794 5.87713 3.16241 5.19161 3.16241C4.17977 3.16241 3.65766 4.01926 3.65766 5.01452C3.65766 5.98531 4.18792 6.81768 5.19161 6.81768C5.87713 6.81768 6.15424 6.47531 6.48871 6.47531C6.85634 6.47531 7.0274 6.84215 7.0274 7.02978C7.0274 7.8132 5.79529 7.99268 5.19161 7.99268C3.53529 7.99268 2.38477 6.67899 2.38477 4.99004C2.38477 3.29294 3.52713 1.98741 5.19161 1.98741Z" fill="#93607D"/>
</g>
<defs>
<clipPath id="clip0_158_353">
<rect width="10" height="10" fill="white"/>
</clipPath>
</defs>
</svg>
