<svg width="408" height="210" viewBox="0 0 408 210" fill="none" xmlns="http://www.w3.org/2000/svg">
<g clip-path="url(#clip0_189_1045)">
<rect width="408" height="210" rx="40" fill="#252525"/>
<path d="M419 -5C419 39.7351 382.735 76 338 76C293.265 76 257 39.7351 257 -5C257 -49.7351 293.265 -86 338 -86C382.735 -86 419 -49.7351 419 -5ZM285.527 -5C285.527 23.98 309.02 47.4729 338 47.4729C366.98 47.4729 390.473 23.98 390.473 -5C390.473 -33.98 366.98 -57.4729 338 -57.4729C309.02 -57.4729 285.527 -33.98 285.527 -5Z" fill="url(#paint0_linear_189_1045)" fill-opacity="0.1"/>
<path d="M208 204C208 284.634 142.634 350 62 350C-18.6336 350 -84 284.634 -84 204C-84 123.366 -18.6336 58 62 58C142.634 58 208 123.366 208 204ZM-32.5807 204C-32.5807 256.236 9.7645 298.581 62 298.581C114.236 298.581 156.581 256.236 156.581 204C156.581 151.765 114.236 109.419 62 109.419C9.7645 109.419 -32.5807 151.765 -32.5807 204Z" fill="url(#paint1_radial_189_1045)" fill-opacity="0.1"/>
<path d="M37.12 102.26C40.44 102.26 42.58 100.54 42.58 98.12C42.58 96.36 41.26 95.28 39.74 94.92C41.28 94.48 42.28 93.32 42.28 91.78C42.28 89.62 40.34 88.02 37.1 88.02C34.56 88.02 32.88 89.08 31.7 90.46L33.62 92.54C34.52 91.66 35.52 91.08 36.74 91.08C37.98 91.08 38.8 91.58 38.8 92.42C38.8 93.22 38.06 93.68 36.68 93.66H35.06V96.54L36.68 96.52C38.42 96.52 39.08 96.96 39.08 97.82C39.08 98.62 38.32 99.2 36.94 99.2C35.66 99.2 34.38 98.7 33.38 97.7L31.42 99.96C32.64 101.32 34.58 102.26 37.12 102.26ZM44.0861 102H54.7861V98.94H49.3261L51.4861 97.4C53.8861 95.76 54.6461 94.34 54.6461 92.52C54.6461 89.9 52.4861 88.02 49.4061 88.02C47.1461 88.02 45.3661 88.96 43.9061 90.72L46.0461 92.84C47.0861 91.74 48.0461 91.12 49.3261 91.12C50.3261 91.12 51.1461 91.72 51.1461 92.66C51.1461 93.5 50.7061 94.26 49.1661 95.42L44.0861 99.22V102ZM59.4894 102H62.8894V88.26H60.1694L55.8094 91.18L57.1694 93.56L59.4894 92.12V102ZM70.3608 102.26C73.8008 102.26 76.0208 100.38 76.0208 97.4C76.0208 94.58 73.9008 93.02 71.4808 93.02C70.4008 93.02 69.5408 93.34 68.8808 93.82L68.9608 91.32H75.2608V88.26H65.8208L65.6208 95.8L67.8808 96.68C68.5808 96.14 69.4208 95.82 70.4008 95.82C71.7608 95.82 72.6208 96.5 72.6208 97.52C72.6208 98.5 71.8008 99.3 70.3608 99.3C69.1208 99.3 67.8808 98.68 66.8608 97.76L64.9008 100.18C66.2208 101.46 68.0008 102.26 70.3608 102.26ZM106.431 93.02C105.251 93.02 104.071 93.44 103.251 94.1C103.551 92.16 104.591 91 106.211 91C107.311 91 108.111 91.38 108.931 92.04L110.511 89.46C109.351 88.56 107.931 88.02 106.191 88.02C102.171 88.02 99.6306 91.02 99.6306 95.38C99.6306 99.42 101.571 102.24 105.671 102.24C108.731 102.24 111.071 100.32 111.071 97.42C111.071 94.68 108.971 93.02 106.431 93.02ZM105.471 99.34C104.071 99.34 103.471 98.6 103.251 97.08C103.651 96.26 104.431 95.76 105.391 95.76C106.551 95.76 107.571 96.42 107.571 97.56C107.571 98.54 106.751 99.34 105.471 99.34ZM117.939 102.26C121.379 102.26 123.599 100.38 123.599 97.4C123.599 94.58 121.479 93.02 119.059 93.02C117.979 93.02 117.119 93.34 116.459 93.82L116.539 91.32H122.839V88.26H113.399L113.199 95.8L115.459 96.68C116.159 96.14 116.999 95.82 117.979 95.82C119.339 95.82 120.199 96.5 120.199 97.52C120.199 98.5 119.379 99.3 117.939 99.3C116.699 99.3 115.459 98.68 114.439 97.76L112.479 100.18C113.799 101.46 115.579 102.26 117.939 102.26ZM130.659 102.24C133.759 102.24 136.359 100.86 136.359 98.28C136.359 96.76 135.359 95.58 133.759 94.9C135.119 94.28 135.999 93.28 135.999 91.78C135.999 89.38 133.499 88.02 130.659 88.02C127.879 88.02 125.339 89.34 125.339 91.78C125.339 93.34 126.279 94.32 127.559 94.9C126.019 95.52 124.979 96.7 124.979 98.28C124.979 100.84 127.539 102.24 130.659 102.24ZM130.659 93.74C129.659 93.68 128.719 93.12 128.719 92.26C128.719 91.46 129.479 90.84 130.659 90.84C131.839 90.84 132.619 91.46 132.619 92.26C132.619 93.1 131.659 93.68 130.659 93.74ZM130.659 99.4C129.339 99.4 128.439 98.8 128.439 97.9C128.439 97 129.559 96.44 130.659 96.38C131.759 96.44 132.899 97 132.899 97.9C132.899 98.8 131.959 99.4 130.659 99.4ZM144.317 102H147.737V99.38H149.477V96.54H147.737V88.28H143.577L137.357 96.78L137.657 99.38H144.317V102ZM140.897 96.54L144.317 91.82V96.54H140.897ZM178.511 102.24C181.611 102.24 184.211 100.86 184.211 98.28C184.211 96.76 183.211 95.58 181.611 94.9C182.971 94.28 183.851 93.28 183.851 91.78C183.851 89.38 181.351 88.02 178.511 88.02C175.731 88.02 173.191 89.34 173.191 91.78C173.191 93.34 174.131 94.32 175.411 94.9C173.871 95.52 172.831 96.7 172.831 98.28C172.831 100.84 175.391 102.24 178.511 102.24ZM178.511 93.74C177.511 93.68 176.571 93.12 176.571 92.26C176.571 91.46 177.331 90.84 178.511 90.84C179.691 90.84 180.471 91.46 180.471 92.26C180.471 93.1 179.511 93.68 178.511 93.74ZM178.511 99.4C177.191 99.4 176.291 98.8 176.291 97.9C176.291 97 177.411 96.44 178.511 96.38C179.611 96.44 180.751 97 180.751 97.9C180.751 98.8 179.811 99.4 178.511 99.4ZM192.169 102H195.589V99.38H197.329V96.54H195.589V88.28H191.429L185.209 96.78L185.509 99.38H192.169V102ZM188.749 96.54L192.169 91.82V96.54H188.749ZM205.493 93.02C204.313 93.02 203.133 93.44 202.313 94.1C202.613 92.16 203.653 91 205.273 91C206.373 91 207.173 91.38 207.993 92.04L209.573 89.46C208.413 88.56 206.993 88.02 205.253 88.02C201.233 88.02 198.693 91.02 198.693 95.38C198.693 99.42 200.633 102.24 204.733 102.24C207.793 102.24 210.133 100.32 210.133 97.42C210.133 94.68 208.033 93.02 205.493 93.02ZM204.533 99.34C203.133 99.34 202.533 98.6 202.313 97.08C202.713 96.26 203.493 95.76 204.453 95.76C205.613 95.76 206.633 96.42 206.633 97.56C206.633 98.54 205.813 99.34 204.533 99.34ZM217.241 102.24C220.341 102.24 222.941 100.86 222.941 98.28C222.941 96.76 221.941 95.58 220.341 94.9C221.701 94.28 222.581 93.28 222.581 91.78C222.581 89.38 220.081 88.02 217.241 88.02C214.461 88.02 211.921 89.34 211.921 91.78C211.921 93.34 212.861 94.32 214.141 94.9C212.601 95.52 211.561 96.7 211.561 98.28C211.561 100.84 214.121 102.24 217.241 102.24ZM217.241 93.74C216.241 93.68 215.301 93.12 215.301 92.26C215.301 91.46 216.061 90.84 217.241 90.84C218.421 90.84 219.201 91.46 219.201 92.26C219.201 93.1 218.241 93.68 217.241 93.74ZM217.241 99.4C215.921 99.4 215.021 98.8 215.021 97.9C215.021 97 216.141 96.44 217.241 96.38C218.341 96.44 219.481 97 219.481 97.9C219.481 98.8 218.541 99.4 217.241 99.4ZM251.708 102.26C255.148 102.26 257.368 100.38 257.368 97.4C257.368 94.58 255.248 93.02 252.828 93.02C251.748 93.02 250.888 93.34 250.228 93.82L250.308 91.32H256.608V88.26H247.168L246.968 95.8L249.228 96.68C249.928 96.14 250.768 95.82 251.748 95.82C253.108 95.82 253.968 96.5 253.968 97.52C253.968 98.5 253.148 99.3 251.708 99.3C250.468 99.3 249.228 98.68 248.208 97.76L246.248 100.18C247.568 101.46 249.348 102.26 251.708 102.26ZM264.429 102.24C267.529 102.24 270.129 100.86 270.129 98.28C270.129 96.76 269.129 95.58 267.529 94.9C268.889 94.28 269.769 93.28 269.769 91.78C269.769 89.38 267.269 88.02 264.429 88.02C261.649 88.02 259.109 89.34 259.109 91.78C259.109 93.34 260.049 94.32 261.329 94.9C259.789 95.52 258.749 96.7 258.749 98.28C258.749 100.84 261.309 102.24 264.429 102.24ZM264.429 93.74C263.429 93.68 262.489 93.12 262.489 92.26C262.489 91.46 263.249 90.84 264.429 90.84C265.609 90.84 266.389 91.46 266.389 92.26C266.389 93.1 265.429 93.68 264.429 93.74ZM264.429 99.4C263.109 99.4 262.209 98.8 262.209 97.9C262.209 97 263.329 96.44 264.429 96.38C265.529 96.44 266.669 97 266.669 97.9C266.669 98.8 265.729 99.4 264.429 99.4ZM277.027 102.24C280.127 102.24 282.727 100.86 282.727 98.28C282.727 96.76 281.727 95.58 280.127 94.9C281.487 94.28 282.367 93.28 282.367 91.78C282.367 89.38 279.867 88.02 277.027 88.02C274.247 88.02 271.707 89.34 271.707 91.78C271.707 93.34 272.647 94.32 273.927 94.9C272.387 95.52 271.347 96.7 271.347 98.28C271.347 100.84 273.907 102.24 277.027 102.24ZM277.027 93.74C276.027 93.68 275.087 93.12 275.087 92.26C275.087 91.46 275.847 90.84 277.027 90.84C278.207 90.84 278.987 91.46 278.987 92.26C278.987 93.1 278.027 93.68 277.027 93.74ZM277.027 99.4C275.707 99.4 274.807 98.8 274.807 97.9C274.807 97 275.927 96.44 277.027 96.38C278.127 96.44 279.267 97 279.267 97.9C279.267 98.8 278.327 99.4 277.027 99.4ZM289.624 102.24C292.724 102.24 295.324 100.86 295.324 98.28C295.324 96.76 294.324 95.58 292.724 94.9C294.084 94.28 294.964 93.28 294.964 91.78C294.964 89.38 292.464 88.02 289.624 88.02C286.844 88.02 284.304 89.34 284.304 91.78C284.304 93.34 285.244 94.32 286.524 94.9C284.984 95.52 283.944 96.7 283.944 98.28C283.944 100.84 286.504 102.24 289.624 102.24ZM289.624 93.74C288.624 93.68 287.684 93.12 287.684 92.26C287.684 91.46 288.444 90.84 289.624 90.84C290.804 90.84 291.584 91.46 291.584 92.26C291.584 93.1 290.624 93.68 289.624 93.74ZM289.624 99.4C288.304 99.4 287.404 98.8 287.404 97.9C287.404 97 288.524 96.44 289.624 96.38C290.724 96.44 291.864 97 291.864 97.9C291.864 98.8 290.924 99.4 289.624 99.4Z" fill="white"/>
<path d="M346.647 163.241C344.253 163.241 342.941 162.913 340.925 162.085L340.178 161.744L339.331 166.666C340.788 167.266 343.412 167.781 346.128 167.822C352.506 167.822 356.675 164.863 356.725 160.31C356.775 157.806 355.131 155.906 351.659 154.341C349.553 153.325 348.241 152.644 348.241 151.613C348.241 150.7 349.363 149.728 351.706 149.728C353.264 149.691 354.812 149.977 356.253 150.569L356.816 150.819L357.663 146.063L357.516 146.094C355.772 145.468 353.931 145.154 352.078 145.166C346.078 145.166 341.844 148.147 341.812 152.419C341.775 155.56 344.825 157.328 347.128 158.381C349.494 159.46 350.284 160.138 350.278 161.106C350.263 162.578 348.388 163.241 346.647 163.241ZM373.088 145.569H368.4C366.941 145.569 365.85 145.96 365.209 147.391L356.194 167.516H362.572L363.847 164.222L371.628 164.228C371.819 164.997 372.378 167.516 372.378 167.516H378L373.088 145.569ZM365.594 159.719L368.013 153.585C367.981 153.647 368.513 152.316 368.819 151.491L369.234 153.385L370.637 159.719H365.594ZM329.388 167.341H335.462L339.259 145.385H333.188V145.378L329.388 167.341ZM318.384 160.535L317.753 157.485V157.494L315.622 147.413C315.256 146.016 314.188 145.603 312.862 145.553H303.078L303 146.016C305.203 146.531 307.188 147.278 308.963 148.194C309.238 148.355 309.44 148.617 309.525 148.925L314.775 167.485H321.194L330.759 145.569H324.325L318.384 160.535Z" fill="white"/>
<path d="M40.68 44.456V42.008H32.024V53H40.68V50.552H34.76V48.616H40.136V46.168H34.76V44.456H40.68ZM45.0718 53H47.5838L51.1358 44.728H48.3358L46.3358 49.896L44.2878 44.728H41.4878L45.0718 53ZM55.6453 51C54.7653 51 54.1093 50.44 53.8533 49.608H59.7573C59.7573 46.456 58.2213 44.536 55.5973 44.536C53.1013 44.536 51.2773 46.328 51.2773 48.84C51.2773 51.384 53.1653 53.192 55.7253 53.192C56.9573 53.192 58.3813 52.664 59.1173 51.912L57.5173 50.296C57.0213 50.728 56.2853 51 55.6453 51ZM55.6453 46.712C56.4613 46.712 57.0213 47.208 57.2453 47.96H53.8853C54.1733 47.192 54.8293 46.712 55.6453 46.712ZM61.194 53H63.914V41.816H61.194V53ZM67.9154 55.88C69.2754 55.88 70.4114 54.936 71.0674 53.24L74.3154 44.728H71.5634L69.7394 50.184L67.8034 44.728H65.0194L68.4114 53.096L68.1874 53.56C68.0434 53.784 67.6914 53.912 67.2914 53.912C67.0354 53.912 66.5874 53.736 66.1554 53.496L65.5954 55.288C66.2194 55.64 67.1634 55.88 67.9154 55.88ZM80.5476 44.536C79.5076 44.536 78.6276 44.968 78.1156 45.672V44.728H75.4116V53H78.1156V48.184L78.1316 48.232C78.1316 47.416 78.7556 46.792 79.5876 46.792C80.4196 46.792 80.9956 47.432 80.9956 48.344V53H83.5876V47.736C83.5876 45.864 82.3236 44.536 80.5476 44.536ZM92.651 53H95.387V44.456H98.715V42.008H89.307V44.456H92.651V53ZM102.197 55.88C103.557 55.88 104.693 54.936 105.349 53.24L108.597 44.728H105.845L104.021 50.184L102.085 44.728H99.3006L102.693 53.096L102.469 53.56C102.325 53.784 101.973 53.912 101.573 53.912C101.317 53.912 100.869 53.736 100.437 53.496L99.8766 55.288C100.501 55.64 101.445 55.88 102.197 55.88ZM109.741 53H112.461V41.816H109.741V53ZM118.494 53.192C120.99 53.192 123.086 51.208 123.086 48.856C123.086 46.504 120.99 44.536 118.494 44.536C115.998 44.536 113.902 46.504 113.902 48.856C113.902 51.208 115.998 53.192 118.494 53.192ZM118.494 50.936C117.39 50.936 116.462 49.976 116.462 48.856C116.462 47.736 117.39 46.792 118.494 46.792C119.598 46.792 120.526 47.736 120.526 48.856C120.526 49.976 119.598 50.936 118.494 50.936ZM127.179 46.264V44.728H124.475V53H127.179V49.24L127.195 49.272C127.195 47.752 128.219 46.792 129.899 46.792V44.536C128.699 44.536 127.723 45.192 127.179 46.264Z" fill="white"/>
<path d="M36.88 137.27V136.13H31.71V143H36.88V141.86H32.96V140.07H36.51V138.93H32.96V137.27H36.88ZM42.7772 143L40.8372 140.35L42.6872 137.83H41.3572L40.1772 139.44L38.9972 137.83H37.6572L39.5072 140.36L37.5672 143H38.8972L40.1672 141.27L41.4272 143H42.7772ZM46.6927 137.71C45.9227 137.71 45.3027 138.06 44.8927 138.65V137.83H43.6727V144.72H44.8927V142.18C45.3027 142.77 45.9227 143.12 46.6927 143.12C48.0627 143.12 49.0627 142 49.0627 140.41C49.0627 138.83 48.0627 137.71 46.6927 137.71ZM46.3627 142.08C45.5027 142.08 44.9027 141.38 44.9027 140.41C44.9027 139.44 45.5027 138.75 46.3627 138.75C47.2327 138.75 47.8527 139.44 47.8527 140.41C47.8527 141.38 47.2327 142.08 46.3627 142.08ZM50.7861 137.05C51.1661 137.05 51.4761 136.72 51.4761 136.35C51.4761 135.98 51.1661 135.66 50.7861 135.66C50.3961 135.66 50.0861 135.98 50.0861 136.35C50.0861 136.72 50.3961 137.05 50.7861 137.05ZM50.1661 143H51.3861V137.83H50.1661V143ZM53.9845 138.83V137.83H52.7645V143H53.9845V140.39C53.9845 139.41 54.7245 138.75 55.8345 138.75V137.71C54.9845 137.71 54.3145 138.14 53.9845 138.83ZM59.1484 142.04C58.4084 142.04 57.8684 141.54 57.7184 140.83H61.6184C61.6184 138.92 60.6884 137.71 59.0884 137.71C57.6184 137.71 56.4584 138.85 56.4584 140.4C56.4584 141.99 57.6784 143.12 59.1584 143.12C59.9084 143.12 60.8084 142.8 61.2584 142.32L60.4884 141.52C60.1984 141.82 59.6284 142.04 59.1484 142.04ZM59.1384 138.79C59.8684 138.79 60.3084 139.25 60.4484 139.9H57.7284C57.9084 139.22 58.4584 138.79 59.1384 138.79Z" fill="white"/>
<path d="M179.06 143.12C180.07 143.12 180.99 142.69 181.65 142L180.77 141.18C180.34 141.67 179.73 141.98 179.06 141.98C177.79 141.98 176.72 140.88 176.72 139.56C176.72 138.25 177.79 137.15 179.06 137.15C179.72 137.15 180.34 137.46 180.76 137.95L181.65 137.12C180.99 136.44 180.07 136.01 179.06 136.01C177.1 136.01 175.45 137.63 175.45 139.56C175.45 141.49 177.1 143.12 179.06 143.12ZM187.844 136.13L185.664 141.34L183.484 136.13H182.104L184.974 143H186.364L189.234 136.13H187.844ZM195.374 136.13L193.194 141.34L191.014 136.13H189.634L192.504 143H193.894L196.764 136.13H195.374Z" fill="white"/>
<path d="M33.104 168H35.824V157.008H33.648L30.16 159.344L31.248 161.248L33.104 160.096V168ZM37.6251 168H46.1851V165.552H41.8171L43.5451 164.32C45.4651 163.008 46.0731 161.872 46.0731 160.416C46.0731 158.32 44.3451 156.816 41.8811 156.816C40.0731 156.816 38.6491 157.568 37.4811 158.976L39.1931 160.672C40.0251 159.792 40.7931 159.296 41.8171 159.296C42.6171 159.296 43.2731 159.776 43.2731 160.528C43.2731 161.2 42.9211 161.808 41.6891 162.736L37.6251 165.776V168ZM46.4277 169.184H49.2598L54.7318 156.112H51.8998L46.4277 169.184ZM55.1408 168H63.7008V165.552H59.3328L61.0608 164.32C62.9808 163.008 63.5888 161.872 63.5888 160.416C63.5888 158.32 61.8608 156.816 59.3968 156.816C57.5888 156.816 56.1648 157.568 54.9967 158.976L56.7088 160.672C57.5408 159.792 58.3088 159.296 59.3328 159.296C60.1328 159.296 60.7888 159.776 60.7888 160.528C60.7888 161.2 60.4368 161.808 59.2048 162.736L55.1408 165.776V168ZM70.2474 168H72.9834V165.904H74.3754V163.632H72.9834V157.024H69.6554L64.6794 163.824L64.9194 165.904H70.2474V168ZM67.5114 163.632L70.2474 159.856V163.632H67.5114Z" fill="white"/>
<path d="M174.672 168H183.232V165.552H178.864L180.592 164.32C182.512 163.008 183.12 161.872 183.12 160.416C183.12 158.32 181.392 156.816 178.928 156.816C177.12 156.816 175.696 157.568 174.528 158.976L176.24 160.672C177.072 159.792 177.84 159.296 178.864 159.296C179.664 159.296 180.32 159.776 180.32 160.528C180.32 161.2 179.968 161.808 178.736 162.736L174.672 165.776V168ZM184.563 168H193.123V165.552H188.755L190.483 164.32C192.403 163.008 193.011 161.872 193.011 160.416C193.011 158.32 191.283 156.816 188.819 156.816C187.011 156.816 185.587 157.568 184.419 158.976L186.131 160.672C186.963 159.792 187.731 159.296 188.755 159.296C189.555 159.296 190.211 159.776 190.211 160.528C190.211 161.2 189.859 161.808 188.627 162.736L184.563 165.776V168ZM198.741 156.816C196.293 156.816 194.421 158.352 194.421 160.672C194.421 162.864 196.101 164.192 198.133 164.192C199.077 164.192 200.021 163.856 200.677 163.328C200.437 164.88 199.605 165.808 198.309 165.808C197.429 165.808 196.789 165.504 196.133 164.976L194.869 167.04C195.797 167.76 196.933 168.192 198.325 168.192C201.541 168.192 203.573 165.792 203.573 162.304C203.573 159.072 202.021 156.816 198.741 156.816ZM198.965 162C198.037 162 197.221 161.472 197.221 160.56C197.221 159.776 197.877 159.136 198.901 159.136C200.021 159.136 200.501 159.728 200.677 160.944C200.357 161.6 199.733 162 198.965 162Z" fill="white"/>
<path d="M363.902 53.0744C363.67 53.0749 363.443 53.0064 363.25 52.8777C363.057 52.749 362.906 52.5657 362.818 52.3513C362.729 52.1369 362.706 51.9009 362.751 51.6733C362.797 51.4457 362.909 51.2368 363.073 51.0731C363.619 50.5267 363.932 49.7717 363.932 49.0002C363.932 48.2288 363.619 47.4737 363.073 46.9274C362.965 46.8186 362.878 46.6893 362.819 46.5471C362.76 46.4049 362.73 46.2524 362.73 46.0985C362.73 45.9446 362.76 45.7921 362.819 45.6499C362.878 45.5077 362.965 45.3785 363.073 45.2696C363.182 45.1608 363.312 45.0744 363.454 45.0155C363.596 44.9566 363.748 44.9263 363.902 44.9263C364.056 44.9263 364.209 44.9566 364.351 45.0155C364.493 45.0744 364.622 45.1608 364.731 45.2696C365.714 46.2521 366.276 47.6109 366.276 49.0002C366.276 50.3895 365.714 51.7484 364.731 52.7309C364.511 52.9507 364.213 53.0743 363.902 53.0744Z" fill="white"/>
<path d="M367.219 56.3896C366.987 56.3901 366.76 56.3217 366.567 56.1929C366.373 56.0642 366.223 55.881 366.134 55.6666C366.045 55.4521 366.022 55.2161 366.068 54.9886C366.113 54.761 366.225 54.5521 366.39 54.3883C367.808 52.9697 368.621 51.0059 368.621 48.9999C368.621 46.9939 367.808 45.0301 366.39 43.6115C366.281 43.5026 366.195 43.3734 366.136 43.2312C366.077 43.089 366.047 42.9365 366.047 42.7826C366.047 42.6286 366.077 42.4762 366.136 42.334C366.195 42.1918 366.281 42.0625 366.39 41.9537C366.499 41.8448 366.628 41.7585 366.77 41.6996C366.912 41.6407 367.065 41.6104 367.219 41.6104C367.373 41.6104 367.525 41.6407 367.667 41.6996C367.81 41.7585 367.939 41.8448 368.048 41.9537C369.902 43.8084 370.966 46.3772 370.966 48.9999C370.966 51.6226 369.902 54.1913 368.048 56.0461C367.939 56.1552 367.81 56.2418 367.668 56.3007C367.525 56.3597 367.373 56.3899 367.219 56.3896Z" fill="white"/>
<path d="M370.535 59.7067C370.302 59.7072 370.075 59.6388 369.882 59.5101C369.689 59.3813 369.539 59.1981 369.45 58.9837C369.361 58.7692 369.338 58.5333 369.383 58.3057C369.429 58.0781 369.541 57.8692 369.706 57.7054C371.997 55.4134 373.311 52.2408 373.311 49.0003C373.311 45.7597 371.997 42.5871 369.706 40.2951C369.597 40.1862 369.51 40.057 369.452 39.9148C369.393 39.7726 369.362 39.6201 369.362 39.4662C369.362 39.3122 369.393 39.1598 369.452 39.0176C369.51 38.8754 369.597 38.7461 369.706 38.6373C369.814 38.5284 369.944 38.4421 370.086 38.3832C370.228 38.3243 370.381 38.2939 370.535 38.2939C370.688 38.2939 370.841 38.3243 370.983 38.3832C371.125 38.4421 371.255 38.5284 371.363 38.6373C374.092 41.3655 375.656 45.143 375.656 49.0003C375.656 52.8575 374.092 56.635 371.363 59.3632C371.255 59.4722 371.126 59.5587 370.983 59.6177C370.841 59.6766 370.689 59.7069 370.535 59.7067ZM358.099 53.0744C357.945 53.0745 357.792 53.0443 357.65 52.9853C357.508 52.9264 357.379 52.8399 357.27 52.7309C356.287 51.7484 355.725 50.3896 355.725 49.0003C355.725 47.6109 356.287 46.2521 357.27 45.2696C357.379 45.1608 357.508 45.0744 357.65 45.0155C357.792 44.9566 357.945 44.9263 358.099 44.9263C358.253 44.9263 358.405 44.9566 358.547 45.0155C358.69 45.0744 358.819 45.1608 358.928 45.2696C359.036 45.3785 359.123 45.5077 359.182 45.6499C359.241 45.7922 359.271 45.9446 359.271 46.0985C359.271 46.2525 359.241 46.4049 359.182 46.5471C359.123 46.6893 359.036 46.8186 358.928 46.9274C358.382 47.4738 358.069 48.2288 358.069 49.0003C358.069 49.7717 358.382 50.5267 358.928 51.0731C359.092 51.2368 359.204 51.4457 359.25 51.6733C359.295 51.9009 359.272 52.1369 359.183 52.3513C359.095 52.5658 358.944 52.749 358.751 52.8777C358.558 53.0064 358.331 53.0749 358.099 53.0744Z" fill="white"/>
<path d="M354.782 56.3896C354.628 56.3898 354.476 56.3595 354.333 56.3006C354.191 56.2416 354.062 56.1551 353.953 56.0461C352.099 54.1913 351.035 51.6226 351.035 48.9999C351.035 46.3772 352.099 43.8084 353.953 41.9537C354.062 41.8448 354.191 41.7585 354.334 41.6996C354.476 41.6407 354.628 41.6104 354.782 41.6104C354.936 41.6104 355.089 41.6407 355.231 41.6996C355.373 41.7585 355.502 41.8448 355.611 41.9537C355.72 42.0625 355.806 42.1918 355.865 42.334C355.924 42.4762 355.954 42.6286 355.954 42.7826C355.954 42.9365 355.924 43.089 355.865 43.2312C355.806 43.3734 355.72 43.5026 355.611 43.6115C354.192 45.0301 353.38 46.9939 353.38 48.9999C353.38 51.0059 354.192 52.9697 355.611 54.3883C355.776 54.5521 355.888 54.761 355.933 54.9886C355.979 55.2161 355.956 55.4521 355.867 55.6666C355.778 55.881 355.628 56.0642 355.434 56.1929C355.241 56.3217 355.014 56.3901 354.782 56.3896Z" fill="white"/>
<path d="M351.467 59.7067C351.313 59.7069 351.16 59.6766 351.018 59.6177C350.876 59.5587 350.747 59.4722 350.638 59.3632C347.91 56.635 346.346 52.8575 346.346 49.0003C346.346 45.143 347.91 41.3655 350.638 38.6373C350.747 38.5284 350.876 38.4421 351.018 38.3832C351.16 38.3243 351.313 38.2939 351.467 38.2939C351.621 38.2939 351.773 38.3243 351.915 38.3832C352.058 38.4421 352.187 38.5284 352.296 38.6373C352.405 38.7461 352.491 38.8754 352.55 39.0176C352.609 39.1598 352.639 39.3122 352.639 39.4662C352.639 39.6201 352.609 39.7726 352.55 39.9148C352.491 40.057 352.405 40.1862 352.296 40.2951C350.005 42.5871 348.691 45.7597 348.691 49.0003C348.691 52.2408 350.005 55.4134 352.296 57.7054C352.46 57.8692 352.572 58.0781 352.618 58.3057C352.663 58.5333 352.64 58.7692 352.551 58.9837C352.463 59.1981 352.312 59.3813 352.119 59.5101C351.926 59.6388 351.699 59.7072 351.467 59.7067Z" fill="white"/>
<path d="M361.001 50.1725C361.648 50.1725 362.173 49.6476 362.173 49.0001C362.173 48.3525 361.648 47.8276 361.001 47.8276C360.353 47.8276 359.828 48.3525 359.828 49.0001C359.828 49.6476 360.353 50.1725 361.001 50.1725Z" fill="white"/>
</g>
<defs>
<linearGradient id="paint0_linear_189_1045" x1="282" y1="-5" x2="375" y2="62" gradientUnits="userSpaceOnUse">
<stop stop-color="white" stop-opacity="0"/>
<stop offset="1" stop-color="white"/>
</linearGradient>
<radialGradient id="paint1_radial_189_1045" cx="0" cy="0" r="1" gradientUnits="userSpaceOnUse" gradientTransform="translate(188 204) rotate(-125.723) scale(179.836)">
<stop stop-color="white" stop-opacity="0"/>
<stop offset="1" stop-color="white"/>
</radialGradient>
<clipPath id="clip0_189_1045">
<rect width="408" height="210" rx="40" fill="white"/>
</clipPath>
</defs>
</svg>
