<svg width="20" height="20" viewBox="0 0 20 20" fill="none" xmlns="http://www.w3.org/2000/svg">
<path d="M16.8621 18.75H4.56836L4.58711 18.6781C4.87877 17.6649 5.4775 16.767 6.30079 16.1082C7.12409 15.4495 8.13142 15.0623 9.18398 15C9.18398 15.0437 9.20586 15.0875 9.21836 15.1312C9.23086 15.175 9.24648 15.2156 9.26211 15.2562C9.27836 15.298 9.29715 15.3387 9.31836 15.3781C9.33628 15.4156 9.35609 15.4521 9.37773 15.4875L9.43711 15.5781C9.46567 15.6188 9.497 15.6574 9.53086 15.6938L9.62148 15.7875L9.71523 15.875C9.78251 15.9313 9.85467 15.9815 9.93086 16.025L10.0465 16.0844L10.1652 16.1344L10.2746 16.1688H10.309L10.4121 16.1875C10.4522 16.1968 10.4929 16.2031 10.534 16.2063C10.6378 16.2183 10.7427 16.2183 10.8465 16.2063C10.8875 16.2031 10.9283 16.1968 10.9684 16.1875L11.0715 16.1688H11.1059L11.2152 16.1344L11.334 16.0844L11.4496 16.025C11.5258 15.9815 11.598 15.9313 11.6652 15.875L11.759 15.7875L11.8496 15.6938C11.8835 15.6574 11.9148 15.6188 11.9434 15.5781L12.0027 15.4875C12.0244 15.4521 12.0442 15.4156 12.0621 15.3781C12.0833 15.3387 12.1021 15.298 12.1184 15.2562C12.134 15.2156 12.1496 15.175 12.1621 15.1312C12.1746 15.0875 12.1871 15.0437 12.1965 15C13.2578 15.0522 14.2763 15.4348 15.1094 16.0943C15.9426 16.7538 16.5489 17.6572 16.8434 18.6781L16.8621 18.75Z" fill="#E957C9"/>
<path d="M9.18672 15C9.18672 15.0437 9.20859 15.0875 9.22109 15.1312C9.20547 15.0937 9.19609 15.05 9.18672 15ZM12.243 15C12.243 15.0437 12.2242 15.0875 12.2117 15.1312C12.2117 15.0875 12.2367 15.0437 12.2461 15H12.243ZM11.6523 13.0312V14.6875C11.6523 14.9361 11.5536 15.1746 11.3778 15.3504C11.2019 15.5262 10.9635 15.625 10.7148 15.625C10.4662 15.625 10.2277 15.5262 10.0519 15.3504C9.87612 15.1746 9.77734 14.9361 9.77734 14.6875V13.0312L10.0086 13.0719H10.0461C10.133 13.0869 10.2206 13.0973 10.3086 13.1031H10.4211C10.518 13.1031 10.618 13.1031 10.7148 13.1031C10.8117 13.1031 10.9117 13.1031 11.0086 13.1031H11.1211C11.2091 13.0973 11.2967 13.0869 11.3836 13.0719H11.4211L11.6523 13.0312ZM15.4023 4.0625V6.54375C15.318 6.54375 15.2336 6.52187 15.1523 6.50625C14.5171 6.37658 13.9461 6.0314 13.5361 5.52913C13.1261 5.02687 12.9022 4.39837 12.9023 3.75V3.58438C12.9049 3.5127 12.8827 3.44233 12.8395 3.38508C12.7963 3.32782 12.7347 3.28718 12.6651 3.26995C12.5955 3.25273 12.522 3.25998 12.4571 3.29049C12.3922 3.321 12.3398 3.3729 12.3086 3.4375C12.0411 3.98173 11.684 4.47717 11.2523 4.90312C10.7333 5.42995 10.1144 5.84804 9.43188 6.13295C8.74938 6.41786 8.01693 6.56389 7.27734 6.5625H6.02734V4.6875C6.02734 3.77582 6.38951 2.90148 7.03416 2.25682C7.67882 1.61216 8.55316 1.25 9.46484 1.25H12.5898C13.3358 1.25 14.0511 1.54632 14.5786 2.07376C15.106 2.60121 15.4023 3.31658 15.4023 4.0625Z" fill="#E957C9"/>
<path d="M14.3492 6.9063L14.2555 6.86255C14.1987 6.83756 14.1434 6.80939 14.0898 6.77817L13.9367 6.69067L13.9086 6.67192H13.8867C13.8751 6.66803 13.8644 6.66163 13.8555 6.65317L13.7305 6.56567H13.7117L13.6336 6.50942C13.5857 6.47609 13.5388 6.43859 13.493 6.39692L13.4711 6.37817C13.4055 6.32192 13.343 6.26567 13.2836 6.2063C12.8356 5.75899 12.5198 5.19666 12.3711 4.5813C12.1688 4.86632 11.943 5.13392 11.6961 5.3813C11.1156 5.95956 10.4261 6.41694 9.66762 6.72699C8.90915 7.03703 8.09672 7.19357 7.27734 7.18755H6.65234V8.43755C6.65143 8.83019 6.70829 9.22083 6.82109 9.59692C6.85234 9.70005 6.88672 9.80317 6.92734 9.90942C6.9493 9.96017 6.9574 10.0158 6.95081 10.0707C6.94422 10.1256 6.92318 10.1778 6.88984 10.2219C6.73741 10.4296 6.6543 10.68 6.65234 10.9375C6.65234 11.2691 6.78404 11.587 7.01846 11.8214C7.25288 12.0559 7.57082 12.1875 7.90234 12.1875C8.12062 12.1898 8.33582 12.136 8.52734 12.0313C8.5726 12.0041 8.62454 11.99 8.67734 11.9907C8.72864 11.9909 8.77908 12.0038 8.82422 12.0282C9.06057 12.158 9.30984 12.2627 9.56797 12.3407C10.0793 12.493 10.6156 12.543 11.1463 12.488C11.677 12.433 12.1916 12.274 12.6609 12.0201C13.1301 11.7662 13.5447 11.4223 13.8811 11.0082C14.2174 10.594 14.4689 10.1176 14.6211 9.6063C14.7306 9.22656 14.7832 8.83271 14.7773 8.43755V7.0563C14.6315 7.01568 14.4885 6.96557 14.3492 6.9063ZM9.46484 11.0938C9.38196 11.0938 9.30248 11.0609 9.24387 11.0023C9.18527 10.9437 9.15234 10.8642 9.15234 10.7813C9.15234 10.4912 9.03711 10.213 8.83199 10.0079C8.62687 9.80278 8.34867 9.68755 8.05859 9.68755C7.97571 9.68755 7.89623 9.65462 7.83762 9.59602C7.77902 9.53742 7.74609 9.45793 7.74609 9.37505C7.74609 9.29217 7.77902 9.21268 7.83762 9.15408C7.89623 9.09547 7.97571 9.06255 8.05859 9.06255C8.51418 9.06337 8.95087 9.24472 9.27302 9.56687C9.59517 9.88902 9.77652 10.3257 9.77734 10.7813C9.77734 10.8642 9.74442 10.9437 9.68581 11.0023C9.62721 11.0609 9.54772 11.0938 9.46484 11.0938ZM6.12109 9.37505C5.84198 9.35907 5.57958 9.23682 5.38779 9.03341C5.196 8.83 5.08939 8.56087 5.08984 8.2813C5.0869 8.13678 5.11305 7.99314 5.16673 7.85893C5.22042 7.72472 5.30054 7.60267 5.40234 7.50005C5.56949 7.3284 5.78974 7.21827 6.02734 7.18755V8.43755C6.02734 8.53442 6.02734 8.63442 6.02734 8.7313V8.8438C6.03312 8.93179 6.04355 9.01941 6.05859 9.1063C6.07468 9.19692 6.09554 9.28663 6.12109 9.37505ZM16.3398 8.2813C16.3428 8.42582 16.3166 8.56946 16.263 8.70367C16.2093 8.83788 16.1291 8.95993 16.0273 9.06255C15.8387 9.25233 15.5853 9.36393 15.318 9.37505C15.3304 9.3204 15.3398 9.26511 15.3461 9.20942C15.3541 9.17659 15.3593 9.14314 15.3617 9.10942C15.3926 8.88685 15.4062 8.66222 15.4023 8.43755V7.18755C15.6646 7.22538 15.9042 7.35712 16.0766 7.55829C16.249 7.75945 16.3426 8.01636 16.3398 8.2813ZM5.40234 11.875H4.77734C4.69446 11.875 4.61498 11.8421 4.55637 11.7835C4.49777 11.7249 4.46484 11.6454 4.46484 11.5625C4.46484 11.4797 4.49777 11.4002 4.55637 11.3416C4.61498 11.283 4.69446 11.25 4.77734 11.25H5.40234C5.48522 11.25 5.56471 11.283 5.62331 11.3416C5.68192 11.4002 5.71484 11.4797 5.71484 11.5625C5.71484 11.6454 5.68192 11.7249 5.62331 11.7835C5.56471 11.8421 5.48522 11.875 5.40234 11.875ZM5.40234 13.4375C5.36122 13.4378 5.32045 13.4299 5.28237 13.4144C5.2443 13.3988 5.20967 13.3759 5.18047 13.3469C5.15118 13.3179 5.12793 13.2833 5.11207 13.2452C5.0962 13.2071 5.08803 13.1663 5.08803 13.125C5.08803 13.0838 5.0962 13.043 5.11207 13.0049C5.12793 12.9668 5.15118 12.9322 5.18047 12.9032L5.64922 12.4344C5.70806 12.3756 5.78787 12.3425 5.87109 12.3425C5.95431 12.3425 6.03412 12.3756 6.09297 12.4344C6.15181 12.4933 6.18487 12.5731 6.18487 12.6563C6.18487 12.7395 6.15181 12.8193 6.09297 12.8782L5.62422 13.3469C5.59502 13.3759 5.56039 13.3988 5.52231 13.4144C5.48424 13.4299 5.44347 13.4378 5.40234 13.4375ZM6.96484 14.0625C6.88196 14.0625 6.80248 14.0296 6.74387 13.971C6.68527 13.9124 6.65234 13.8329 6.65234 13.75V13.125C6.65234 13.0422 6.68527 12.9627 6.74387 12.9041C6.80248 12.8455 6.88196 12.8125 6.96484 12.8125C7.04772 12.8125 7.12721 12.8455 7.18581 12.9041C7.24442 12.9627 7.27734 13.0422 7.27734 13.125V13.75C7.27734 13.8329 7.24442 13.9124 7.18581 13.971C7.12721 14.0296 7.04772 14.0625 6.96484 14.0625Z" fill="#E957C9"/>
</svg>
