<svg width="138" height="28" viewBox="0 0 138 28" fill="none" xmlns="http://www.w3.org/2000/svg">
<path d="M33.4286 16.2412V2.751L39.9231 2.751C41.1822 2.751 42.2679 2.95657 43.1801 3.3677C44.1051 3.77883 44.8182 4.36983 45.3192 5.1407C45.8203 5.89872 46.0708 6.79807 46.0708 7.83874C46.0708 8.87941 45.8203 9.77876 45.3192 10.5368C44.8182 11.282 44.1051 11.8537 43.1801 12.252C42.2679 12.6502 41.1822 12.8494 39.9231 12.8494L35.9532 12.8494L37.9767 10.98V16.2412H33.4286ZM41.5034 16.2412L38.1887 11.3269H43.0066L46.3599 16.2412H41.5034ZM37.9767 11.4811L35.9532 9.41902H39.6341C40.2636 9.41902 40.7261 9.27769 41.0216 8.99504C41.33 8.71239 41.4841 8.32696 41.4841 7.83874C41.4841 7.35052 41.33 6.96509 41.0216 6.68244C40.7261 6.39978 40.2636 6.25846 39.6341 6.25846H35.9532L37.9767 4.19638V11.4811ZM51.951 7.76165L57.9637 7.76165V11.0378H51.951V7.76165ZM52.2593 12.8108H59.0044V16.2412L47.7883 16.2412V2.751L58.7539 2.751V6.18137L52.2593 6.18137V12.8108ZM67.2113 16.5496C65.1428 16.5496 63.5304 15.9907 62.3741 14.8729C61.2178 13.7552 60.6396 12.1877 60.6396 10.1706V2.751L65.1878 2.751V10.0357C65.1878 11.0635 65.3741 11.7959 65.7466 12.2327C66.1192 12.6567 66.6203 12.8687 67.2498 12.8687C67.8922 12.8687 68.3933 12.6567 68.753 12.2327C69.1256 11.7959 69.3119 11.0635 69.3119 10.0357V2.751L73.783 2.751V10.1706C73.783 12.1877 73.2048 13.7552 72.0485 14.8729C70.8922 15.9907 69.2798 16.5496 67.2113 16.5496ZM75.8678 16.2412V2.751L79.6065 2.751L86.4672 10.9608H84.7328V2.751L89.1653 2.751V16.2412H85.4265L78.5658 8.03146H80.3003V16.2412H75.8678ZM91.3567 16.2412V2.751L95.9048 2.751V16.2412L91.3567 16.2412ZM98.0942 16.2412V2.751L104.589 2.751C105.848 2.751 106.934 2.95657 107.846 3.3677C108.771 3.77883 109.484 4.36983 109.985 5.1407C110.486 5.89872 110.736 6.79807 110.736 7.83874C110.736 8.87941 110.486 9.77876 109.985 10.5368C109.484 11.282 108.771 11.8537 107.846 12.252C106.934 12.6502 105.848 12.8494 104.589 12.8494L100.619 12.8494L102.642 10.98V16.2412H98.0942ZM106.169 16.2412L102.854 11.3269L107.672 11.3269L111.026 16.2412H106.169ZM102.642 11.4811L100.619 9.41902H104.3C104.929 9.41902 105.392 9.27769 105.687 8.99504C105.996 8.71239 106.15 8.32696 106.15 7.83874C106.15 7.35052 105.996 6.96509 105.687 6.68244C105.392 6.39978 104.929 6.25846 104.3 6.25846L100.619 6.25846L102.642 4.19638V11.4811ZM115.195 16.2412V6.27773L111.244 6.27773V2.751L123.694 2.751V6.27773L119.743 6.27773V16.2412H115.195ZM129.905 16.5496C128.774 16.5496 127.682 16.4211 126.629 16.1641C125.575 15.9072 124.708 15.5731 124.027 15.162L125.492 11.8473C126.134 12.2198 126.847 12.5218 127.631 12.753C128.428 12.9714 129.198 13.0806 129.944 13.0806C130.38 13.0806 130.721 13.055 130.965 13.0036C131.222 12.9393 131.408 12.8558 131.524 12.753C131.64 12.6374 131.697 12.5025 131.697 12.3483C131.697 12.1042 131.562 11.9115 131.293 11.7702C131.023 11.6288 130.663 11.5132 130.213 11.4233C129.777 11.3205 129.295 11.2177 128.768 11.1149C128.241 10.9993 127.708 10.8516 127.168 10.6717C126.642 10.4918 126.154 10.2541 125.704 9.95863C125.267 9.66313 124.914 9.27769 124.644 8.80233C124.374 8.31411 124.239 7.71026 124.239 6.99078C124.239 6.15567 124.47 5.39765 124.933 4.71672C125.408 4.02294 126.109 3.47048 127.034 3.05935C127.971 2.64822 129.134 2.44266 130.522 2.44266C131.434 2.44266 132.333 2.53901 133.22 2.73173C134.106 2.92445 134.903 3.21995 135.61 3.61823L134.241 6.9137C133.573 6.57965 132.924 6.32912 132.295 6.1621C131.678 5.99508 131.074 5.91157 130.483 5.91157C130.046 5.91157 129.7 5.95011 129.443 6.0272C129.186 6.10428 128.999 6.20707 128.884 6.33554C128.781 6.46402 128.73 6.60535 128.73 6.75952C128.73 6.99078 128.864 7.17708 129.134 7.3184C129.404 7.44688 129.757 7.55609 130.194 7.64602C130.644 7.73596 131.132 7.83231 131.659 7.9351C132.198 8.03788 132.732 8.17921 133.258 8.35908C133.785 8.53894 134.267 8.77663 134.704 9.07213C135.153 9.36763 135.513 9.75306 135.783 10.2284C136.053 10.7038 136.188 11.2948 136.188 12.0014C136.188 12.8237 135.95 13.5817 135.475 14.2755C135.012 14.9564 134.318 15.5089 133.393 15.9329C132.468 16.344 131.305 16.5496 129.905 16.5496Z" fill="white"/>
<path d="M36.5506 24.7061L36.0808 23.6148H33.9634L33.4936 24.7061H32.2939L34.4765 19.6545H35.5677L37.7503 24.7061H36.5506ZM35.0257 21.1576L34.3897 22.6247H35.6545L35.0257 21.1576ZM43.8795 21.3311C43.8795 22.1405 43.5591 22.6633 42.9183 22.8993L44.1975 24.7061H42.8099L41.6898 23.0945H40.9093V24.7061H39.7819V19.6545H41.697C42.4823 19.6545 43.0412 19.7869 43.3736 20.0519C43.7109 20.3169 43.8795 20.7433 43.8795 21.3311ZM41.7331 22.1188C42.1186 22.1188 42.3811 22.0562 42.5209 21.9309C42.6606 21.8057 42.7304 21.6081 42.7304 21.3383C42.7304 21.0637 42.6582 20.8758 42.5136 20.7746C42.3691 20.6734 42.1161 20.6229 41.7548 20.6229H40.9093V22.1188H41.7331ZM50.1204 19.6545V20.659H47.6054V21.6997H49.8674V22.6608H47.6054V23.7087H50.1999V24.7061H46.478V19.6545H50.1204ZM54.7911 20.6301V24.7061H53.6637V20.6301H52.2328V19.6545H56.222V20.6301H54.7911ZM61.6306 19.6545H62.758V24.7061L61.6306 24.7061V22.7187H59.6216V24.7061H58.4942V19.6545H59.6216V21.7647H61.6306V19.6545ZM67.7642 23.7087C68.3183 23.7087 68.7712 23.4895 69.1229 23.0511L69.8456 23.7955C69.2723 24.4411 68.5953 24.7639 67.8148 24.7639C67.0391 24.7639 66.3984 24.5182 65.8925 24.0267C65.3914 23.5353 65.1409 22.9162 65.1409 22.1694C65.1409 21.4178 65.3962 20.7915 65.9069 20.2904C66.4224 19.7894 67.0512 19.5388 67.7931 19.5388C68.6218 19.5388 69.3156 19.8544 69.8745 20.4855L69.1735 21.2805C68.817 20.8373 68.3737 20.6156 67.8437 20.6156C67.4198 20.6156 67.056 20.7554 66.7525 21.0348C66.4538 21.3094 66.3044 21.6828 66.3044 22.155C66.3044 22.6223 66.4465 22.9981 66.7308 23.2824C67.0151 23.5666 67.3595 23.7087 67.7642 23.7087ZM75.7466 24.7061L75.2769 23.6148H73.1594L72.6896 24.7061H71.49L73.6725 19.6545H74.7638L76.9463 24.7061H75.7466ZM74.2218 21.1576L73.5858 22.6247H74.8505L74.2218 21.1576ZM78.9779 24.7061V19.6545H80.1053V23.7015H82.2589V24.7061H78.9779ZM87.6672 19.6545H88.7946V24.7061H87.6672V22.7187H85.6582V24.7061H84.5308V19.6545H85.6582V21.7647H87.6672V19.6545ZM95.1234 19.6545V20.659H92.6084V21.6997H94.8704V22.6608H92.6084V23.7087H95.2029V24.7061H91.481V19.6545H95.1234Z" fill="white"/>
<path d="M8.69306 19.4783L8.69306 18.5765L7.79127 18.5765L3.60694 18.5765C2.1128 18.5765 0.901565 17.3652 0.901565 15.8711L0.901565 11.1818C0.901565 9.68763 2.1128 8.47639 3.60695 8.47639L8.657 8.47639C14.1355 8.47639 18.5767 12.9176 18.5767 18.3961L18.5767 23.8069C18.5767 25.301 17.3655 26.5123 15.8713 26.5123L11.3984 26.5123C9.9043 26.5123 8.69306 25.301 8.69306 23.8069L8.69306 19.4783Z" stroke="white" stroke-width="1.80359"/>
<path d="M18.3616 7.93579V8.83758H19.2634H23.4477C24.9419 8.83758 26.1531 10.0488 26.1531 11.543V16.2323C26.1531 17.7264 24.9419 18.9377 23.4477 18.9377H18.3977C12.9192 18.9377 8.47797 14.4965 8.47797 9.01794V3.60717C8.47797 2.11303 9.68921 0.901794 11.1833 0.901794H15.6562C17.1504 0.901794 18.3616 2.11303 18.3616 3.60718V7.93579Z" stroke="white" stroke-width="1.80359"/>
</svg>
