<svg width="20" height="20" viewBox="0 0 20 20" fill="none" xmlns="http://www.w3.org/2000/svg">
<path d="M16.0746 1.33325H11.8186C11.4589 1.33588 11.105 1.42492 10.7873 1.59279C10.5771 1.425 10.3158 1.33346 10.0463 1.33325H9.89814C8.68711 1.33482 7.52621 1.81465 6.67044 2.66736C5.81466 3.52008 5.33398 4.67594 5.33398 5.88108V9.42024C5.33357 10.2628 5.55984 11.09 5.98929 11.8161C6.41874 12.5422 7.0357 13.1406 7.7761 13.5493V14.9001C7.77661 14.9972 7.80122 15.0927 7.84776 15.1781C7.89429 15.2636 7.9613 15.3362 8.04284 15.3896L9.82108 16.5694C9.91787 16.6328 10.0312 16.6666 10.1471 16.6666C10.263 16.6666 10.3763 16.6328 10.4731 16.5694L12.2513 15.3896C12.3329 15.3362 12.3999 15.2636 12.4464 15.1781C12.493 15.0927 12.5176 14.9972 12.5181 14.9001V13.4549C13.2181 13.0364 13.7976 12.445 14.2006 11.7382C14.6035 11.0313 14.8162 10.2329 14.8179 9.42024V6.18781C14.8162 6.04728 14.8023 5.90717 14.7765 5.76901C15.3102 5.64062 15.7858 5.33901 16.1282 4.91177C16.4706 4.48453 16.6603 3.95599 16.6673 3.40956V1.92311C16.6673 1.76667 16.6049 1.61664 16.4937 1.50602C16.3825 1.3954 16.2318 1.33325 16.0746 1.33325ZM13.6324 9.42024C13.631 10.0799 13.4443 10.7261 13.0934 11.2858C12.7426 11.8455 12.2415 12.2964 11.6467 12.5878C11.5341 12.6409 11.4274 12.6881 11.3148 12.7294H11.2733L10.9473 12.8296H10.894L10.5798 12.8886H10.1471C10.0307 12.8974 9.91378 12.8974 9.79737 12.8886C9.40836 12.8518 9.02798 12.7522 8.67115 12.5937C8.04514 12.315 7.51344 11.8622 7.1401 11.2897C6.76676 10.7173 6.5677 10.0496 6.5669 9.36716V7.23186H7.18336C7.34129 7.24107 7.49962 7.24107 7.65756 7.23186H7.81167C7.90953 7.22041 8.00655 7.20267 8.10212 7.17877L8.29179 7.13158C8.37027 7.11048 8.44746 7.08487 8.52297 7.0549L8.73636 6.97822L8.91418 6.90154C9.19456 6.76823 9.459 6.60401 9.70253 6.41195L9.80923 6.32937L10.0108 6.14652L10.1293 6.02264C10.1886 5.96366 10.2479 5.90467 10.3012 5.83979L10.4731 5.62154C10.4972 5.5667 10.5249 5.51349 10.5561 5.46228C10.5769 5.47737 10.5987 5.49116 10.6213 5.50357L10.7991 5.60384L10.9058 5.65103C10.9645 5.68069 11.0261 5.7044 11.0896 5.72182L11.1963 5.75721C11.264 5.77851 11.3334 5.79429 11.4037 5.8044H11.5045C11.6091 5.81047 11.714 5.81047 11.8186 5.8044H13.5969C13.6276 5.91589 13.6435 6.03091 13.6443 6.14652L13.6324 9.42024Z" fill="#E957C9"/>
<path d="M9.2552 7.33325C9.09446 7.33325 8.9403 7.39365 8.82665 7.50116C8.71299 7.60866 8.64914 7.75447 8.64914 7.90651V8.19314C8.64914 8.26916 8.61721 8.34207 8.56038 8.39582C8.50355 8.44957 8.42647 8.47977 8.34611 8.47977C8.26622 8.4783 8.19004 8.44763 8.13355 8.39419C8.07705 8.34076 8.04463 8.2687 8.04308 8.19314V7.90651C8.04308 7.75447 7.97922 7.60866 7.86556 7.50116C7.75191 7.39365 7.59775 7.33325 7.43701 7.33325C7.27628 7.33325 7.12212 7.39365 7.00846 7.50116C6.89481 7.60866 6.83095 7.75447 6.83095 7.90651V8.19314C6.83095 8.57324 6.99059 8.93776 7.27473 9.20653C7.55888 9.4753 7.94426 9.62629 8.34611 9.62629C8.74795 9.62629 9.13333 9.4753 9.41748 9.20653C9.70163 8.93776 9.86126 8.57324 9.86126 8.19314V7.90651C9.86126 7.75447 9.7974 7.60866 9.68375 7.50116C9.57009 7.39365 9.41593 7.33325 9.2552 7.33325ZM12.5522 7.33325C12.3914 7.33325 12.2373 7.39365 12.1236 7.50116C12.01 7.60866 11.9461 7.75447 11.9461 7.90651V8.19314C11.9446 8.2687 11.9121 8.34076 11.8556 8.39419C11.7991 8.44763 11.723 8.4783 11.6431 8.47977C11.5627 8.47977 11.4856 8.44957 11.4288 8.39582C11.372 8.34207 11.34 8.26916 11.34 8.19314V7.90651C11.34 7.75447 11.2762 7.60866 11.1625 7.50116C11.0489 7.39365 10.8947 7.33325 10.734 7.33325C10.5732 7.33325 10.4191 7.39365 10.3054 7.50116C10.1918 7.60866 10.1279 7.75447 10.1279 7.90651V8.19314C10.1279 8.57324 10.2876 8.93776 10.5717 9.20653C10.8558 9.4753 11.2412 9.62629 11.6431 9.62629C12.0449 9.62629 12.4303 9.4753 12.7144 9.20653C12.9986 8.93776 13.1582 8.57324 13.1582 8.19314V7.90651C13.1582 7.75447 13.0944 7.60866 12.9807 7.50116C12.8671 7.39365 12.7129 7.33325 12.5522 7.33325ZM13.031 14.1264V14.6538C13.0306 14.8421 12.9812 15.0274 12.8871 15.1934C12.793 15.3594 12.6572 15.5009 12.4916 15.6054L10.6734 16.7519C10.6533 16.7667 10.6307 16.7783 10.6067 16.7863V18.2022C10.6042 18.2947 10.5781 18.3852 10.5306 18.4661C10.4831 18.547 10.4157 18.6157 10.334 18.6666H16.0613C16.222 18.6666 16.3761 18.6062 16.4898 18.4987C16.6035 18.3912 16.6673 18.2454 16.6673 18.0933C16.6661 17.1292 16.298 16.1977 15.6302 15.4692C14.9625 14.7408 14.0398 14.2641 13.031 14.1264ZM9.39459 18.2022V16.7863C9.37055 16.7783 9.34804 16.7667 9.32792 16.7519L7.50974 15.6054C7.34412 15.5009 7.20827 15.3594 7.1142 15.1934C7.02012 15.0274 6.97072 14.8421 6.97035 14.6538V14.1264C5.9615 14.2641 5.0388 14.7408 4.37106 15.4692C3.70332 16.1977 3.33518 17.1292 3.33398 18.0933C3.33398 18.2454 3.39784 18.3912 3.5115 18.4987C3.62515 18.6062 3.77931 18.6666 3.94004 18.6666H9.66732C9.58563 18.6157 9.51815 18.547 9.47066 18.4661C9.42317 18.3852 9.39707 18.2947 9.39459 18.2022Z" fill="#E957C9"/>
</svg>
