<svg width="15" height="15" viewBox="0 0 15 15" fill="none" xmlns="http://www.w3.org/2000/svg">
<path d="M9.9375 8.26781L9.93438 8.26656C9.895 8.24968 9.85688 8.23031 9.81688 8.21468C10.2633 7.86475 10.6244 7.4179 10.8728 6.90793C11.1212 6.39795 11.2504 5.83818 11.2506 5.27093C11.2491 5.13924 11.2397 5.00775 11.2225 4.87718C11.2321 4.85233 11.2401 4.82686 11.2463 4.80093L11.4219 3.30281C11.4767 2.82939 11.3495 2.35283 11.0661 1.96966C10.7827 1.58648 10.3643 1.32531 9.89563 1.23906L9.40188 1.14968C8.14498 0.920158 6.8569 0.920158 5.6 1.14968L5.10563 1.23906C4.63691 1.32531 4.2185 1.58648 3.93512 1.96966C3.65174 2.35283 3.52458 2.82939 3.57938 3.30281L3.75438 4.80093C3.76077 4.82687 3.76891 4.85235 3.77875 4.87718C3.76154 5.00775 3.75215 5.13924 3.75063 5.27093C3.75089 5.83818 3.8801 6.39795 4.12848 6.90793C4.37687 7.4179 4.73793 7.86475 5.18438 8.21468C5.14438 8.23031 5.10625 8.24968 5.06688 8.26656L5.06375 8.26781C4.04058 8.69789 3.15119 9.39402 2.48792 10.2839C1.82464 11.1738 1.41167 12.225 1.29188 13.3284C1.27631 13.492 1.32575 13.655 1.4295 13.7824C1.53324 13.9097 1.68295 13.9911 1.84625 14.009C2.00954 14.0268 2.17328 13.9796 2.30206 13.8776C2.43084 13.7757 2.51429 13.6271 2.53438 13.4641C2.62233 12.6529 2.90875 11.8758 3.36832 11.2016C3.82789 10.5274 4.44647 9.9768 5.16938 9.59843L7.05875 11.4878C7.17596 11.605 7.3349 11.6708 7.50063 11.6708C7.66635 11.6708 7.8253 11.605 7.9425 11.4878L9.83187 9.59843C10.5548 9.9768 11.1734 10.5274 11.6329 11.2016C12.0925 11.8758 12.3789 12.6529 12.4669 13.4641C12.4835 13.617 12.5559 13.7584 12.6703 13.8613C12.7847 13.9642 12.933 14.0212 13.0869 14.0216C13.1098 14.0215 13.1328 14.0203 13.1556 14.0178C13.2373 14.0089 13.3164 13.9841 13.3884 13.9446C13.4604 13.9052 13.5239 13.8519 13.5754 13.7879C13.6268 13.7238 13.6651 13.6503 13.6881 13.5715C13.7111 13.4927 13.7183 13.4101 13.7094 13.3284C13.5895 12.225 13.1765 11.1737 12.5131 10.2838C11.8497 9.39389 10.9602 8.6978 9.93688 8.26781H9.9375ZM4.82063 3.15656C4.80247 2.99882 4.84491 2.84007 4.93936 2.71244C5.03381 2.5848 5.17322 2.49781 5.32938 2.46906L5.82313 2.37968C6.93227 2.17699 8.06898 2.17699 9.17813 2.37968L9.67188 2.46906C9.82803 2.49781 9.96744 2.5848 10.0619 2.71244C10.1563 2.84007 10.1988 2.99882 10.1806 3.15656L10.0694 4.10281H4.93188L4.82063 3.15656ZM7.50063 10.1628L6.46938 9.13093C7.14911 8.98479 7.85214 8.98479 8.53188 9.13093L7.50063 10.1628ZM7.50063 7.77156C6.85188 7.77079 6.22876 7.51818 5.76263 7.06697C5.29649 6.61575 5.02374 6.00119 5.00188 5.35281H9.99938C9.97751 6.00119 9.70476 6.61575 9.23862 7.06697C8.77249 7.51818 8.14937 7.77079 7.50063 7.77156Z" fill="url(#paint0_linear_141_443)"/>
<defs>
<linearGradient id="paint0_linear_141_443" x1="1.28906" y1="0.977539" x2="16.1444" y2="10.0331" gradientUnits="userSpaceOnUse">
<stop stop-color="#AD37E0"/>
<stop offset="1" stop-color="#EE2B3B"/>
</linearGradient>
</defs>
</svg>
