<svg width="30" height="30" viewBox="0 0 30 30" fill="none" xmlns="http://www.w3.org/2000/svg">
<path d="M20.0403 16.1039C20.0186 16.0943 19.9981 16.0835 19.9763 16.0751C19.8097 16.0008 19.6456 15.9228 19.4753 15.8556C20.6601 14.9312 21.5253 13.6627 21.9504 12.2269C22.3755 10.791 22.3394 9.25922 21.8471 7.8447C21.3548 6.43019 20.4309 5.20336 19.2038 4.33501C17.9768 3.46666 16.5077 3 15.0012 3C13.4947 3 12.0256 3.46666 10.7986 4.33501C9.57156 5.20336 8.64757 6.43019 8.15528 7.8447C7.66299 9.25922 7.62689 10.791 8.05201 12.2269C8.47713 13.6627 9.3423 14.9312 10.5271 15.8556C10.3581 15.9228 10.1927 16.0008 10.0261 16.0751L9.96089 16.1039C8.06634 16.9625 6.42913 18.2958 5.20999 19.973C3.99084 21.6501 3.23169 23.6134 3.00706 25.6701C2.98993 25.8268 3.00405 25.9853 3.0486 26.1366C3.09315 26.2879 3.16725 26.429 3.26669 26.5519C3.36613 26.6747 3.48895 26.7769 3.62813 26.8526C3.76732 26.9283 3.92015 26.976 4.0779 26.993C4.23564 27.01 4.39522 26.996 4.54751 26.9517C4.6998 26.9075 4.84183 26.8338 4.96548 26.7351C5.08913 26.6363 5.19199 26.5142 5.26817 26.376C5.34436 26.2377 5.39239 26.0859 5.40951 25.9291C5.57354 24.4257 6.09541 22.9826 6.93196 21.7192C7.76852 20.4558 8.89574 19.4083 10.2205 18.6634L14.1465 22.5625C14.3729 22.7874 14.6799 22.9137 15 22.9137C15.3201 22.9137 15.6271 22.7874 15.8535 22.5625L19.7796 18.6634C21.1047 19.408 22.2324 20.4554 23.0694 21.7188C23.9064 22.9822 24.4286 24.4255 24.5929 25.9291C24.625 26.2226 24.7649 26.4941 24.9859 26.6915C25.2069 26.8889 25.4934 26.9984 25.7905 26.999C25.8349 26.9989 25.8792 26.9965 25.9233 26.9918C26.2416 26.9574 26.533 26.7988 26.7336 26.551C26.9342 26.3031 27.0275 25.9863 26.993 25.6701C26.7683 23.6134 26.0092 21.6501 24.79 19.973C23.5709 18.2958 21.9337 16.9625 20.0391 16.1039H20.0403ZM10.2217 9.72084C10.3352 8.53964 10.8878 7.44287 11.7715 6.64469C12.6553 5.84652 13.8068 5.40425 15.0012 5.40425C16.1956 5.40425 17.3471 5.84652 18.2309 6.64469C19.1147 7.44287 19.6673 8.53964 19.7808 9.72084H10.2217ZM15.0012 20.0186L12.6627 17.6955C14.1971 17.3065 15.8053 17.3065 17.3397 17.6955L15.0012 20.0186ZM15.0012 15.0053C14.0613 15.0037 13.1423 14.7299 12.3566 14.2174C11.5709 13.7048 10.9528 12.9758 10.5778 12.1196H19.4246C19.0496 12.9758 18.4315 13.7048 17.6458 14.2174C16.8602 14.7299 15.9411 15.0037 15.0012 15.0053Z" fill="white"/>
</svg>
