<svg width="30" height="30" viewBox="0 0 30 30" fill="none" xmlns="http://www.w3.org/2000/svg">
<path d="M15.8869 2.86242C15.7707 2.74526 15.6325 2.65227 15.4802 2.58881C15.3278 2.52535 15.1645 2.49268 14.9994 2.49268C14.8344 2.49268 14.671 2.52535 14.5187 2.58881C14.3664 2.65227 14.2281 2.74526 14.1119 2.86242L2.86194 14.1124C2.74477 14.2286 2.65178 14.3669 2.58832 14.5192C2.52486 14.6715 2.49219 14.8349 2.49219 14.9999C2.49219 15.1649 2.52486 15.3283 2.58832 15.4806C2.65178 15.633 2.74477 15.7712 2.86194 15.8874C2.97874 16.0033 3.11726 16.0949 3.26955 16.1571C3.42185 16.2193 3.58493 16.2509 3.74944 16.2499H4.99944V24.9999C4.99944 25.663 5.26283 26.2988 5.73167 26.7677C6.20051 27.2365 6.83639 27.4999 7.49944 27.4999H22.4994C23.1625 27.4999 23.7984 27.2365 24.2672 26.7677C24.736 26.2988 24.9994 25.663 24.9994 24.9999V16.2499H26.2494C26.581 16.2499 26.8989 16.1182 27.1333 15.8838C27.3677 15.6494 27.4994 15.3314 27.4994 14.9999C27.5004 14.8354 27.4689 14.6723 27.4067 14.52C27.3444 14.3677 27.2528 14.2292 27.1369 14.1124L15.8869 2.86242ZM7.49944 24.9999V13.0124L14.9994 5.51242L22.4994 13.0124V24.9999H7.49944Z" fill="white" stroke="white" stroke-width="0.3"/>
</svg>
