<svg width="15" height="15" viewBox="0 0 15 15" fill="none" xmlns="http://www.w3.org/2000/svg">
<path d="M7.94997 0.952583C7.6507 0.932472 7.35042 0.932472 7.05114 0.952583C6.0182 1.02071 5.02749 1.38839 4.2002 2.01065C3.37291 2.63291 2.74488 3.48277 2.39294 4.4563C2.00212 5.46638 1.91419 6.56848 2.13992 7.62776C2.36565 8.68703 2.89525 9.65754 3.66391 10.4205L7.16857 13.9251C7.21208 13.9687 7.26374 14.0032 7.3206 14.0268C7.37747 14.0504 7.43842 14.0625 7.49997 14.0625C7.56153 14.0625 7.62248 14.0504 7.67934 14.0268C7.73621 14.0032 7.78787 13.9687 7.83138 13.9251L11.336 10.4205C12.1047 9.65754 12.6343 8.68703 12.86 7.62776C13.0858 6.56848 12.9978 5.46638 12.607 4.4563C12.2552 3.48293 11.6273 2.63318 10.8003 2.01093C9.97318 1.38868 8.98272 1.02091 7.94997 0.952583ZM10.6734 9.75768L7.49997 12.9309L4.32653 9.75768C3.68636 9.12126 3.24556 8.31207 3.05804 7.42908C2.87051 6.54609 2.94441 5.62758 3.27068 4.78593C3.55431 3.97755 4.07068 3.27112 4.75484 2.75551C5.439 2.23991 6.26036 1.93817 7.1156 1.88825C7.24216 1.87911 7.37064 1.87499 7.49997 1.87499C7.6293 1.87499 7.75778 1.87911 7.88566 1.88825C8.7407 1.93836 9.56183 2.2402 10.2458 2.75579C10.9297 3.27138 11.4459 3.97771 11.7294 4.78593C12.0557 5.6276 12.1295 6.54611 11.942 7.4291C11.7544 8.31209 11.3136 9.12128 10.6734 9.75768Z" fill="url(#paint0_linear_141_445)"/>
<path d="M8.90625 6.09375H7.96875V5.15625C7.96875 5.03193 7.91936 4.9127 7.83146 4.82479C7.74355 4.73689 7.62432 4.6875 7.5 4.6875C7.37568 4.6875 7.25645 4.73689 7.16854 4.82479C7.08064 4.9127 7.03125 5.03193 7.03125 5.15625V6.09375H6.09375C5.96943 6.09375 5.8502 6.14314 5.76229 6.23104C5.67439 6.31895 5.625 6.43818 5.625 6.5625C5.625 6.68682 5.67439 6.80605 5.76229 6.89396C5.8502 6.98186 5.96943 7.03125 6.09375 7.03125H7.03125V7.96875C7.03125 8.09307 7.08064 8.2123 7.16854 8.30021C7.25645 8.38811 7.37568 8.4375 7.5 8.4375C7.62432 8.4375 7.74355 8.38811 7.83146 8.30021C7.91936 8.2123 7.96875 8.09307 7.96875 7.96875V7.03125H8.90625C9.03057 7.03125 9.1498 6.98186 9.23771 6.89396C9.32561 6.80605 9.375 6.68682 9.375 6.5625C9.375 6.43818 9.32561 6.31895 9.23771 6.23104C9.1498 6.14314 9.03057 6.09375 8.90625 6.09375Z" fill="url(#paint1_linear_141_445)"/>
<path d="M7.5 2.8125C6.75832 2.8125 6.0333 3.03243 5.41661 3.44449C4.79993 3.85654 4.31928 4.44221 4.03545 5.12744C3.75162 5.81266 3.67736 6.56666 3.82206 7.29409C3.96675 8.02152 4.3239 8.6897 4.84835 9.21415C5.3728 9.7386 6.04098 10.0958 6.76841 10.2404C7.49584 10.3851 8.24984 10.3109 8.93506 10.027C9.62029 9.74322 10.206 9.26257 10.618 8.64589C11.0301 8.0292 11.25 7.30418 11.25 6.5625C11.2489 5.56829 10.8534 4.61512 10.1504 3.91211C9.44738 3.2091 8.49421 2.81364 7.5 2.8125ZM7.5 9.375C6.94374 9.375 6.39997 9.21005 5.93746 8.90101C5.47495 8.59197 5.11446 8.15271 4.90159 7.6388C4.68872 7.12488 4.63302 6.55938 4.74154 6.01381C4.85006 5.46824 5.11793 4.9671 5.51126 4.57376C5.9046 4.18043 6.40574 3.91256 6.95131 3.80404C7.49688 3.69552 8.06238 3.75122 8.5763 3.96409C9.09022 4.17696 9.52947 4.53745 9.83851 4.99996C10.1476 5.46247 10.3125 6.00624 10.3125 6.5625C10.3117 7.30817 10.0151 8.02306 9.48783 8.55033C8.96057 9.0776 8.24567 9.37418 7.5 9.375Z" fill="url(#paint2_linear_141_445)"/>
<defs>
<linearGradient id="paint0_linear_141_445" x1="2.01758" y1="0.9375" x2="16.0021" y2="8.41454" gradientUnits="userSpaceOnUse">
<stop stop-color="#AD37E0"/>
<stop offset="1" stop-color="#EE2B3B"/>
</linearGradient>
<linearGradient id="paint1_linear_141_445" x1="5.625" y1="4.6875" x2="9.98794" y2="7.47978" gradientUnits="userSpaceOnUse">
<stop stop-color="#AD37E0"/>
<stop offset="1" stop-color="#EE2B3B"/>
</linearGradient>
<linearGradient id="paint2_linear_141_445" x1="3.75" y1="2.8125" x2="12.4759" y2="8.39706" gradientUnits="userSpaceOnUse">
<stop stop-color="#AD37E0"/>
<stop offset="1" stop-color="#EE2B3B"/>
</linearGradient>
</defs>
</svg>
