<svg width="14" height="14" viewBox="0 0 14 14" fill="none" xmlns="http://www.w3.org/2000/svg">
<path d="M9.76285 3.6168C9.64009 3.6168 9.52009 3.65321 9.41801 3.72141C9.31594 3.78961 9.23639 3.88655 9.18941 3.99997C9.14243 4.11338 9.13014 4.23818 9.15409 4.35858C9.17804 4.47899 9.23715 4.58958 9.32396 4.67639C9.41076 4.76319 9.52136 4.82231 9.64176 4.84626C9.76216 4.87021 9.88696 4.85791 10.0004 4.81094C10.1138 4.76396 10.2107 4.6844 10.2789 4.58233C10.3471 4.48026 10.3835 4.36025 10.3835 4.23749C10.3835 4.07288 10.3181 3.915 10.2017 3.7986C10.0853 3.6822 9.92747 3.6168 9.76285 3.6168ZM12.1422 4.86853C12.1321 4.43937 12.0517 4.01477 11.9042 3.61163C11.7727 3.2667 11.568 2.95436 11.3042 2.69611C11.0481 2.43099 10.735 2.22758 10.3887 2.10129C9.98664 1.9493 9.56157 1.86708 9.13182 1.85818C8.58354 1.82715 8.40768 1.82715 7.00078 1.82715C5.59389 1.82715 5.41802 1.82715 4.86975 1.85818C4.44 1.86708 4.01493 1.9493 3.61285 2.10129C3.26717 2.22886 2.95437 2.43209 2.69733 2.69611C2.43221 2.95224 2.22881 3.26531 2.10251 3.61163C1.95052 4.01371 1.86831 4.43878 1.8594 4.86853C1.82837 5.4168 1.82837 5.59267 1.82837 6.99956C1.82837 8.40646 1.82837 8.58232 1.8594 9.1306C1.86831 9.56035 1.95052 9.98542 2.10251 10.3875C2.22881 10.7338 2.43221 11.0469 2.69733 11.303C2.95437 11.567 3.26717 11.7703 3.61285 11.8978C4.01493 12.0498 4.44 12.132 4.86975 12.1409C5.41802 12.172 5.59389 12.172 7.00078 12.172C8.40768 12.172 8.58354 12.172 9.13182 12.1409C9.56157 12.132 9.98664 12.0498 10.3887 11.8978C10.735 11.7715 11.0481 11.5681 11.3042 11.303C11.5692 11.0457 11.7741 10.7331 11.9042 10.3875C12.0517 9.98435 12.1321 9.55975 12.1422 9.1306C12.1422 8.58232 12.1732 8.40646 12.1732 6.99956C12.1732 5.59267 12.1732 5.4168 12.1422 4.86853ZM11.2111 9.06853C11.2074 9.39686 11.1479 9.72217 11.0353 10.0306C10.9527 10.2557 10.82 10.4591 10.6473 10.6254C10.4796 10.7964 10.2766 10.9288 10.0525 11.0134C9.74408 11.126 9.41877 11.1855 9.09044 11.1892C8.5732 11.2151 8.38182 11.2203 7.02147 11.2203C5.66113 11.2203 5.46975 11.2203 4.95251 11.1892C4.61159 11.1956 4.27213 11.1431 3.94906 11.034C3.73481 10.9451 3.54114 10.8131 3.38009 10.6461C3.20841 10.4799 3.07743 10.2764 2.99733 10.0513C2.87105 9.73843 2.80101 9.40574 2.79044 9.06853C2.79044 8.55129 2.7594 8.35991 2.7594 6.99956C2.7594 5.63922 2.7594 5.44784 2.79044 4.9306C2.79276 4.59494 2.85403 4.26229 2.97147 3.94784C3.06253 3.72952 3.2023 3.5349 3.38009 3.37887C3.53724 3.20103 3.73145 3.05978 3.94906 2.96508C4.26434 2.85131 4.59664 2.79184 4.93182 2.78922C5.44906 2.78922 5.64044 2.75818 7.00078 2.75818C8.36113 2.75818 8.55251 2.75818 9.06975 2.78922C9.39808 2.79298 9.72339 2.85245 10.0318 2.96508C10.2669 3.05231 10.4778 3.19414 10.6473 3.37887C10.8168 3.53776 10.9493 3.73201 11.0353 3.94784C11.1502 4.2628 11.2097 4.59531 11.2111 4.9306C11.237 5.44784 11.2422 5.63922 11.2422 6.99956C11.2422 8.35991 11.237 8.55129 11.2111 9.06853ZM7.00078 4.34611C6.4762 4.34714 5.96369 4.50363 5.52802 4.79581C5.09234 5.088 4.75305 5.50277 4.55301 5.98771C4.35297 6.47265 4.30116 7.00601 4.40412 7.52039C4.50709 8.03476 4.76022 8.50708 5.13151 8.87765C5.50281 9.24823 5.97562 9.50043 6.49019 9.6024C7.00477 9.70436 7.53802 9.65151 8.02258 9.45053C8.50713 9.24955 8.92124 8.90944 9.21257 8.4732C9.50391 8.03696 9.6594 7.52414 9.6594 6.99956C9.66009 6.65048 9.59175 6.3047 9.45832 5.98213C9.32489 5.65955 9.129 5.36653 8.88192 5.11993C8.63484 4.87333 8.34145 4.67802 8.01861 4.54522C7.69577 4.41241 7.34986 4.34475 7.00078 4.34611ZM7.00078 8.72198C6.66012 8.72198 6.32711 8.62096 6.04386 8.4317C5.76061 8.24244 5.53985 7.97343 5.40948 7.6587C5.27911 7.34397 5.245 6.99765 5.31146 6.66354C5.37792 6.32942 5.54197 6.02252 5.78285 5.78163C6.02374 5.54075 6.33064 5.3767 6.66476 5.31024C6.99887 5.24378 7.34519 5.27789 7.65992 5.40826C7.97465 5.53862 8.24366 5.75939 8.43292 6.04264C8.62218 6.32589 8.7232 6.6589 8.7232 6.99956C8.7232 7.22575 8.67865 7.44973 8.59209 7.6587C8.50553 7.86767 8.37865 8.05755 8.21871 8.21749C8.05877 8.37743 7.86889 8.50431 7.65992 8.59087C7.45095 8.67742 7.22697 8.72198 7.00078 8.72198Z" fill="url(#paint0_linear_141_404)"/>
<defs>
<linearGradient id="paint0_linear_141_404" x1="1.82837" y1="7.2718" x2="12.3706" y2="7.2718" gradientUnits="userSpaceOnUse">
<stop stop-color="#AD37E0"/>
<stop offset="1" stop-color="#EE2B3B"/>
</linearGradient>
</defs>
</svg>
