<svg width="388" height="185" viewBox="0 0 388 185" fill="none" xmlns="http://www.w3.org/2000/svg">
<g clip-path="url(#clip0_177_797)">
<rect width="388" height="185" rx="40" fill="url(#paint0_linear_177_797)"/>
<path d="M229 -52C229 59.5615 138.562 150 27 150C-84.5615 150 -175 59.5615 -175 -52C-175 -163.562 -84.5615 -254 27 -254C138.562 -254 229 -163.562 229 -52ZM-123.604 -52C-123.604 31.1761 -56.1761 98.6037 27 98.6037C110.176 98.6037 177.604 31.1761 177.604 -52C177.604 -135.176 110.176 -202.604 27 -202.604C-56.1761 -202.604 -123.604 -135.176 -123.604 -52Z" fill="white" fill-opacity="0.1"/>
<path d="M34.768 49.288C37.336 49.288 39.688 48.184 41.32 46.432L38.344 43.792C37.456 44.872 36.184 45.568 34.768 45.568C32.248 45.568 30.112 43.36 30.112 40.744C30.112 38.152 32.248 35.944 34.768 35.944C36.16 35.944 37.456 36.64 38.32 37.72L41.32 35.056C39.688 33.328 37.336 32.224 34.768 32.224C29.968 32.224 25.912 36.112 25.912 40.744C25.912 45.376 29.968 49.288 34.768 49.288ZM50.8761 36.304C49.3161 36.304 48.0201 36.952 47.2521 37.984V32.224H43.1721V49H47.2521V41.848C47.2521 40.624 48.1881 39.688 49.4361 39.688C50.6841 39.688 51.5481 40.648 51.5481 42.016V49H55.4361V41.104C55.4361 38.296 53.5401 36.304 50.8761 36.304ZM64.3664 49.288C68.1104 49.288 71.2544 46.312 71.2544 42.784C71.2544 39.256 68.1104 36.304 64.3664 36.304C60.6224 36.304 57.4784 39.256 57.4784 42.784C57.4784 46.312 60.6224 49.288 64.3664 49.288ZM64.3664 45.904C62.7104 45.904 61.3184 44.464 61.3184 42.784C61.3184 41.104 62.7104 39.688 64.3664 39.688C66.0224 39.688 67.4144 41.104 67.4144 42.784C67.4144 44.464 66.0224 45.904 64.3664 45.904ZM79.6008 49.288C83.3448 49.288 86.4888 46.312 86.4888 42.784C86.4888 39.256 83.3448 36.304 79.6008 36.304C75.8568 36.304 72.7128 39.256 72.7128 42.784C72.7128 46.312 75.8568 49.288 79.6008 49.288ZM79.6008 45.904C77.9448 45.904 76.5528 44.464 76.5528 42.784C76.5528 41.104 77.9448 39.688 79.6008 39.688C81.2568 39.688 82.6488 41.104 82.6488 42.784C82.6488 44.464 81.2568 45.904 79.6008 45.904ZM93.3951 49.288C96.5871 49.288 98.6031 47.68 98.6031 45.184C98.6031 42.352 96.1311 41.632 93.9231 41.104C92.4591 40.72 91.9311 40.6 91.9311 40.048C91.9311 39.664 92.4591 39.328 93.2031 39.328C94.3311 39.328 95.6751 39.856 96.7551 40.552L98.2431 37.888C96.8511 36.952 95.0511 36.304 93.2031 36.304C90.1311 36.304 88.1871 38.08 88.1871 40.456C88.2111 43.144 90.4431 43.768 92.8431 44.32C94.0671 44.608 94.8831 44.848 94.8831 45.448C94.8831 45.928 94.3791 46.216 93.4911 46.216C92.0031 46.216 90.4191 45.616 89.2671 44.8L87.6351 47.416C89.1471 48.592 91.3071 49.288 93.3951 49.288ZM106.593 46C105.273 46 104.289 45.16 103.905 43.912H112.761C112.761 39.184 110.457 36.304 106.521 36.304C102.777 36.304 100.041 38.992 100.041 42.76C100.041 46.576 102.873 49.288 106.713 49.288C108.561 49.288 110.697 48.496 111.801 47.368L109.401 44.944C108.657 45.592 107.553 46 106.593 46ZM106.593 39.568C107.817 39.568 108.657 40.312 108.993 41.44H103.953C104.385 40.288 105.369 39.568 106.593 39.568ZM125.701 45.328V32.512H121.621V49H133.645V45.328H125.701ZM141.898 49.288C145.642 49.288 148.786 46.312 148.786 42.784C148.786 39.256 145.642 36.304 141.898 36.304C138.154 36.304 135.01 39.256 135.01 42.784C135.01 46.312 138.154 49.288 141.898 49.288ZM141.898 45.904C140.242 45.904 138.85 44.464 138.85 42.784C138.85 41.104 140.242 39.688 141.898 39.688C143.554 39.688 144.946 41.104 144.946 42.784C144.946 44.464 143.554 45.904 141.898 45.904ZM157.108 49.288C159.292 49.288 161.02 48.4 162.244 47.008L159.556 44.8C158.98 45.448 158.02 45.904 157.132 45.904C155.524 45.904 154.156 44.464 154.156 42.76C154.156 41.104 155.524 39.688 157.132 39.688C157.996 39.688 158.932 40.144 159.484 40.744L162.172 38.512C160.972 37.168 159.268 36.304 157.156 36.304C153.412 36.304 150.244 39.256 150.244 42.784C150.244 46.312 153.388 49.288 157.108 49.288ZM169.847 36.304C167.927 36.304 166.151 36.856 164.423 37.72L165.695 40.264C166.751 39.712 167.639 39.352 168.815 39.352C170.519 39.352 171.527 40.312 171.527 41.632V41.8C170.567 41.416 169.535 41.2 168.623 41.2C165.695 41.2 163.367 42.904 163.367 45.328C163.367 47.68 165.455 49.288 168.095 49.288C169.367 49.288 170.663 48.808 171.527 47.944V49H175.439V41.632C175.439 38.32 173.039 36.304 169.847 36.304ZM169.079 46.792C167.999 46.792 167.231 46.168 167.231 45.208C167.231 44.248 168.095 43.552 169.199 43.552C170.039 43.552 170.903 43.72 171.527 43.96V45.28C171.359 46.216 170.279 46.792 169.079 46.792ZM185.039 45.496C184.799 45.736 184.343 45.904 183.887 45.904C183.239 45.904 182.759 45.352 182.759 44.56V39.832H185.327V36.592H182.759V33.184H178.871V36.592H177.239V39.832H178.871V45.304C178.871 47.632 180.503 49.288 182.831 49.288C183.887 49.288 185.111 48.808 185.855 48.112L185.039 45.496ZM189.964 35.08C191.14 35.08 192.076 34.096 192.076 32.92C192.076 31.792 191.14 30.808 189.964 30.808C188.764 30.808 187.804 31.792 187.804 32.92C187.804 34.096 188.764 35.08 189.964 35.08ZM187.9 49H191.956V36.592H187.9V49ZM201.03 49.288C204.774 49.288 207.918 46.312 207.918 42.784C207.918 39.256 204.774 36.304 201.03 36.304C197.286 36.304 194.142 39.256 194.142 42.784C194.142 46.312 197.286 49.288 201.03 49.288ZM201.03 45.904C199.374 45.904 197.982 44.464 197.982 42.784C197.982 41.104 199.374 39.688 201.03 39.688C202.686 39.688 204.078 41.104 204.078 42.784C204.078 44.464 202.686 45.904 201.03 45.904ZM217.681 36.304C216.121 36.304 214.801 36.952 214.033 38.008V36.592H209.977V49H214.033V41.776L214.057 41.848C214.057 40.624 214.993 39.688 216.241 39.688C217.489 39.688 218.353 40.648 218.353 42.016V49H222.241V41.104C222.241 38.296 220.345 36.304 217.681 36.304Z" fill="white"/>
<path d="M49.9744 172.307C53.3471 172.307 56.4488 173.468 58.9039 175.412C58.9027 175.336 58.901 175.259 58.901 175.181C58.901 166.758 65.7161 159.93 74.1237 159.93C81.0871 159.93 86.9585 164.615 88.7699 171.01C89.8368 170.798 90.9399 170.686 92.0694 170.686C99.0566 170.686 105.051 174.942 107.611 181.008C108.541 180.793 109.511 180.679 110.507 180.679C117.6 180.679 123.351 186.44 123.351 193.547C123.351 194.797 123.172 196.007 122.84 197.149C87.575 197.149 62.4614 197.149 26.9766 197.149C27.1916 192.417 30.9454 188.611 35.6486 188.321C35.5924 187.803 35.5629 187.278 35.5629 186.745C35.5629 178.771 42.0151 172.307 49.9744 172.307Z" fill="#542B12"/>
<path d="M200.868 83.0058L218.842 65L236.815 83.0058V102.94L247.534 113.68V197.15H190.148V113.68L200.868 102.94V83.0058Z" fill="#EBEAF2"/>
<path d="M218.844 65H251.717L269.689 83.0058H236.816L218.844 65Z" fill="#444C7D"/>
<path d="M236.811 102.94H269.684L280.403 113.68H247.53L236.811 102.94Z" fill="#444C7D"/>
<path d="M269.684 83.0059H236.811V102.94H269.684V83.0059Z" fill="#7A81B7"/>
<path d="M280.4 113.68H247.527V197.149H280.4V113.68Z" fill="#7A81B7"/>
<path d="M249.93 116.495H254.34V120.913H249.93V116.495ZM249.93 184.569H254.34V188.988H249.93V184.569ZM273.589 184.569H277.999V188.988H273.589V184.569ZM265.703 184.569H270.113V188.988H265.703V184.569ZM257.816 184.569H262.226V188.988H257.816V184.569ZM249.93 177.006H254.34V181.424H249.93V177.006ZM273.589 177.006H277.999V181.424H273.589V177.006ZM265.703 177.006H270.113V181.424H265.703V177.006ZM257.816 177.006H262.226V181.424H257.816V177.006ZM249.93 169.442H254.34V173.86H249.93V169.442ZM273.589 169.442H277.999V173.86H273.589V169.442ZM265.703 169.442H270.113V173.86H265.703V169.442ZM257.816 169.442H262.226V173.86H257.816V169.442ZM249.93 161.878H254.34V166.297H249.93V161.878ZM273.589 161.878H277.999V166.297H273.589V161.878ZM265.703 161.878H270.113V166.297H265.703V161.878ZM257.816 161.878H262.226V166.297H257.816V161.878ZM249.93 154.314H254.34V158.733H249.93V154.314ZM273.589 154.314H277.999V158.733H273.589V154.314ZM265.703 154.314H270.113V158.733H265.703V154.314ZM257.816 154.314H262.226V158.733H257.816V154.314ZM249.93 146.751H254.341V151.169H249.93V146.751ZM273.589 146.751H277.999V151.169H273.589V146.751ZM265.703 146.751H270.113V151.169H265.703V146.751ZM257.816 146.751H262.226V151.169H257.816V146.751ZM249.93 139.187H254.341V143.605H249.93V139.187ZM273.589 139.187H277.999V143.605H273.589V139.187ZM265.703 139.187H270.113V143.605H265.703V139.187ZM257.816 139.187H262.226V143.605H257.816V139.187ZM249.93 131.623H254.341V136.041H249.93V131.623ZM273.589 131.623H277.999V136.041H273.589V131.623ZM265.703 131.623H270.113V136.041H265.703V131.623ZM257.816 131.623H262.227V136.041H257.816V131.623ZM249.93 124.059H254.341V128.477H249.93V124.059ZM273.589 124.059H277.999V128.477H273.589V124.059ZM265.703 124.059H270.113V128.477H265.703V124.059ZM257.816 124.059H262.227V128.477H257.816V124.059ZM273.589 116.495H277.999V120.913H273.589V116.495ZM265.703 116.495H270.113V120.913H265.703V116.495ZM257.816 116.495H262.227V120.913H257.816V116.495Z" fill="#444C7D"/>
<path d="M178.893 115.413L191.343 102.94L203.792 115.413V129.222L211.22 136.662V197.15H171.467V136.662L178.893 129.222V115.413Z" fill="#EBEAF2"/>
<path d="M191.344 102.94H214.118L226.567 115.413H203.793L191.344 102.94Z" fill="#444C7D"/>
<path d="M203.791 129.222H226.565L233.991 136.662H211.219L203.791 129.222Z" fill="#444C7D"/>
<path d="M226.564 115.413H203.791V129.222H226.564V115.413Z" fill="#7A81B7"/>
<path d="M233.993 136.662H211.221V197.15H233.993V136.662Z" fill="#7A81B7"/>
<path d="M213.26 140.348H217.344V144.439H213.26V140.348ZM213.26 189.372H217.344V193.463H213.26V189.372ZM227.865 189.372H231.948V193.463H227.865V189.372ZM220.562 189.372H224.646V193.463H220.562V189.372ZM213.26 182.368H217.344V186.46H213.26V182.368ZM227.865 182.368H231.948V186.46H227.865V182.368ZM220.562 182.368H224.646V186.46H220.562V182.368ZM213.26 175.366H217.344V179.456H213.26V175.366ZM227.865 175.366H231.948V179.456H227.865V175.366ZM220.562 175.366H224.646V179.456H220.562V175.366ZM213.26 168.361H217.344V172.453H213.26V168.361ZM227.865 168.361H231.948V172.453H227.865V168.361ZM220.562 168.361H224.646V172.453H220.562V168.361ZM213.26 161.359H217.344V165.45H213.26V161.359ZM227.865 161.359H231.948V165.45H227.865V161.359ZM220.562 161.359H224.646V165.45H220.562V161.359ZM213.26 154.354H217.344V158.446H213.26V154.354ZM227.865 154.354H231.948V158.446H227.865V154.354ZM220.562 154.354H224.646V158.446H220.562V154.354ZM213.26 147.352H217.344V151.443H213.26V147.352ZM227.865 147.352H231.948V151.443H227.865V147.352ZM220.562 147.352H224.646V151.443H220.562V147.352ZM227.865 140.348H231.948V144.439H227.865V140.348ZM220.562 140.348H224.646V144.439H220.562V140.348Z" fill="#444C7D"/>
<path d="M174.723 140.348H178.806V144.439H174.723V140.348ZM189.28 140.348H189.327H193.364H193.41V144.439H193.364H189.327H189.28V140.348ZM189.28 189.372H189.327H193.364H193.41V193.463H193.364H189.327H189.28V189.372ZM203.884 189.372H207.968V193.463H203.884V189.372ZM196.582 189.372H200.666V193.463H196.582V189.372ZM189.28 182.368H189.327H193.364H193.41V186.46H193.364H189.327H189.28V182.368ZM203.884 182.368H207.968V186.46H203.884V182.368ZM196.582 182.368H200.666V186.46H196.582V182.368ZM189.28 175.366H189.327H193.364H193.41V179.456H193.364H189.327H189.28V175.366ZM203.884 175.366H207.968V179.456H203.884V175.366ZM196.582 175.366H200.666V179.456H196.582V175.366ZM189.28 168.361H189.327H193.364H193.41V172.453H193.364H189.327H189.28V168.361ZM203.884 168.361H207.968V172.453H203.884V168.361ZM196.582 168.361H200.666V172.453H196.582V168.361ZM189.28 161.359H189.327H193.364H193.41V165.45H193.364H189.327H189.28V161.359ZM203.884 161.359H207.968V165.45H203.884V161.359ZM196.582 161.359H200.666V165.45H196.582V161.359ZM189.28 154.354H189.327H193.364H193.411V158.446H193.364H189.327H189.28V154.354ZM203.884 154.354H207.968V158.446H203.884V154.354ZM196.582 154.354H200.666V158.446H196.582V154.354ZM189.28 147.352H189.327H193.364H193.411V151.443H193.364H189.327H189.28V147.352ZM203.884 147.352H207.968V151.443H203.884V147.352ZM196.582 147.352H200.666V151.443H196.582V147.352ZM203.884 140.348H207.968V144.439H203.884V140.348ZM196.582 140.348H200.666V144.439H196.582V140.348ZM174.723 189.372H178.806V193.463H174.723V189.372ZM182.025 189.372H186.108V193.463H182.025V189.372ZM174.723 182.368H178.806V186.46H174.723V182.368ZM182.025 182.368H186.108V186.46H182.025V182.368ZM174.723 175.366H178.806V179.456H174.723V175.366ZM182.025 175.366H186.108V179.456H182.025V175.366ZM174.723 168.361H178.806V172.453H174.723V168.361ZM182.025 168.361H186.108V172.453H182.025V168.361ZM174.723 161.359H178.806V165.45H174.723V161.359ZM182.025 161.359H186.108V165.45H182.025V161.359ZM174.723 154.355H178.806V158.446H174.723V154.355ZM182.025 154.355H186.108V158.446H182.025V154.355ZM174.723 147.352H178.806V151.443H174.723V147.352ZM182.025 147.352H186.108V151.443H182.025V147.352ZM182.025 140.348H186.108V144.439H182.025V140.348Z" fill="#444C7D"/>
<path d="M181.392 92.604H152.688V197.149H181.392V92.604Z" fill="#EBEAF2"/>
<path d="M155.121 96.123H178.967V97.9207H155.121V96.123ZM155.121 191.833H178.967V193.63H155.121V191.833ZM155.121 186.516H178.967V188.313H155.121V186.516ZM155.121 181.198H178.967V182.996H155.121V181.198ZM155.121 175.881H178.967V177.678H155.121V175.881ZM155.121 170.564H178.967V172.361H155.121V170.564ZM155.121 165.247H178.967V167.044H155.121V165.247ZM155.121 159.93H178.967V161.726H155.121V159.93ZM155.121 154.612H178.967V156.41H155.121V154.612ZM155.121 149.295H178.967V151.092H155.121V149.295ZM155.121 143.978H178.967V145.775H155.121V143.978ZM155.121 138.661H178.967V140.458H155.121V138.661ZM155.121 133.344H178.967V135.141H155.121V133.344ZM155.121 128.026H178.967V129.824H155.121V128.026ZM155.121 122.709H178.967V124.506H155.121V122.709ZM155.121 117.392H178.967V119.189H155.121V117.392ZM155.121 112.075H178.967V113.872H155.121V112.075ZM155.121 106.758H178.967V108.555H155.121V106.758ZM155.121 101.441H178.967V103.238H155.121V101.441Z" fill="#7A81B7"/>
<path d="M196.119 92.604H181.393V197.149H196.119V92.604Z" fill="#B9B6C9"/>
<path d="M194.877 96.123H182.643V97.9207H194.877V96.123ZM194.877 191.833H182.643V193.63H194.877V191.833ZM194.877 186.516H182.643V188.313H194.877V186.516ZM194.877 181.198H182.643V182.996H194.877V181.198ZM194.877 175.881H182.643V177.678H194.877V175.881ZM194.877 170.564H182.643V172.361H194.877V170.564ZM194.877 165.247H182.643V167.044H194.877V165.247ZM194.877 159.93H182.643V161.726H194.877V159.93ZM194.877 154.612H182.643V156.41H194.877V154.612ZM194.877 149.295H182.643V151.092H194.877V149.295ZM194.877 143.978H182.643V145.775H194.877V143.978ZM194.877 138.661H182.643V140.458H194.877V138.661ZM194.877 133.344H182.643V135.141H194.877V133.344ZM194.877 128.026H182.643V129.824H194.877V128.026ZM194.877 122.709H182.643V124.506H194.877V122.709ZM194.877 117.392H182.643V119.189H194.877V117.392ZM194.877 112.075H182.643V113.872H194.877V112.075ZM194.877 106.758H182.643V108.555H194.877V106.758ZM194.877 101.441H182.643V103.238H194.877V101.441Z" fill="#7A81B7"/>
<path d="M272.217 103.987H244.109V197.149H272.217V103.987Z" fill="#D8DEFF"/>
<path d="M247.473 106.533H251.659V110.727H247.473V106.533ZM247.473 190.409H251.659V194.604H247.473V190.409ZM264.666 190.409H268.852V194.604H264.666V190.409ZM256.069 190.409H260.256V194.604H256.069V190.409ZM247.473 182.022H251.659V186.216H247.473V182.022ZM264.666 182.022H268.852V186.216H264.666V182.022ZM256.069 182.022H260.256V186.216H256.069V182.022ZM247.473 173.635H251.659V177.829H247.473V173.635ZM264.666 173.635H268.852V177.829H264.666V173.635ZM256.069 173.635H260.256V177.829H256.069V173.635ZM247.473 165.247H251.659V169.441H247.473V165.247ZM264.666 165.247H268.852V169.441H264.666V165.247ZM256.07 165.247H260.256V169.441H256.07V165.247ZM247.473 156.859H251.659V161.053H247.473V156.859ZM264.666 156.859H268.852V161.053H264.666V156.859ZM256.07 156.859H260.256V161.053H256.07V156.859ZM247.473 148.471H251.659V152.665H247.473V148.471ZM264.666 148.471H268.852V152.665H264.666V148.471ZM256.07 148.471H260.256V152.665H256.07V148.471ZM247.473 140.084H251.659V144.278H247.473V140.084ZM264.666 140.084H268.852V144.278H264.666V140.084ZM256.07 140.084H260.256V144.278H256.07V140.084ZM247.473 131.696H251.659V135.89H247.473V131.696ZM264.666 131.696H268.852V135.89H264.666V131.696ZM256.07 131.696H260.256V135.89H256.07V131.696ZM247.473 123.308H251.659V127.502H247.473V123.308ZM264.666 123.308H268.852V127.502H264.666V123.308ZM256.07 123.308H260.256V127.502H256.07V123.308ZM247.473 114.921H251.659V119.115H247.473V114.921ZM264.666 114.921H268.852V119.115H264.666V114.921ZM256.07 114.921H260.256V119.115H256.07V114.921ZM264.666 106.533H268.852V110.727H264.666V106.533ZM256.07 106.533H260.256V110.727H256.07V106.533Z" fill="#99A1C9"/>
<path d="M291.391 103.987H272.217V197.149H291.391V103.987Z" fill="#B5BDE6"/>
<path d="M275.408 106.533H279.594V110.727H275.408V106.533ZM275.408 190.409H279.594V194.604H275.408V190.409ZM284.005 190.409H288.191V194.604H284.005V190.409ZM275.408 182.022H279.594V186.216H275.408V182.022ZM284.005 182.022H288.191V186.216H284.005V182.022ZM275.408 173.635H279.594V177.829H275.408V173.635ZM284.005 173.635H288.191V177.829H284.005V173.635ZM275.408 165.247H279.594V169.441H275.408V165.247ZM284.005 165.247H288.191V169.441H284.005V165.247ZM275.408 156.859H279.594V161.053H275.408V156.859ZM284.005 156.859H288.191V161.053H284.005V156.859ZM275.408 148.471H279.594V152.665H275.408V148.471ZM284.005 148.471H288.191V152.665H284.005V148.471ZM275.408 140.084H279.594V144.278H275.408V140.084ZM284.005 140.084H288.191V144.278H284.005V140.084ZM275.408 131.696H279.594V135.89H275.408V131.696ZM284.005 131.696H288.191V135.89H284.005V131.696ZM275.408 123.308H279.594V127.502H275.408V123.308ZM284.005 123.308H288.191V127.502H284.005V123.308ZM275.408 114.921H279.594V119.115H275.408V114.921ZM284.005 114.921H288.191V119.115H284.005V114.921ZM284.005 106.533H288.191V110.727H284.005V106.533Z" fill="#99A1C9"/>
<path d="M318.441 91.4058H290.334V184.568H318.441V91.4058Z" fill="#DAD9E7"/>
<path d="M293.697 93.9521H297.883V98.1458H293.697V93.9521ZM293.697 177.829H297.883V182.022H293.697V177.829ZM310.89 177.829H315.076V182.022H310.89V177.829ZM302.293 177.829H306.479V182.022H302.293V177.829ZM293.697 169.441H297.883V173.635H293.697V169.441ZM310.89 169.441H315.076V173.635H310.89V169.441ZM302.293 169.441H306.479V173.635H302.293V169.441ZM293.697 161.053H297.883V165.247H293.697V161.053ZM310.89 161.053H315.076V165.247H310.89V161.053ZM302.293 161.053H306.479V165.247H302.293V161.053ZM293.697 152.666H297.883V156.859H293.697V152.666ZM310.89 152.666H315.076V156.859H310.89V152.666ZM302.293 152.666H306.479V156.859H302.293V152.666ZM293.697 144.278H297.883V148.472H293.697V144.278ZM310.89 144.278H315.076V148.472H310.89V144.278ZM302.293 144.278H306.479V148.472H302.293V144.278ZM293.697 135.89H297.883V140.084H293.697V135.89ZM310.89 135.89H315.076V140.084H310.89V135.89ZM302.293 135.89H306.479V140.084H302.293V135.89ZM293.697 127.503H297.883V131.696H293.697V127.503ZM310.89 127.503H315.076V131.696H310.89V127.503ZM302.293 127.503H306.479V131.696H302.293V127.503ZM293.697 119.115H297.883V123.309H293.697V119.115ZM310.89 119.115H315.076V123.309H310.89V119.115ZM302.293 119.115H306.479V123.309H302.293V119.115ZM293.697 110.727H297.883V114.921H293.697V110.727ZM310.89 110.727H315.076V114.921H310.89V110.727ZM302.293 110.727H306.479V114.921H302.293V110.727ZM293.697 102.34H297.883V106.533H293.697V102.34ZM310.89 102.34H315.076V106.533H310.89V102.34ZM302.293 102.34H306.479V106.533H302.293V102.34ZM310.89 93.9521H315.076V98.1458H310.89V93.9521ZM302.293 93.9521H306.479V98.1458H302.293V93.9521Z" fill="#444C7D"/>
<path d="M337.616 91.4058H318.441V184.568H337.616V91.4058Z" fill="#7A81B7"/>
<path d="M321.635 93.9521H325.821V98.1458H321.635V93.9521ZM321.635 177.829H325.821V182.022H321.635V177.829ZM330.232 177.829H334.418V182.022H330.232V177.829ZM321.635 169.441H325.821V173.635H321.635V169.441ZM330.232 169.441H334.418V173.635H330.232V169.441ZM321.635 161.053H325.821V165.247H321.635V161.053ZM330.232 161.053H334.418V165.247H330.232V161.053ZM321.635 152.666H325.821V156.859H321.635V152.666ZM330.232 152.666H334.418V156.859H330.232V152.666ZM321.635 144.278H325.821V148.472H321.635V144.278ZM330.232 144.278H334.418V148.472H330.232V144.278ZM321.635 135.89H325.821V140.084H321.635V135.89ZM330.232 135.89H334.418V140.084H330.232V135.89ZM321.635 127.503H325.821V131.696H321.635V127.503ZM330.232 127.503H334.418V131.696H330.232V127.503ZM321.635 119.115H325.821V123.309H321.635V119.115ZM330.232 119.115H334.418V123.309H330.232V119.115ZM321.635 110.727H325.821V114.921H321.635V110.727ZM330.232 110.727H334.418V114.921H330.232V110.727ZM321.635 102.34H325.821V106.533H321.635V102.34ZM330.232 102.34H334.418V106.533H330.232V102.34ZM330.232 93.9521H334.418V98.1458H330.232V93.9521Z" fill="#444C7D"/>
<path d="M285.445 91.4058H318.448V86.4258H285.445V91.4058Z" fill="#7A81B7"/>
<path d="M342.523 86.4258H318.453V91.4058H342.523V86.4258Z" fill="#444C7D"/>
<path d="M370.893 96.4233V197.449H330.229V137.163L370.893 96.4233Z" fill="#75779E"/>
<path d="M368.8 197.449H366.407V105.934L368.8 103.538V197.449ZM363.119 197.449H360.726V111.626L363.119 109.229V197.449ZM357.438 197.449H355.045V117.318L357.438 114.921V197.449ZM351.756 197.449H349.364V123.009L351.756 120.613V197.449ZM346.074 197.449H343.682V128.701L346.074 126.304V197.449ZM340.393 197.449H338.001V134.392L340.393 131.996V197.449ZM334.712 197.449H332.32V140.084L334.712 137.688V197.449Z" fill="#444561"/>
<path d="M389.279 96.4233H370.891V197.449H389.279V96.4233Z" fill="#5E6085"/>
<path d="M386.962 197.449H384.57V99.1196H386.962V197.449ZM381.281 197.449H378.889V99.1196H381.281V197.449ZM375.6 197.449H373.207V99.1196H375.6V197.449Z" fill="#444561"/>
<path d="M303.813 149.83L316.263 137.357L328.713 149.83V163.64L336.14 171.08V231.567H296.387V171.08L303.813 163.64V149.83Z" fill="#D8DEFF"/>
<path d="M316.264 137.357H369.409L381.859 149.83H328.713L316.264 137.357Z" fill="#444C7D"/>
<path d="M328.711 163.64H381.857L389.283 171.08H336.139L328.711 163.64Z" fill="#444C7D"/>
<path d="M381.856 149.83H328.711V163.639H381.856V149.83Z" fill="#B5BDE6"/>
<path d="M389.286 171.08H336.141V231.568H389.286V171.08Z" fill="#B5BDE6"/>
<path d="M339.984 176.75H385.434V179.146H339.984V176.75ZM339.984 224.978H385.434V227.375H339.984V224.978ZM339.984 218.088H385.434V220.485H339.984V218.088ZM339.984 211.199H385.434V213.595H339.984V211.199ZM339.984 204.309H385.434V206.705H339.984V204.309ZM339.984 197.418H385.434V199.816H339.984V197.418ZM339.984 190.529H385.434V192.925H339.984V190.529ZM339.984 183.639H385.434V186.035H339.984V183.639Z" fill="#99A1C9"/>
<path d="M301.148 176.75H331.371V179.146H301.148V176.75ZM301.148 224.978H331.371V227.375H301.148V224.978ZM301.148 218.088H331.371V220.485H301.148V218.088ZM301.148 211.199H331.371V213.595H301.148V211.199ZM301.148 204.309H331.371V206.705H301.148V204.309ZM301.148 197.418H331.371V199.816H301.148V197.418ZM301.148 190.529H331.371V192.925H301.148V190.529ZM301.148 183.639H331.371V186.035H301.148V183.639Z" fill="#99A1C9"/>
<path d="M277.998 130.542H237.332V231.568H277.998V130.542Z" fill="#75779E"/>
<path d="M275.903 231.568H273.512V133.238H275.903V231.568ZM270.222 231.568H267.831V133.238H270.222V231.568ZM264.541 231.568H262.148V133.238H264.541V231.568ZM258.86 231.568H256.467V133.238H258.86V231.568ZM253.178 231.568H250.786V133.238H253.178V231.568ZM247.497 231.568H245.105V133.238H247.497V231.568ZM241.816 231.568H239.424V133.238H241.816V231.568Z" fill="#5E6085"/>
<path d="M296.383 130.542H277.994V231.568H296.383V130.542Z" fill="#5E6085"/>
<path d="M294.064 231.568H291.673V133.238H294.064V231.568ZM288.383 231.568H285.992V133.238H288.383V231.568ZM282.702 231.568H280.311V133.238H282.702V231.568Z" fill="#444561"/>
<path d="M211.016 152.185H184.703V231.568H211.016V152.185Z" fill="#DAD9E7"/>
<path d="M187.244 154.597H190.649V158.009H187.244V154.597ZM187.244 225.444H190.649V228.854H187.244V225.444ZM205.07 225.444H208.474V228.854H205.07V225.444ZM199.128 225.444H202.532V228.854H199.128V225.444ZM193.186 225.444H196.591V228.854H193.186V225.444ZM187.244 219.003H190.649V222.414H187.244V219.003ZM205.07 219.003H208.474V222.414H205.07V219.003ZM199.128 219.003H202.532V222.414H199.128V219.003ZM193.186 219.003H196.591V222.414H193.186V219.003ZM187.244 212.562H190.649V215.973H187.244V212.562ZM205.07 212.562H208.474V215.973H205.07V212.562ZM199.128 212.562H202.532V215.973H199.128V212.562ZM193.186 212.562H196.591V215.973H193.186V212.562ZM187.244 206.122H190.649V209.533H187.244V206.122ZM205.07 206.122H208.474V209.533H205.07V206.122ZM199.128 206.122H202.532V209.533H199.128V206.122ZM193.186 206.122H196.591V209.533H193.186V206.122ZM187.244 199.681H190.649V203.092H187.244V199.681ZM205.07 199.681H208.474V203.092H205.07V199.681ZM199.128 199.681H202.532V203.092H199.128V199.681ZM193.186 199.681H196.591V203.092H193.186V199.681ZM187.244 193.241H190.649V196.652H187.244V193.241ZM205.07 193.241H208.474V196.652H205.07V193.241ZM199.128 193.241H202.532V196.652H199.128V193.241ZM193.186 193.241H196.591V196.652H193.186V193.241ZM187.244 186.8H190.649V190.211H187.244V186.8ZM205.07 186.8H208.474V190.211H205.07V186.8ZM199.128 186.8H202.532V190.211H199.128V186.8ZM193.186 186.8H196.591V190.211H193.186V186.8ZM187.244 180.36H190.649V183.771H187.244V180.36ZM205.07 180.36H208.474V183.771H205.07V180.36ZM199.128 180.36H202.532V183.771H199.128V180.36ZM193.186 180.36H196.591V183.771H193.186V180.36ZM187.244 173.919H190.649V177.331H187.244V173.919ZM205.07 173.919H208.474V177.331H205.07V173.919ZM199.128 173.919H202.532V177.331H199.128V173.919ZM193.186 173.919H196.591V177.331H193.186V173.919ZM187.244 167.479H190.649V170.89H187.244V167.479ZM205.07 167.479H208.474V170.89H205.07V167.479ZM199.128 167.479H202.532V170.89H199.128V167.479ZM193.186 167.479H196.591V170.89H193.186V167.479ZM187.244 161.038H190.649V164.45H187.244V161.038ZM205.07 161.038H208.474V164.45H205.07V161.038ZM199.128 161.038H202.532V164.45H199.128V161.038ZM193.186 161.038H196.591V164.45H193.186V161.038ZM205.07 154.597H208.474V158.009H205.07V154.597ZM199.128 154.597H202.532V158.009H199.128V154.597ZM193.186 154.597H196.591V158.009H193.186V154.597Z" fill="#7A81B7"/>
<path d="M237.331 152.185H211.018V231.567H237.331V152.185Z" fill="#7A81B7"/>
<path d="M213.559 154.597H216.964V158.009H213.559V154.597ZM213.559 225.444H216.964V228.854H213.559V225.444ZM231.384 225.444H234.789V228.854H231.384V225.444ZM225.443 225.444H228.847V228.854H225.443V225.444ZM219.501 225.444H222.905V228.854H219.501V225.444ZM213.559 219.003H216.964V222.414H213.559V219.003ZM231.384 219.003H234.789V222.414H231.384V219.003ZM225.443 219.003H228.847V222.414H225.443V219.003ZM219.501 219.003H222.905V222.414H219.501V219.003ZM213.559 212.562H216.964V215.973H213.559V212.562ZM231.384 212.562H234.789V215.973H231.384V212.562ZM225.443 212.562H228.847V215.973H225.443V212.562ZM219.501 212.562H222.905V215.973H219.501V212.562ZM213.559 206.122H216.964V209.533H213.559V206.122ZM231.384 206.122H234.789V209.533H231.384V206.122ZM225.443 206.122H228.847V209.533H225.443V206.122ZM219.501 206.122H222.905V209.533H219.501V206.122ZM213.559 199.681H216.964V203.092H213.559V199.681ZM231.384 199.681H234.789V203.092H231.384V199.681ZM225.443 199.681H228.847V203.092H225.443V199.681ZM219.501 199.681H222.905V203.092H219.501V199.681ZM213.559 193.241H216.964V196.652H213.559V193.241ZM231.384 193.241H234.789V196.652H231.384V193.241ZM225.443 193.241H228.847V196.652H225.443V193.241ZM219.501 193.241H222.905V196.652H219.501V193.241ZM213.559 186.8H216.964V190.211H213.559V186.8ZM231.384 186.8H234.789V190.211H231.384V186.8ZM225.443 186.8H228.847V190.211H225.443V186.8ZM219.501 186.8H222.905V190.211H219.501V186.8ZM213.559 180.36H216.964V183.771H213.559V180.36ZM231.384 180.36H234.789V183.771H231.384V180.36ZM225.443 180.36H228.847V183.771H225.443V180.36ZM219.501 180.36H222.905V183.771H219.501V180.36ZM213.559 173.919H216.964V177.331H213.559V173.919ZM231.384 173.919H234.789V177.331H231.384V173.919ZM225.443 173.919H228.847V177.331H225.443V173.919ZM219.501 173.919H222.906V177.331H219.501V173.919ZM213.559 167.479H216.964V170.89H213.559V167.479ZM231.384 167.479H234.789V170.89H231.384V167.479ZM225.443 167.479H228.847V170.89H225.443V167.479ZM219.501 167.479H222.906V170.89H219.501V167.479ZM213.559 161.038H216.964V164.45H213.559V161.038ZM231.384 161.038H234.789V164.45H231.384V161.038ZM225.443 161.038H228.847V164.45H225.443V161.038ZM219.501 161.038H222.906V164.45H219.501V161.038ZM231.384 154.597H234.789V158.009H231.384V154.597ZM225.443 154.597H228.847V158.009H225.443V154.597ZM219.501 154.597H222.906V158.009H219.501V154.597Z" fill="#444C7D"/>
<path d="M211.009 147.392H188.248V152.185H211.009V147.392Z" fill="#7A81B7"/>
<path d="M233.779 147.392H211.018V152.185H233.779V147.392Z" fill="#444C7D"/>
<path d="M137.422 117.767H111.109V231.568H137.422V117.767Z" fill="#DAD9E7"/>
<path d="M119.596 120.18H123V123.591H119.596V120.18Z" fill="#7A81B7"/>
<path d="M125.531 120.18H128.936V123.591H125.531V120.18Z" fill="#7A81B7"/>
<path d="M131.479 120.18H134.883V123.591H131.479V120.18Z" fill="#7A81B7"/>
<path d="M119.596 126.621H123V130.032H119.596V126.621Z" fill="#7A81B7"/>
<path d="M125.531 126.621H128.936V130.032H125.531V126.621Z" fill="#7A81B7"/>
<path d="M131.479 126.621H134.883V130.032H131.479V126.621Z" fill="#7A81B7"/>
<path d="M113.65 126.621H117.055V130.032H113.65V126.621Z" fill="#7A81B7"/>
<path d="M119.596 133.061H123V136.472H119.596V133.061Z" fill="#7A81B7"/>
<path d="M125.531 133.061H128.936V136.472H125.531V133.061Z" fill="#7A81B7"/>
<path d="M131.479 133.061H134.883V136.472H131.479V133.061Z" fill="#7A81B7"/>
<path d="M113.65 133.061H117.055V136.472H113.65V133.061Z" fill="#7A81B7"/>
<path d="M119.596 139.501H123V142.913H119.596V139.501Z" fill="#7A81B7"/>
<path d="M125.531 139.501H128.936V142.913H125.531V139.501Z" fill="#7A81B7"/>
<path d="M131.479 139.501H134.883V142.913H131.479V139.501Z" fill="#7A81B7"/>
<path d="M113.65 139.501H117.055V142.913H113.65V139.501Z" fill="#7A81B7"/>
<path d="M119.596 145.942H123V149.353H119.596V145.942Z" fill="#7A81B7"/>
<path d="M125.531 145.942H128.936V149.353H125.531V145.942Z" fill="#7A81B7"/>
<path d="M131.479 145.942H134.883V149.353H131.479V145.942Z" fill="#7A81B7"/>
<path d="M113.65 145.942H117.055V149.353H113.65V145.942Z" fill="#7A81B7"/>
<path d="M119.596 152.383H123V155.794H119.596V152.383Z" fill="#7A81B7"/>
<path d="M125.531 152.383H128.936V155.794H125.531V152.383Z" fill="#7A81B7"/>
<path d="M131.479 152.383H134.883V155.794H131.479V152.383Z" fill="#7A81B7"/>
<path d="M113.65 152.383H117.055V155.794H113.65V152.383Z" fill="#7A81B7"/>
<path d="M119.596 158.823H123V162.234H119.596V158.823Z" fill="#7A81B7"/>
<path d="M125.531 158.823H128.936V162.234H125.531V158.823Z" fill="#7A81B7"/>
<path d="M131.479 158.823H134.883V162.234H131.479V158.823Z" fill="#7A81B7"/>
<path d="M113.65 158.823H117.055V162.234H113.65V158.823Z" fill="#7A81B7"/>
<path d="M119.596 165.264H123V168.675H119.596V165.264Z" fill="#7A81B7"/>
<path d="M125.531 165.264H128.936V168.675H125.531V165.264Z" fill="#7A81B7"/>
<path d="M131.479 165.264H134.883V168.675H131.479V165.264Z" fill="#7A81B7"/>
<path d="M113.65 165.264H117.055V168.675H113.65V165.264Z" fill="#7A81B7"/>
<path d="M119.596 171.705H123V175.115H119.596V171.705Z" fill="#7A81B7"/>
<path d="M125.531 171.705H128.936V175.115H125.531V171.705Z" fill="#7A81B7"/>
<path d="M131.479 171.705H134.883V175.115H131.479V171.705Z" fill="#7A81B7"/>
<path d="M113.65 171.705H117.055V175.115H113.65V171.705Z" fill="#7A81B7"/>
<path d="M119.596 178.145H123V181.556H119.596V178.145Z" fill="#7A81B7"/>
<path d="M125.531 178.145H128.936V181.556H125.531V178.145Z" fill="#7A81B7"/>
<path d="M131.479 178.145H134.883V181.556H131.479V178.145Z" fill="#7A81B7"/>
<path d="M113.65 178.145H117.055V181.556H113.65V178.145Z" fill="#7A81B7"/>
<path d="M119.596 184.585H123V187.996H119.596V184.585Z" fill="#7A81B7"/>
<path d="M125.531 184.585H128.936V187.996H125.531V184.585Z" fill="#7A81B7"/>
<path d="M131.479 184.585H134.883V187.996H131.479V184.585Z" fill="#7A81B7"/>
<path d="M113.65 184.585H117.055V187.996H113.65V184.585Z" fill="#7A81B7"/>
<path d="M113.65 120.18H117.055V123.591H113.65V120.18Z" fill="#7A81B7"/>
<path d="M163.737 117.767H137.424V231.568H163.737V117.767Z" fill="#7A81B7"/>
<path d="M139.965 120.18H143.37V123.591H139.965V120.18ZM139.965 191.025H143.37V194.437H139.965V191.025ZM157.79 191.025H161.195V194.437H157.79V191.025ZM151.848 191.025H155.253V194.437H151.848V191.025ZM145.907 191.025H149.311V194.437H145.907V191.025ZM139.965 184.585H143.37V187.996H139.965V184.585ZM157.79 184.585H161.195V187.996H157.79V184.585ZM151.848 184.585H155.253V187.996H151.848V184.585ZM145.907 184.585H149.311V187.996H145.907V184.585ZM139.965 178.145H143.37V181.556H139.965V178.145ZM157.79 178.145H161.195V181.556H157.79V178.145ZM151.848 178.145H155.253V181.556H151.848V178.145ZM145.907 178.145H149.311V181.556H145.907V178.145ZM139.965 171.704H143.37V175.115H139.965V171.704ZM157.79 171.704H161.195V175.115H157.79V171.704ZM151.848 171.704H155.253V175.115H151.848V171.704ZM145.907 171.704H149.311V175.115H145.907V171.704ZM139.965 165.264H143.37V168.675H139.965V165.264ZM157.79 165.264H161.195V168.675H157.79V165.264ZM151.848 165.264H155.253V168.675H151.848V165.264ZM145.907 165.264H149.311V168.675H145.907V165.264ZM139.965 158.822H143.37V162.234H139.965V158.822ZM157.79 158.822H161.195V162.234H157.79V158.822ZM151.848 158.822H155.253V162.234H151.848V158.822ZM145.907 158.822H149.311V162.234H145.907V158.822ZM139.965 152.383H143.37V155.794H139.965V152.383ZM157.79 152.383H161.195V155.794H157.79V152.383ZM151.848 152.383H155.253V155.794H151.848V152.383ZM145.907 152.383H149.311V155.794H145.907V152.383ZM139.965 145.942H143.37V149.353H139.965V145.942ZM157.79 145.942H161.195V149.353H157.79V145.942ZM151.848 145.942H155.253V149.353H151.848V145.942ZM145.907 145.942H149.311V149.353H145.907V145.942ZM139.965 139.501H143.37V142.912H139.965V139.501ZM157.79 139.501H161.195V142.912H157.79V139.501ZM151.848 139.501H155.253V142.912H151.848V139.501ZM145.907 139.501H149.311V142.912H145.907V139.501ZM139.965 133.061H143.37V136.472H139.965V133.061ZM157.79 133.061H161.195V136.472H157.79V133.061ZM151.848 133.061H155.253V136.472H151.848V133.061ZM145.907 133.061H149.311V136.472H145.907V133.061ZM139.965 126.62H143.37V130.031H139.965V126.62ZM157.79 126.62H161.195V130.031H157.79V126.62ZM151.848 126.62H155.253V130.031H151.848V126.62ZM145.907 126.62H149.311V130.031H145.907V126.62ZM157.79 120.18H161.195V123.591H157.79V120.18ZM151.848 120.18H155.253V123.591H151.848V120.18ZM145.907 120.18H149.311V123.591H145.907V120.18Z" fill="#444C7D"/>
<path d="M137.426 112.974H114.664V117.767H137.426V112.974Z" fill="#7A81B7"/>
<path d="M160.186 112.974H137.424V117.767H160.186V112.974Z" fill="#444C7D"/>
<path d="M165.529 138.405H137.422V231.568H165.529V138.405Z" fill="#D8DEFF"/>
<path d="M140.785 140.951H144.972V145.144H140.785V140.951ZM140.785 224.828H144.972V229.022H140.785V224.828ZM157.979 224.828H162.165V229.022H157.979V224.828ZM149.382 224.828H153.568V229.022H149.382V224.828ZM140.785 216.44H144.972V220.635H140.785V216.44ZM157.979 216.44H162.165V220.635H157.979V216.44ZM149.382 216.44H153.568V220.635H149.382V216.44ZM140.785 208.052H144.972V212.246H140.785V208.052ZM157.979 208.052H162.165V212.246H157.979V208.052ZM149.382 208.052H153.568V212.246H149.382V208.052ZM140.785 199.665H144.972V203.859H140.785V199.665ZM157.979 199.665H162.165V203.859H157.979V199.665ZM149.382 199.665H153.568V203.859H149.382V199.665ZM140.785 191.277H144.972V195.471H140.785V191.277ZM157.979 191.277H162.165V195.471H157.979V191.277ZM149.382 191.277H153.568V195.471H149.382V191.277ZM140.785 182.89H144.972V187.084H140.785V182.89ZM157.979 182.89H162.164V187.084H157.979V182.89ZM149.382 182.89H153.568V187.084H149.382V182.89ZM140.785 174.502H144.972V178.695H140.785V174.502ZM157.979 174.502H162.164V178.695H157.979V174.502ZM149.382 174.502H153.568V178.695H149.382V174.502ZM140.785 166.114H144.972V170.308H140.785V166.114ZM157.979 166.114H162.164V170.308H157.979V166.114ZM149.382 166.114H153.568V170.308H149.382V166.114ZM140.785 157.727H144.972V161.921H140.785V157.727ZM157.979 157.727H162.164V161.921H157.979V157.727ZM149.382 157.727H153.568V161.921H149.382V157.727ZM140.785 149.34H144.972V153.533H140.785V149.34ZM157.979 149.34H162.164V153.533H157.979V149.34ZM149.382 149.34H153.568V153.533H149.382V149.34ZM157.979 140.951H162.164V145.144H157.979V140.951ZM149.382 140.951H153.568V145.144H149.382V140.951Z" fill="#99A1C9"/>
<path d="M184.704 138.405H165.529V231.568H184.704V138.405Z" fill="#B5BDE6"/>
<path d="M168.721 140.951H172.907V145.144H168.721V140.951ZM168.721 224.828H172.907V229.022H168.721V224.828ZM177.317 224.828H181.503V229.022H177.317V224.828ZM168.721 216.44H172.907V220.635H168.721V216.44ZM177.317 216.44H181.503V220.635H177.317V216.44ZM168.721 208.052H172.907V212.246H168.721V208.052ZM177.317 208.052H181.503V212.246H177.317V208.052ZM168.721 199.665H172.907V203.859H168.721V199.665ZM177.317 199.665H181.503V203.859H177.317V199.665ZM168.721 191.277H172.907V195.471H168.721V191.277ZM177.317 191.277H181.503V195.471H177.317V191.277ZM168.721 182.89H172.907V187.084H168.721V182.89ZM177.317 182.89H181.503V187.084H177.317V182.89ZM168.721 174.502H172.907V178.695H168.721V174.502ZM177.317 174.502H181.503V178.695H177.317V174.502ZM168.721 166.114H172.907V170.308H168.721V166.114ZM177.317 166.114H181.503V170.308H177.317V166.114ZM168.721 157.727H172.907V161.921H168.721V157.727ZM177.317 157.727H181.503V161.921H177.317V157.727ZM168.721 149.34H172.907V153.533H168.721V149.34ZM177.317 149.34H181.503V153.533H177.317V149.34ZM177.317 140.951H181.503V145.144H177.317V140.951Z" fill="#99A1C9"/>
<path d="M296.387 183.194C302.058 183.194 306.654 187.798 306.654 193.478C306.654 194.181 306.584 194.866 306.449 195.528C310.9 196.654 314.194 200.692 314.194 205.5C314.194 211.18 309.598 215.786 303.927 215.786C300.947 215.786 298.263 214.512 296.387 212.48C294.512 214.512 291.829 215.786 288.848 215.786C283.178 215.786 278.582 211.18 278.582 205.5C278.582 200.692 281.875 196.654 286.325 195.528C286.192 194.866 286.122 194.181 286.122 193.478C286.122 187.798 290.718 183.194 296.387 183.194Z" fill="#E87F23"/>
<path d="M42.725 149.011C52.3784 149.011 60.2042 156.851 60.2042 166.522C60.2042 176.193 52.3784 184.034 42.725 184.034C33.0716 184.034 25.2461 176.193 25.2461 166.522C25.2461 156.852 33.0717 149.011 42.725 149.011Z" fill="#FCA941"/>
<path d="M43.3633 164.879C43.3633 164.525 43.076 164.237 42.722 164.237C42.368 164.237 42.0808 164.525 42.0808 164.879V173.453L37.2023 168.566C36.9508 168.314 36.543 168.314 36.2919 168.566C36.0407 168.817 36.0407 169.226 36.2919 169.478L42.0808 175.276V199.821C42.0808 200.175 42.3679 200.463 42.722 200.463C43.076 200.463 43.3633 200.175 43.3633 199.821V175.276L49.1523 169.478C49.4037 169.226 49.4037 168.817 49.1523 168.566C48.901 168.314 48.4933 168.314 48.242 168.566L43.3633 173.453V164.879ZM43.3633 174.951V175.064C43.3664 175.026 43.3664 174.989 43.3633 174.951ZM42.0806 175.062V174.953C42.0774 174.989 42.0774 175.026 42.0806 175.062Z" fill="#986C5F"/>
<path d="M84.6706 149.011C94.324 149.011 102.15 156.851 102.15 166.522C102.15 176.193 94.324 184.034 84.6706 184.034C75.0174 184.034 67.1914 176.193 67.1914 166.522C67.1914 156.852 75.0175 149.011 84.6706 149.011Z" fill="#FCA941"/>
<path d="M85.3088 164.879C85.3088 164.525 85.0216 164.237 84.6676 164.237C84.3136 164.237 84.0264 164.525 84.0264 164.879V173.453L79.1476 168.566C78.8963 168.314 78.4886 168.314 78.2375 168.566C77.9859 168.817 77.9859 169.226 78.2375 169.478L84.0264 175.276L84.026 199.821C84.026 200.175 84.3133 200.463 84.6673 200.463C85.0216 200.463 85.3085 200.175 85.3085 199.821L85.3088 175.276L91.0978 169.478C91.3489 169.226 91.3489 168.817 91.0978 168.566C90.8466 168.314 90.4388 168.314 90.1874 168.566L85.309 173.453V164.879H85.3088ZM85.3088 174.951V175.064C85.3119 175.026 85.3119 174.989 85.3088 174.951ZM84.0262 175.062V174.953C84.0231 174.989 84.0231 175.026 84.0262 175.062Z" fill="#986C5F"/>
<path d="M113.009 182.482C118.679 182.482 123.275 187.086 123.275 192.767C123.275 193.469 123.205 194.155 123.071 194.816C127.521 195.943 130.815 199.98 130.815 204.789C130.815 210.469 126.219 215.074 120.548 215.074C117.568 215.074 114.884 213.8 113.009 211.768C111.133 213.8 108.45 215.074 105.469 215.074C99.799 215.074 95.2031 210.469 95.2031 204.789C95.2031 199.98 98.4963 195.943 102.947 194.816C102.813 194.155 102.743 193.469 102.743 192.767C102.743 187.086 107.339 182.482 113.009 182.482Z" fill="#FCA941"/>
<path d="M177.744 179.486C183.414 179.486 188.01 184.091 188.01 189.771C188.01 190.473 187.939 191.159 187.806 191.82C192.256 192.947 195.55 196.984 195.55 201.792C195.55 207.473 190.953 212.078 185.283 212.078C182.302 212.078 179.619 210.804 177.744 208.773C175.868 210.804 173.184 212.078 170.204 212.078C164.534 212.078 159.938 207.473 159.938 201.792C159.938 196.984 163.231 192.947 167.681 191.82C167.548 191.159 167.477 190.473 167.477 189.771C167.477 184.091 172.074 179.486 177.744 179.486Z" fill="#E87F23"/>
<path d="M13.5445 189.731C14.1909 189.731 14.8126 189.837 15.3936 190.03C16.2502 188.078 18.1968 186.715 20.4614 186.715C21.9662 186.715 23.3302 187.317 24.3276 188.293C24.7409 184.202 28.1895 181.008 32.3827 181.008C36.7321 181.008 40.2799 184.444 40.4709 188.755C40.5007 188.753 40.531 188.753 40.5608 188.753C43.1106 188.753 45.2035 190.711 45.424 193.209C46.0584 192.862 46.7859 192.666 47.5591 192.666C50.0308 192.666 52.0345 194.674 52.0345 197.15C34.6726 197.15 24.5271 197.15 7.89244 197.15C7.75786 196.657 7.68555 196.137 7.68555 195.601C7.68555 192.359 10.3087 189.731 13.5445 189.731Z" fill="#69381A"/>
<path d="M367.554 183.34C377.207 183.34 385.032 191.18 385.032 200.851C385.032 210.522 377.207 218.362 367.554 218.362C357.9 218.362 350.074 210.522 350.074 200.851C350.074 191.18 357.901 183.34 367.554 183.34Z" fill="#FCA941"/>
</g>
<defs>
<linearGradient id="paint0_linear_177_797" x1="0" y1="0" x2="227.12" y2="304.857" gradientUnits="userSpaceOnUse">
<stop stop-color="#AD37E0"/>
<stop offset="1" stop-color="#EE2B3B"/>
</linearGradient>
<clipPath id="clip0_177_797">
<rect width="388" height="185" rx="40" fill="white"/>
</clipPath>
</defs>
</svg>
