<svg width="16" height="16" viewBox="0 0 16 16" fill="none" xmlns="http://www.w3.org/2000/svg">
<path d="M11.5625 1.88232H5.0625C4.41603 1.88232 3.79605 2.12403 3.33893 2.55426C2.88181 2.98449 2.625 3.568 2.625 4.17644V7.23527H1V8.76468H2.625V11.8235C2.625 12.4319 2.88181 13.0155 3.33893 13.4457C3.79605 13.8759 4.41603 14.1176 5.0625 14.1176H11.5625C12.209 14.1176 12.829 13.8759 13.2861 13.4457C13.7432 13.0155 14 12.4319 14 11.8235V4.17644C14 3.568 13.7432 2.98449 13.2861 2.55426C12.829 2.12403 12.209 1.88232 11.5625 1.88232ZM12.375 11.8235C12.375 12.0263 12.2894 12.2208 12.137 12.3642C11.9847 12.5076 11.778 12.5882 11.5625 12.5882H5.0625C4.84701 12.5882 4.64035 12.5076 4.48798 12.3642C4.3356 12.2208 4.25 12.0263 4.25 11.8235V8.76468H7.97531L6.35031 10.2941L7.5 11.3761L10.5123 8.541C10.5879 8.46998 10.6478 8.38564 10.6887 8.29281C10.7296 8.19997 10.7506 8.10047 10.7506 7.99997C10.7506 7.89948 10.7296 7.79997 10.6887 7.70713C10.6478 7.6143 10.5879 7.52996 10.5123 7.45894L7.5 4.62379L6.35031 5.70585L7.97531 7.23527H4.25V4.17644C4.25 3.97363 4.3356 3.77912 4.48798 3.63571C4.64035 3.4923 4.84701 3.41174 5.0625 3.41174H11.5625C11.778 3.41174 11.9847 3.4923 12.137 3.63571C12.2894 3.77912 12.375 3.97363 12.375 4.17644V11.8235Z" fill="url(#paint0_linear_177_763)"/>
<defs>
<linearGradient id="paint0_linear_177_763" x1="1" y1="1.88232" x2="3.7317" y2="16.0917" gradientUnits="userSpaceOnUse">
<stop stop-color="#AD37E0"/>
<stop offset="1" stop-color="#EE2B3B"/>
</linearGradient>
</defs>
</svg>
