<svg width="167" height="188" viewBox="0 0 167 188" fill="none" xmlns="http://www.w3.org/2000/svg">
<g filter="url(#filter0_d_189_859)">
<path d="M23.1768 89.063L58.9726 118.044L80.465 79.9268L37.0308 70.9404L23.1768 89.063Z" fill="url(#paint0_linear_189_859)"/>
<path d="M107.723 96.0273L107.798 20.7663C107.798 17.621 105.252 15 102.032 15H34.5588C31.4135 15 28.7925 17.5461 28.7925 20.7663L28.7176 96.0273C28.7176 97.1506 27.819 98.1242 26.6208 98.1242H17.4097C15.1631 98.1242 14.1147 100.97 15.912 102.393L65.7865 142.158C67.2093 143.281 69.1564 143.281 70.5793 142.158L120.454 102.393C122.251 100.97 121.203 98.1242 118.956 98.1242H109.745C108.622 98.1242 107.723 97.1506 107.723 96.0273Z" fill="#1A1A1A"/>
<path d="M105.926 101.194C104.877 101.194 104.054 100.371 104.054 99.3223L104.129 21.2904C104.129 19.6429 102.781 18.2949 101.133 18.2949H35.4576C33.81 18.2949 32.4621 19.6429 32.4621 21.2904L32.3872 99.3223C32.3872 100.371 31.5635 101.194 30.5151 101.194H21.0793C20.7049 101.194 20.5551 101.644 20.8547 101.868L66.236 137.29C67.4342 138.188 69.0068 138.188 70.205 137.29L115.586 101.868C115.886 101.644 115.736 101.194 115.362 101.194H105.926Z" fill="#252525"/>
<path d="M107.722 68.1694H28.7918V96.0273C28.7918 97.1506 27.8932 98.1241 26.695 98.1241H17.484C15.2374 98.1241 14.1889 100.97 15.9862 102.393L65.8607 142.157C67.2836 143.281 69.2306 143.281 70.6535 142.157L120.528 102.393C122.325 100.97 121.277 98.1241 119.03 98.1241H109.744C108.621 98.1241 107.647 97.2254 107.647 96.0273V68.1694H107.722Z" fill="url(#paint1_linear_189_859)"/>
<path d="M113.338 80.6007L23.1745 89.0629L19.2056 34.4705L116.483 24.3608L113.338 80.6007Z" fill="url(#paint2_linear_189_859)"/>
<path d="M68.2583 127.629C78.9288 127.629 87.579 118.979 87.579 108.309C87.579 97.638 78.9288 88.9878 68.2583 88.9878C57.5877 88.9878 48.9375 97.638 48.9375 108.309C48.9375 118.979 57.5877 127.629 68.2583 127.629Z" fill="white"/>
<path d="M39.1224 57.1554V35.9201L46.2204 35.2367C47.4904 35.1145 48.5343 35.2587 49.3519 35.6693C50.1696 36.0625 50.7785 36.703 51.1786 37.5908C51.5788 38.4611 51.7788 39.5517 51.7788 40.8625C51.7788 42.5054 51.5092 43.7897 50.9699 44.7155C50.4306 45.6239 49.6999 46.2884 48.7778 46.7093C47.8558 47.1301 46.8206 47.3958 45.6724 47.5064L43.7935 47.6873V56.7057L39.1224 57.1554ZM43.7935 44.4102L45.3593 44.2595C45.9334 44.2042 46.3683 44.0574 46.6641 43.8192C46.9598 43.581 47.1512 43.248 47.2382 42.8202C47.3426 42.3907 47.3947 41.8526 47.3947 41.2059C47.3947 40.6641 47.3513 40.1964 47.2643 39.8028C47.1947 39.39 47.012 39.0755 46.7163 38.8593C46.4205 38.6431 45.9595 38.5651 45.3332 38.6254L43.7935 38.7737V44.4102ZM54.0306 55.7201V34.4848L59.85 33.9246C61.2765 33.7872 62.5117 33.8256 63.5556 34.0397C64.5994 34.2538 65.4084 34.744 65.9825 35.5101C66.574 36.2572 66.8697 37.3735 66.8697 38.8591C66.8697 39.733 66.8002 40.5174 66.661 41.2124C66.5218 41.9075 66.2608 42.5268 65.8781 43.0705C65.5128 43.5951 64.9821 44.0569 64.2863 44.456L67.1829 54.4539L62.3552 54.9187L60.0326 45.6257L58.7018 45.7539V55.2704L54.0306 55.7201ZM58.7018 43.0536L60.0066 42.928C60.6676 42.8643 61.1809 42.7013 61.5462 42.4389C61.9115 42.1591 62.1638 41.794 62.303 41.3436C62.4596 40.8741 62.5378 40.3248 62.5378 39.6956C62.5378 38.7868 62.3726 38.0948 62.042 37.6198C61.7115 37.1448 61.1026 36.95 60.2153 37.0354L58.7018 37.1811V43.0536ZM69.704 54.2112V32.9759L74.3751 32.5262V53.7615L69.704 54.2112ZM83.5812 53.1898C81.9807 53.3439 80.7107 53.1778 79.7712 52.6915C78.8492 52.186 78.1968 51.4273 77.8141 50.4155C77.4313 49.3862 77.24 48.155 77.24 46.7219V39.0667C77.24 37.5985 77.4313 36.3217 77.8141 35.2362C78.1968 34.1332 78.8492 33.249 79.7712 32.5834C80.7107 31.9162 81.9807 31.5056 83.5812 31.3515C85.147 31.2008 86.3648 31.3457 87.2346 31.7863C88.1219 32.2077 88.7482 32.864 89.1135 33.7551C89.4789 34.6463 89.6615 35.6948 89.6615 36.9008V38.7359L85.0948 39.1756V37.052C85.0948 36.6326 85.0687 36.2331 85.0165 35.8536C84.9817 35.4725 84.8599 35.1696 84.6512 34.945C84.4424 34.7029 84.0858 34.6062 83.5812 34.6548C83.0941 34.7017 82.7288 34.8679 82.4852 35.1535C82.259 35.4375 82.1112 35.7838 82.0416 36.1925C81.9894 36.582 81.9633 36.9952 81.9633 37.4322V47.4206C81.9633 47.8925 81.9981 48.3261 82.0677 48.7214C82.1547 49.0975 82.3112 49.3971 82.5374 49.62C82.781 49.8237 83.1289 49.9039 83.5812 49.8603C84.0684 49.8134 84.4163 49.6576 84.6251 49.3928C84.8338 49.1105 84.9643 48.7659 85.0165 48.3589C85.0687 47.9519 85.0948 47.5386 85.0948 47.1192V44.8908L89.6615 44.4511V46.2863C89.6615 47.4922 89.4789 48.5934 89.1135 49.5899C88.7656 50.5671 88.148 51.3781 87.2607 52.0228C86.3909 52.6484 85.1644 53.0374 83.5812 53.1898ZM92.2314 52.0424V30.8071L101.73 29.8926V33.091L96.9025 33.5558V38.8253L100.582 38.4711V41.7219L96.9025 42.0761V48.4205L101.782 47.9507V51.1229L92.2314 52.0424Z" fill="white"/>
<path d="M36.9232 82.0408V59.3749L42.6332 58.8252C44.6015 58.6357 46.1335 58.7401 47.2291 59.1383C48.3246 59.5178 49.0953 60.2178 49.5409 61.2383C49.9866 62.24 50.2094 63.5804 50.2094 65.2593V73.4862C50.2094 75.1838 49.9866 76.5951 49.5409 77.72C49.0953 78.8262 48.3246 79.6839 47.2291 80.2931C46.152 80.9004 44.6387 81.298 42.6889 81.4857L36.9232 82.0408ZM41.909 78.0909L42.6889 78.0158C43.4502 77.9426 43.998 77.7779 44.3323 77.5218C44.6665 77.2658 44.8708 76.9103 44.945 76.4555C45.0379 75.9988 45.0843 75.4347 45.0843 74.7631V64.8853C45.0843 64.2137 45.0286 63.6781 44.9172 63.2784C44.8243 62.8769 44.6108 62.599 44.2766 62.4446C43.9423 62.2903 43.4038 62.2488 42.661 62.3203L41.909 62.3927V78.0909ZM53.2437 80.4695V57.8037L59.4551 57.2057C60.9778 57.0591 62.2962 57.1001 63.4103 57.3286C64.5245 57.5571 65.3879 58.0803 66.0007 58.8981C66.6321 59.6954 66.9477 60.8869 66.9477 62.4726C66.9477 63.4054 66.8735 64.2427 66.7249 64.9845C66.5764 65.7264 66.2978 66.3874 65.8893 66.9678C65.4994 67.5276 64.933 68.0206 64.1902 68.4465L67.282 79.118L62.1291 79.6141L59.6501 69.6951L58.2295 69.8319V79.9895L53.2437 80.4695ZM58.2295 66.9497L59.6222 66.8156C60.3278 66.7477 60.8756 66.5737 61.2656 66.2936C61.6555 65.9949 61.9248 65.6052 62.0733 65.1245C62.2405 64.6234 62.324 64.0371 62.324 63.3655C62.324 62.3954 62.1476 61.6569 61.7948 61.1498C61.442 60.6428 60.7921 60.4349 59.845 60.5261L58.2295 60.6816V66.9497ZM76.1895 78.5962C74.4997 78.7589 73.1628 78.5892 72.1786 78.0869C71.1944 77.5847 70.4888 76.7945 70.0617 75.7164C69.6346 74.6382 69.4211 73.3249 69.4211 71.7765V63.3538C69.4211 61.7868 69.6346 60.4324 70.0617 59.2906C70.4888 58.1489 71.1944 57.2415 72.1786 56.5684C73.1628 55.8767 74.4997 55.4495 76.1895 55.2868C77.8979 55.1223 79.2442 55.2912 80.2283 55.7934C81.2311 56.2752 81.946 57.0458 82.3731 58.1054C82.8001 59.1649 83.0137 60.4782 83.0137 62.0452V70.4679C83.0137 72.0163 82.8001 73.3707 82.3731 74.5311C81.946 75.6915 81.2311 76.6185 80.2283 77.312C79.2442 78.0037 77.8979 78.4318 76.1895 78.5962ZM76.1895 75.0425C76.7095 74.9924 77.0901 74.8252 77.3315 74.5408C77.5729 74.2563 77.7308 73.9054 77.805 73.4878C77.8793 73.0702 77.9165 72.6469 77.9165 72.2179V61.3047C77.9165 60.857 77.8793 60.4408 77.805 60.0562C77.7308 59.6529 77.5729 59.3323 77.3315 59.0944C77.0901 58.8565 76.7095 58.7625 76.1895 58.8126C75.7067 58.8591 75.3446 59.0245 75.1032 59.3089C74.8618 59.5934 74.704 59.9443 74.6297 60.3619C74.5554 60.7608 74.5183 61.1841 74.5183 61.6318V72.545C74.5183 72.9741 74.5462 73.3911 74.6019 73.7962C74.6761 74.1994 74.8247 74.5209 75.0475 74.7606C75.2889 74.9986 75.6696 75.0925 76.1895 75.0425ZM86.048 77.3113V54.6455L93.6242 53.9161C94.9798 53.7856 96.0939 53.9395 96.9667 54.3778C97.8394 54.7975 98.4893 55.4811 98.9164 56.4287C99.3435 57.3577 99.5571 58.5217 99.5571 59.9208C99.5571 61.6744 99.2692 63.0453 98.6936 64.0334C98.1179 65.003 97.338 65.7123 96.3539 66.1615C95.3697 66.6107 94.2648 66.8943 93.0393 67.0123L91.0338 67.2054V76.8313L86.048 77.3113ZM91.0338 63.7075L92.705 63.5466C93.3178 63.4876 93.7821 63.331 94.0977 63.0768C94.4134 62.8225 94.6177 62.4671 94.7105 62.0104C94.8219 61.552 94.8776 60.9776 94.8776 60.2874C94.8776 59.7091 94.8312 59.2099 94.7384 58.7897C94.6641 58.3492 94.4691 58.0135 94.1534 57.7827C93.8378 57.5519 93.3457 57.4687 92.6772 57.5331L91.0338 57.6913V63.7075Z" fill="white"/>
<path d="M62.1174 108.887C61.2939 108.966 60.6694 108.882 60.2437 108.635C59.8273 108.377 59.5451 107.991 59.3971 107.475C59.249 106.96 59.175 106.353 59.175 105.656L61.4096 105.441C61.4096 105.869 61.4327 106.215 61.479 106.48C61.5252 106.745 61.6085 106.933 61.7288 107.042C61.8583 107.141 62.0388 107.175 62.2701 107.143C62.5107 107.111 62.6818 106.996 62.7836 106.801C62.8854 106.605 62.9456 106.334 62.9641 105.989C62.9918 105.633 63.0057 105.208 63.0057 104.716C63.0057 104.344 62.9826 104.016 62.9363 103.732C62.8993 103.448 62.816 103.228 62.6865 103.073C62.5662 102.908 62.3811 102.838 62.1313 102.862C61.9 102.884 61.7103 102.986 61.5623 103.168C61.4142 103.349 61.3078 103.62 61.243 103.979L59.2444 104.172L59.4526 97.6399L64.699 97.1349V99.0869L61.3124 99.413L61.1875 101.754C61.28 101.615 61.4558 101.486 61.7149 101.368C61.974 101.241 62.2516 101.149 62.5477 101.093C63.1214 100.972 63.6025 101.033 63.9911 101.274C64.389 101.506 64.6851 101.891 64.8794 102.43C65.083 102.968 65.1847 103.642 65.1847 104.45C65.1847 105.054 65.1477 105.616 65.0737 106.134C64.9997 106.643 64.8563 107.094 64.6435 107.486C64.4306 107.869 64.1207 108.183 63.7135 108.426C63.3064 108.67 62.7744 108.823 62.1174 108.887ZM69.4566 108.18C68.7812 108.245 68.2168 108.165 67.7634 107.939C67.31 107.704 66.9676 107.355 66.7363 106.894C66.505 106.433 66.3893 105.882 66.3893 105.241V100.123C66.3893 99.4633 66.4957 98.8768 66.7085 98.3636C66.9306 97.8403 67.2683 97.4173 67.7217 97.0948C68.1751 96.7723 68.7534 96.5772 69.4566 96.5095C70.1598 96.4418 70.7335 96.526 71.1777 96.7621C71.6311 96.9973 71.9642 97.3557 72.177 97.8371C72.399 98.3084 72.5101 98.8741 72.5101 99.5341V104.651C72.5101 105.283 72.3944 105.857 72.1631 106.372C71.9318 106.878 71.5894 107.292 71.136 107.614C70.6826 107.927 70.1228 108.116 69.4566 108.18ZM69.4566 106.103C69.6787 106.081 69.836 105.996 69.9285 105.848C70.0303 105.689 70.0905 105.516 70.109 105.329C70.1367 105.131 70.1506 104.962 70.1506 104.823V99.817C70.1506 99.659 70.1413 99.4832 70.1228 99.2898C70.1043 99.0871 70.0442 98.9163 69.9424 98.7773C69.8499 98.6282 69.688 98.5648 69.4566 98.5871C69.2253 98.6093 69.0588 98.7044 68.957 98.8722C68.8644 99.0298 68.8089 99.2118 68.7904 99.4181C68.7719 99.6151 68.7627 99.7926 68.7627 99.9506V104.956C68.7627 105.096 68.7765 105.262 68.8043 105.454C68.8321 105.638 68.8922 105.799 68.9847 105.939C69.0865 106.068 69.2438 106.123 69.4566 106.103Z" fill="#252525"/>
<path d="M76.0586 101.697L77.863 94.9306L78.6074 94.8589L76.8111 101.624L76.0586 101.697ZM75.2818 98.6827C74.834 98.7258 74.5104 98.6188 74.3108 98.3616C74.1112 98.1044 74.0114 97.7428 74.0114 97.2767V96.7646C74.0114 96.2823 74.1085 95.9017 74.3027 95.6229C74.4969 95.3441 74.8232 95.1826 75.2818 95.1384C75.7403 95.0943 76.0667 95.1875 76.2609 95.4181C76.4551 95.6487 76.5522 96.0025 76.5522 96.4794V97.0565C76.5522 97.528 76.4524 97.9061 76.2528 98.1909C76.0586 98.4751 75.7349 98.6391 75.2818 98.6827ZM75.2818 98.0242C75.422 98.0107 75.5245 97.9629 75.5893 97.8808C75.6594 97.7928 75.7052 97.6827 75.7268 97.5506C75.7538 97.4179 75.7673 97.2784 75.7673 97.1321V96.5549C75.7673 96.3327 75.7376 96.1459 75.6783 95.9945C75.6243 95.8425 75.4922 95.7766 75.2818 95.7969C75.0714 95.8171 74.9392 95.9112 74.8853 96.0789C74.8313 96.2413 74.8044 96.4336 74.8044 96.6558V97.2329C74.8044 97.3792 74.8152 97.5164 74.8367 97.6444C74.8637 97.7664 74.9096 97.865 74.9743 97.94C75.0444 98.0092 75.1469 98.0372 75.2818 98.0242ZM79.368 101.419C78.9203 101.462 78.5966 101.358 78.397 101.106C78.2028 100.848 78.1057 100.484 78.1057 100.012V99.5001C78.1057 99.0232 78.2001 98.6456 78.389 98.3673C78.5832 98.0831 78.9095 97.9189 79.368 97.8747C79.832 97.8301 80.1583 97.926 80.3471 98.1625C80.5413 98.3931 80.6384 98.7469 80.6384 99.2238V99.7928C80.6384 100.27 80.5386 100.651 80.339 100.935C80.1448 101.214 79.8212 101.375 79.368 101.419ZM79.368 100.761C79.5083 100.747 79.6135 100.699 79.6836 100.616C79.7537 100.528 79.7996 100.418 79.8212 100.286C79.8427 100.154 79.8535 100.017 79.8535 99.8765V99.2912C79.8535 99.069 79.8239 98.8822 79.7645 98.7307C79.7106 98.5788 79.5784 98.5129 79.368 98.5332C79.1577 98.5534 79.0255 98.6474 78.9715 98.8152C78.9176 98.9776 78.8906 99.1698 78.8906 99.392V99.9692C78.8906 100.116 78.9014 100.253 78.923 100.381C78.95 100.503 78.9958 100.601 79.0606 100.676C79.1307 100.745 79.2332 100.774 79.368 100.761Z" fill="#252525"/>
<path d="M61.6813 121.95C60.8388 122.031 60.1659 121.931 59.6625 121.649C59.1591 121.367 58.7995 120.932 58.5837 120.344C58.368 119.745 58.2601 119.033 58.2601 118.207V113.454C58.2601 112.629 58.368 111.911 58.5837 111.302C58.8098 110.682 59.1693 110.193 59.6625 109.836C60.1659 109.468 60.8388 109.243 61.6813 109.162C62.5237 109.081 63.1915 109.176 63.6847 109.449C64.1778 109.721 64.5323 110.141 64.748 110.709C64.974 111.275 65.0871 111.971 65.0871 112.797V117.566C65.0871 118.381 64.974 119.104 64.748 119.735C64.5323 120.364 64.1778 120.873 63.6847 121.261C63.1915 121.639 62.5237 121.869 61.6813 121.95ZM61.6813 120.572C62.1436 120.527 62.4929 120.401 62.7292 120.192C62.9655 119.973 63.1248 119.69 63.2069 119.341C63.2891 118.982 63.3302 118.571 63.3302 118.106V112.61C63.3302 112.146 63.2891 111.752 63.2069 111.43C63.1248 111.097 62.9655 110.855 62.7292 110.702C62.4929 110.539 62.1436 110.48 61.6813 110.524C61.219 110.569 60.8645 110.696 60.618 110.905C60.3817 111.103 60.2224 111.377 60.1402 111.725C60.058 112.063 60.0169 112.465 60.0169 112.929V118.425C60.0169 118.89 60.058 119.293 60.1402 119.636C60.2224 119.969 60.3817 120.222 60.618 120.396C60.8645 120.558 61.219 120.616 61.6813 120.572ZM66.7986 121.318V108.777L71.6221 108.313V109.567L68.54 109.864V114.044L70.9287 113.814V115.052L68.54 115.282V121.15L66.7986 121.318ZM72.8184 120.738V108.198L77.6419 107.733V108.988L74.5598 109.284V113.464L76.9485 113.234V114.473L74.5598 114.703V120.571L72.8184 120.738Z" fill="#252525"/>
</g>
<defs>
<filter id="filter0_d_189_859" x="0" y="0" width="166.44" height="188" filterUnits="userSpaceOnUse" color-interpolation-filters="sRGB">
<feFlood flood-opacity="0" result="BackgroundImageFix"/>
<feColorMatrix in="SourceAlpha" type="matrix" values="0 0 0 0 0 0 0 0 0 0 0 0 0 0 0 0 0 0 127 0" result="hardAlpha"/>
<feOffset dx="15" dy="15"/>
<feGaussianBlur stdDeviation="15"/>
<feComposite in2="hardAlpha" operator="out"/>
<feColorMatrix type="matrix" values="0 0 0 0 0 0 0 0 0 0 0 0 0 0 0 0 0 0 0.5 0"/>
<feBlend mode="normal" in2="BackgroundImageFix" result="effect1_dropShadow_189_859"/>
<feBlend mode="normal" in="SourceGraphic" in2="effect1_dropShadow_189_859" result="shape"/>
</filter>
<linearGradient id="paint0_linear_189_859" x1="51.8184" y1="70.9556" x2="51.8184" y2="118.049" gradientUnits="userSpaceOnUse">
<stop stop-color="#0A558A"/>
<stop offset="1" stop-color="#0E267B"/>
</linearGradient>
<linearGradient id="paint1_linear_189_859" x1="66.2138" y1="82.3562" x2="67.1535" y2="90.8128" gradientUnits="userSpaceOnUse">
<stop/>
<stop offset="1" stop-opacity="0"/>
</linearGradient>
<linearGradient id="paint2_linear_189_859" x1="19.2056" y1="24.3608" x2="102.044" y2="104.069" gradientUnits="userSpaceOnUse">
<stop stop-color="#AD37E0"/>
<stop offset="1" stop-color="#EE2B3B"/>
</linearGradient>
</defs>
</svg>
