<svg width="24" height="24" viewBox="0 0 24 24" fill="none" xmlns="http://www.w3.org/2000/svg">
<path d="M16.9565 21.176C16.7813 21.1755 16.6092 21.1298 16.4568 21.0435L11.9291 18.4946L7.36059 20.9619C7.19191 21.0527 7.00104 21.0942 6.80986 21.0816C6.61868 21.069 6.43493 21.0028 6.27965 20.8905C6.12144 20.7772 5.99896 20.621 5.92668 20.4403C5.85441 20.2597 5.83534 20.0621 5.87175 19.871L6.78953 14.4979L3.10821 10.6848C2.98064 10.5519 2.89146 10.3869 2.85017 10.2074C2.80887 10.0278 2.81699 9.84048 2.87366 9.66521C2.92789 9.47831 3.03449 9.31084 3.18085 9.18257C3.32722 9.0543 3.50724 8.97059 3.69966 8.94132L8.79845 8.20724L11.1337 3.37454C11.2214 3.20518 11.3548 3.06381 11.5189 2.96648C11.6829 2.86916 11.871 2.81979 12.0617 2.82398C12.255 2.82543 12.4439 2.8818 12.6064 2.98649C12.7689 3.09119 12.8983 3.23991 12.9795 3.41532L15.2229 8.299L20.3217 9.12484C20.5064 9.15499 20.6793 9.23539 20.8213 9.35722C20.9634 9.47905 21.0692 9.63762 21.1271 9.81556C21.185 9.9935 21.1928 10.1839 21.1497 10.366C21.1066 10.5481 21.0142 10.7148 20.8826 10.8479L17.8743 13.9066C17.6832 14.0965 17.4248 14.203 17.1554 14.203C16.886 14.203 16.6275 14.0965 16.4364 13.9066C16.3409 13.8118 16.265 13.699 16.2132 13.5748C16.1614 13.4505 16.1348 13.3173 16.1348 13.1827C16.1348 13.0481 16.1614 12.9148 16.2132 12.7906C16.265 12.6663 16.3409 12.5536 16.4364 12.4588L18.0477 10.8479L14.3765 10.2565C14.2111 10.23 14.0548 10.163 13.9214 10.0617C13.788 9.9603 13.6816 9.82763 13.6117 9.6754L12.0005 6.23949L10.4097 9.61423C10.3375 9.76584 10.229 9.89729 10.0938 9.9969C9.95859 10.0965 9.80087 10.1612 9.63465 10.1852L5.95333 10.7052L8.62509 13.4784C8.73616 13.5948 8.81808 13.7359 8.86416 13.89C8.91025 14.0442 8.91918 14.2071 8.89023 14.3654L8.23759 18.1683L11.46 16.4351C11.615 16.3456 11.7909 16.2985 11.9699 16.2985C12.1489 16.2985 12.3248 16.3456 12.4798 16.4351L15.539 18.1683L15.3045 17.006C15.2504 16.7356 15.306 16.4548 15.459 16.2254C15.612 15.9959 15.8499 15.8366 16.1203 15.7826C16.3908 15.7285 16.6716 15.784 16.9011 15.937C17.1306 16.0899 17.2899 16.3278 17.344 16.5982L18.0171 19.9423C18.0546 20.1325 18.0371 20.3294 17.9666 20.51C17.8962 20.6906 17.7757 20.8473 17.6194 20.9619C17.4304 21.1088 17.1957 21.1846 16.9565 21.176Z" fill="url(#paint0_linear_158_205)"/>
<defs>
<linearGradient id="paint0_linear_158_205" x1="1.41245" y1="0.353142" x2="21.1772" y2="24.3531" gradientUnits="userSpaceOnUse">
<stop stop-color="#AD37E0"/>
<stop offset="1" stop-color="#EE2B3B"/>
</linearGradient>
</defs>
</svg>
