<svg width="50" height="22" viewBox="0 0 50 22" fill="none" xmlns="http://www.w3.org/2000/svg">
<rect width="50" height="22" rx="11" fill="#FBE5F1"/>
<g clip-path="url(#clip0_141_312)">
<path d="M14.2434 9.44672L12.3134 9.16672L11.4501 7.41672C11.3667 7.24672 11.1934 7.13672 11.0001 7.13672C10.8067 7.13672 10.6367 7.24339 10.5501 7.41672L9.68674 9.16672L7.75674 9.44672C7.57008 9.47339 7.41341 9.60672 7.35341 9.78672C7.29341 9.96672 7.34341 10.1667 7.48008 10.3001L8.87674 11.6601L8.54674 13.5834C8.53117 13.6754 8.54163 13.7699 8.57694 13.8563C8.61225 13.9427 8.67101 14.0175 8.74658 14.0723C8.82215 14.1271 8.91152 14.1596 9.00461 14.1663C9.0977 14.173 9.1908 14.1535 9.27341 14.1101L11.0001 13.2001L12.7267 14.1067C12.8001 14.1467 12.8801 14.1634 12.9601 14.1634C13.0634 14.1634 13.1667 14.1301 13.2534 14.0667C13.4067 13.9534 13.4834 13.7667 13.4534 13.5767L13.1234 11.6534L14.5201 10.2934C14.6567 10.1601 14.7067 9.96339 14.6467 9.78005C14.5867 9.60339 14.4301 9.47339 14.2434 9.44672ZM12.2367 11.1267C12.1201 11.2401 12.0634 11.4067 12.0934 11.5701L12.2967 12.7534L11.2334 12.1934C11.1601 12.1567 11.0801 12.1367 11.0001 12.1367C10.9201 12.1367 10.8401 12.1567 10.7667 12.1934L9.70341 12.7534L9.90674 11.5701C9.93341 11.4067 9.88008 11.2434 9.76341 11.1267L8.90341 10.2901L10.0901 10.1167C10.2534 10.0934 10.3934 9.99005 10.4667 9.84339L11.0001 8.76672L11.5301 9.84339C11.6034 9.99005 11.7434 10.0934 11.9067 10.1167L13.0934 10.2901L12.2367 11.1267Z" fill="#FF30A1"/>
<path d="M11.0007 3.83301C7.05065 3.83301 3.83398 7.04967 3.83398 10.9997C3.83398 14.953 7.05065 18.1663 11.0007 18.1663C14.9507 18.1663 18.1673 14.953 18.1673 10.9997C18.1673 7.04967 14.9507 3.83301 11.0007 3.83301ZM11.0007 17.1663C7.60065 17.1663 4.83398 14.3997 4.83398 10.9997C4.83398 7.59967 7.60065 4.83301 11.0007 4.83301C14.4007 4.83301 17.1673 7.59967 17.1673 10.9997C17.1673 14.3997 14.4007 17.1663 11.0007 17.1663Z" fill="#FF30A1"/>
</g>
<path d="M27.0731 14V12.78H23.7631L23.6031 11.32L26.6331 7.14H29.0131V11.18H29.8431V12.78H29.0131V14H27.0731ZM25.5931 11.18H27.0731V9.12L25.5931 11.18ZM31.7035 14.12C31.0335 14.12 30.5235 13.59 30.5235 12.94C30.5235 12.34 31.0335 11.81 31.7035 11.81C32.3235 11.81 32.8335 12.34 32.8335 12.94C32.8335 13.59 32.3235 14.12 31.7035 14.12ZM36.288 14.13C35.078 14.13 34.168 13.74 33.478 13.1L34.578 11.74C35.088 12.17 35.698 12.46 36.288 12.46C36.948 12.46 37.288 12.12 37.288 11.73C37.288 11.31 36.928 11.04 36.318 11.04C35.848 11.04 35.448 11.18 35.118 11.44L33.848 10.96L33.948 7.13H38.838V8.86H35.718L35.688 9.84C36.008 9.61 36.428 9.46 36.948 9.46C38.148 9.46 39.218 10.24 39.218 11.66C39.218 13.18 38.088 14.13 36.288 14.13Z" fill="#FF30A1"/>
<defs>
<clipPath id="clip0_141_312">
<rect width="16" height="16" fill="white" transform="translate(3 3)"/>
</clipPath>
</defs>
</svg>
