<svg width="17" height="17" viewBox="0 0 17 17" fill="none" xmlns="http://www.w3.org/2000/svg">
<path d="M8.5 5.84375C7.03893 5.84375 5.84372 7.03906 5.84372 8.5C5.84372 9.96107 7.03893 11.1562 8.5 11.1562C9.9611 11.1562 11.1562 9.96107 11.1562 8.5C11.1562 7.03906 9.9611 5.84375 8.5 5.84375ZM14.8397 7.79168C14.5208 4.85217 12.1478 2.47918 9.20832 2.16046V1.0625H7.79168V2.16043C4.85217 2.47914 2.47918 4.85214 2.1603 7.79164H1.0625V9.20832H2.16026C2.47914 12.1478 4.85211 14.5208 7.79164 14.8397V15.9375H9.20829V14.8397C12.1478 14.5209 14.5208 12.1479 14.8397 9.20836H15.9375V7.79168H14.8397ZM8.5 13.4583C5.77279 13.4583 3.54164 11.2271 3.54164 8.5C3.54164 5.77283 5.77279 3.54168 8.5 3.54168C11.2271 3.54168 13.4583 5.77286 13.4583 8.5C13.4583 11.2271 11.2271 13.4583 8.5 13.4583Z" fill="#E4C17F"/>
</svg>
