<svg width="24" height="24" viewBox="0 0 24 24" fill="none" xmlns="http://www.w3.org/2000/svg">
<path d="M22.9904 3.95021C22.9906 3.77357 22.9439 3.60007 22.8551 3.44735C22.7663 3.29464 22.6387 3.16817 22.4852 3.08084C22.3316 2.9935 22.1577 2.94842 21.9811 2.95017C21.8045 2.95193 21.6315 3.00046 21.4797 3.09083C20.8944 3.43921 20.2642 3.70601 19.6067 3.88383C18.6677 3.07806 17.47 2.63713 16.2327 2.64164C14.8753 2.6432 13.5716 3.17223 12.5969 4.11702C11.6222 5.06181 11.0529 6.3484 11.0091 7.70512C8.33305 7.27838 5.9077 5.88164 4.19552 3.78126C4.09235 3.65609 3.9606 3.55757 3.81138 3.494C3.66215 3.43043 3.49983 3.40368 3.3381 3.41601C3.17646 3.42932 3.02049 3.4818 2.88369 3.56892C2.74689 3.65603 2.63336 3.77516 2.55294 3.91601C2.14046 4.63582 1.90357 5.44276 1.86149 6.27131C1.8194 7.09986 1.97332 7.92666 2.31075 8.68456L2.3088 8.68651C2.15714 8.77991 2.03199 8.91066 1.9453 9.06625C1.85861 9.22185 1.8133 9.39708 1.81368 9.57519C1.81184 9.72211 1.82065 9.86898 1.84005 10.0146C1.94218 11.2729 2.49983 12.4507 3.40841 13.3271C3.34677 13.4446 3.30915 13.5731 3.29775 13.7052C3.28635 13.8373 3.30139 13.9704 3.342 14.0967C3.73811 15.3308 4.5805 16.3727 5.70431 17.0185C4.56255 17.46 3.32973 17.614 2.11446 17.4668C1.88953 17.4386 1.66169 17.4876 1.4683 17.6059C1.27492 17.7242 1.12748 17.9047 1.05017 18.1178C0.97286 18.3309 0.970267 18.5639 1.04282 18.7787C1.11537 18.9935 1.25875 19.1772 1.44946 19.2998C3.53955 20.646 5.97313 21.3617 8.45923 21.3613C11.2785 21.393 14.0292 20.4921 16.2835 18.7988C18.5377 17.1054 20.1692 14.7145 20.924 11.998C21.2771 10.8146 21.4574 9.58648 21.4592 8.35157C21.4592 8.28614 21.4592 8.21876 21.4582 8.15138C21.9803 7.58831 22.3848 6.92668 22.6479 6.20527C22.911 5.48387 23.0275 4.7172 22.9904 3.95021ZM19.6838 7.16212C19.5186 7.35746 19.435 7.60891 19.4504 7.86427C19.4602 8.02927 19.4592 8.19527 19.4592 8.35157C19.4571 9.39511 19.3042 10.4329 19.0051 11.4326C18.3886 13.744 17.0142 15.7817 15.1022 17.2192C13.1901 18.6568 10.8509 19.4111 8.45923 19.3613C7.6001 19.3616 6.74394 19.2606 5.90845 19.0606C6.97386 18.7172 7.97004 18.1879 8.85083 17.4971C9.01305 17.3693 9.13178 17.1945 9.19071 16.9967C9.24965 16.7988 9.24591 16.5875 9.18 16.3918C9.11409 16.1961 8.98925 16.0257 8.82261 15.9038C8.65596 15.7819 8.45567 15.7145 8.24923 15.7109C7.41806 15.698 6.62436 15.363 6.03536 14.7764C6.18478 14.7481 6.33322 14.7129 6.48068 14.6709C6.69669 14.6094 6.88572 14.477 7.01734 14.295C7.14895 14.1131 7.2155 13.8921 7.20625 13.6677C7.197 13.4433 7.1125 13.2285 6.96636 13.058C6.82022 12.8874 6.62093 12.7711 6.4006 12.7275C5.91813 12.6323 5.46414 12.427 5.07391 12.1277C4.68368 11.8284 4.36772 11.4432 4.1506 11.002C4.33133 11.0266 4.51321 11.0419 4.69552 11.0479C4.9121 11.0511 5.12411 10.9854 5.30089 10.8603C5.47767 10.7351 5.61006 10.5569 5.67892 10.3516C5.7449 10.1443 5.7415 9.92123 5.66925 9.7161C5.59699 9.51096 5.45982 9.33499 5.27853 9.21485C4.83867 8.92182 4.47837 8.52427 4.22988 8.0578C3.9814 7.59134 3.85248 7.07052 3.8547 6.54201C3.8547 6.47561 3.85665 6.4092 3.86056 6.34377C6.10182 8.43402 9.00888 9.66621 12.0696 9.82326C12.2241 9.82934 12.3779 9.80024 12.5195 9.73816C12.6611 9.67607 12.7868 9.58262 12.8869 9.46486C12.9861 9.34596 13.0564 9.20566 13.0921 9.05501C13.1278 8.90437 13.1281 8.74748 13.0929 8.5967C13.0358 8.35806 13.0066 8.11357 13.006 7.86818C13.0069 7.01271 13.3472 6.19254 13.9521 5.58764C14.557 4.98274 15.3772 4.64251 16.2326 4.64161C16.6728 4.64043 17.1084 4.7305 17.5119 4.90615C17.9155 5.0818 18.2783 5.3392 18.5773 5.66212C18.6927 5.7862 18.8378 5.87871 18.999 5.93085C19.1602 5.98299 19.3321 5.99303 19.4982 5.96001C19.909 5.88006 20.3139 5.7724 20.7101 5.63775C20.4399 6.19072 20.0945 6.70369 19.6838 7.16212Z" fill="url(#paint0_linear_0_513)"/>
<defs>
<linearGradient id="paint0_linear_0_513" x1="0.990235" y1="12.0019" x2="22.9971" y2="12.0019" gradientUnits="userSpaceOnUse">
<stop stop-color="#E49356"/>
<stop offset="1" stop-color="#E7CB87"/>
</linearGradient>
</defs>
</svg>
