<svg width="14" height="14" viewBox="0 0 14 14" fill="none" xmlns="http://www.w3.org/2000/svg">
<path d="M12.6843 2.83604C12.6844 2.74468 12.6603 2.65494 12.6143 2.57595C12.5684 2.49696 12.5024 2.43154 12.423 2.38637C12.3436 2.3412 12.2536 2.31788 12.1623 2.31878C12.0709 2.31969 11.9814 2.3448 11.9029 2.39154C11.6002 2.57174 11.2742 2.70974 10.9341 2.80171C10.4484 2.38493 9.82897 2.15687 9.18896 2.1592C8.48685 2.16001 7.81252 2.43364 7.30838 2.92233C6.80424 3.41101 6.50975 4.07649 6.48709 4.77824C5.10294 4.55751 3.84845 3.83506 2.96284 2.74866C2.90948 2.68392 2.84133 2.63296 2.76414 2.60008C2.68696 2.5672 2.603 2.55336 2.51934 2.55973C2.43574 2.56662 2.35506 2.59376 2.2843 2.63883C2.21354 2.68389 2.15483 2.74551 2.11323 2.81835C1.89988 3.19067 1.77735 3.60806 1.75558 4.03662C1.73381 4.46518 1.81343 4.89283 1.98796 5.28485L1.98695 5.28585C1.9085 5.33417 1.84377 5.4018 1.79893 5.48228C1.75409 5.56275 1.73065 5.65339 1.73085 5.74552C1.7299 5.82151 1.73446 5.89748 1.74449 5.97282C1.79732 6.62365 2.08576 7.23285 2.55571 7.68618C2.52383 7.74692 2.50437 7.8134 2.49847 7.88174C2.49258 7.95008 2.50036 8.01891 2.52136 8.08421C2.72625 8.72256 3.16196 9.26149 3.74325 9.59553C3.15268 9.82389 2.51501 9.90352 1.88643 9.82738C1.77008 9.81278 1.65223 9.83815 1.55221 9.89934C1.45218 9.96052 1.37592 10.0539 1.33593 10.1641C1.29594 10.2743 1.2946 10.3949 1.33213 10.506C1.36966 10.6171 1.44382 10.7121 1.54246 10.7755C2.62354 11.4718 3.88229 11.842 5.1682 11.8418C6.62644 11.8582 8.04922 11.3922 9.21522 10.5163C10.3812 9.64046 11.2251 8.40379 11.6155 6.9987C11.7981 6.38661 11.8914 5.75136 11.8923 5.11261C11.8923 5.07877 11.8923 5.04391 11.8918 5.00906C12.1619 4.71782 12.3711 4.3756 12.5072 4.00246C12.6433 3.62932 12.7035 3.23276 12.6843 2.83604ZM10.974 4.49738C10.8886 4.59842 10.8454 4.72848 10.8533 4.86056C10.8583 4.9459 10.8578 5.03176 10.8578 5.11261C10.8568 5.65237 10.7777 6.18914 10.623 6.70626C10.3041 7.90181 9.59322 8.95576 8.60421 9.69933C7.61521 10.4429 6.40528 10.8331 5.1682 10.8073C4.72383 10.8075 4.28099 10.7552 3.84883 10.6517C4.39991 10.4741 4.91517 10.2004 5.37076 9.84305C5.45467 9.77698 5.51608 9.68656 5.54656 9.58421C5.57704 9.48185 5.57511 9.37258 5.54102 9.27136C5.50693 9.17015 5.44236 9.08197 5.35616 9.01892C5.26996 8.95586 5.16636 8.92103 5.05958 8.91919C4.62967 8.9125 4.21913 8.7392 3.91448 8.43579C3.99176 8.42114 4.06854 8.40296 4.14482 8.38123C4.25655 8.34943 4.35432 8.28095 4.4224 8.18682C4.49048 8.09269 4.52489 7.97839 4.52011 7.86232C4.51533 7.74625 4.47162 7.63517 4.39603 7.54696C4.32044 7.45875 4.21736 7.39855 4.10339 7.37605C3.85385 7.32677 3.61902 7.2206 3.41718 7.0658C3.21533 6.911 3.05191 6.71174 2.9396 6.4835C3.03308 6.49626 3.12716 6.50418 3.22146 6.50724C3.33348 6.50893 3.44314 6.47495 3.53458 6.41021C3.62602 6.34547 3.6945 6.25332 3.73011 6.14709C3.76424 6.0399 3.76248 5.9245 3.72511 5.8184C3.68774 5.7123 3.61679 5.62128 3.52301 5.55913C3.2955 5.40757 3.10914 5.20194 2.98061 4.96066C2.85208 4.71939 2.78541 4.45 2.78655 4.17663C2.78655 4.14229 2.78756 4.10794 2.78958 4.07409C3.94885 5.15526 5.45251 5.7926 7.03562 5.87383C7.11553 5.87698 7.19511 5.86193 7.26835 5.82981C7.34159 5.7977 7.40658 5.74936 7.4584 5.68845C7.5097 5.62695 7.54603 5.55438 7.56452 5.47646C7.58301 5.39854 7.58316 5.31739 7.56496 5.2394C7.53538 5.11597 7.52029 4.98951 7.52 4.86258C7.52047 4.4201 7.69646 3.99587 8.00934 3.68299C8.32222 3.37011 8.74645 3.19413 9.18893 3.19366C9.41658 3.19305 9.64189 3.23965 9.85064 3.3305C10.0594 3.42135 10.247 3.55449 10.4017 3.72151C10.4614 3.7857 10.5365 3.83355 10.6198 3.86052C10.7032 3.88749 10.7921 3.89268 10.878 3.8756C11.0905 3.83425 11.2999 3.77856 11.5049 3.70891C11.3651 3.99493 11.1864 4.26026 10.974 4.49738Z" fill="url(#paint0_linear_141_396)"/>
<defs>
<linearGradient id="paint0_linear_141_396" x1="1.30493" y1="7.25552" x2="12.905" y2="7.25552" gradientUnits="userSpaceOnUse">
<stop stop-color="#AD37E0"/>
<stop offset="1" stop-color="#EE2B3B"/>
</linearGradient>
</defs>
</svg>
